<?xml version="1.0" encoding="utf-8" ?>
<svg xmlns="http://www.w3.org/2000/svg" xmlns:cc="http://creativecommons.org/ns" xmlns:dc="http://purl.org/dc/elements/1.1/" xmlns:ev="http://www.w3.org/2001/xml-events" xmlns:inkscape="http://www.inkscape.org/namespaces/inkscape" xmlns:rdf="http://www.w3.org/1999/02/22-rdf-syntax-ns" xmlns:sodipodi="http://sodipodi.sourceforge.net/DTD/sodipodi-0.dtd" xmlns:xlink="http://www.w3.org/1999/xlink" baseProfile="tiny" height="74.54503125cm" version="1.2" viewBox="0 0 2146.03 2817.45" width="56.78037708cm">
  <metadata>
    <rdf:RDF>
      <cc:Work>
        <dc:format>image/svg+xml</dc:format>
        <dc:source>vpype read x-chair-3.5x4-vpype-2.svg write x-chair-3.5x4-vpype-2.svg
</dc:source>
        <dc:date>2023-08-31T18:34:59.653569</dc:date>
      </cc:Work>
    </rdf:RDF>
  </metadata>
  <defs/>
  <g fill="none" id="layer1" inkscape:groupmode="layer" inkscape:label="1" stroke="#0000ff" stroke-width="3.0" style="display:inline">
    <polygon points="865.62,2478.71 177.12,2478.71 177.12,2343.71 123.12,2343.71 123.12,2478.71 1.62,2478.71 69.12,1587.71 123.12,1587.71 123.12,1668.71 177.12,1668.71 177.12,1587.71 865.62,1587.71 865.62,1668.71 919.62,1668.71 919.62,1587.71 973.62,1587.71 1041.12,2478.71 919.62,2478.71 919.62,2343.71 865.62,2343.71"/>
    <polygon points="123.09,1212.95 177.12,1212.95 177.12,1668.71 123.09,1668.71"/>
    <polygon points="865.25,1236.13 919.25,1236.13 919.25,1668.71 865.25,1668.71"/>
    <polygon points="865.82,2343.82 919.82,2343.82 919.82,2609.66 865.82,2609.66"/>
    <polygon points="123.09,2343.82 177.09,2343.82 177.09,2609.66 123.09,2609.66"/>
  </g>
  <g fill="none" id="layer2" inkscape:groupmode="layer" inkscape:label="2" stroke="#008800" stroke-width="3.0" style="display:inline">
    <polygon points="1960.68,1136.41 1880.21,1127.23 1875.81,1165.8 1956.29,1174.97 1919.2,1225.09 1896.53,1222.51 1798.78,2080.39 1690.08,2080.39 1795.33,1156.63 1799.6,1137.92 1807.38,1122.87 1818.14,1111.25 1831.37,1102.88 1846.55,1097.54 1863.14,1095.04 1884.18,1095.59 1905.47,1100.02 1925.99,1108.31 1944.74,1120.45"/>
    <polygon points="1851.32,1256.08 1855.72,1217.51 1815.48,1212.93 1811.09,1251.49"/>
    <polygon points="2144.5028,1158.0422 2140.1348,1196.1426 1876.0248,1165.8643 1880.3927,1127.7639"/>
  </g>
  <g fill="none" id="layer3" inkscape:groupmode="layer" inkscape:label="3" stroke="#ff0000" stroke-width="3.0" style="display:inline">
    <polygon points="1855.57,369.56 1936.05,360.39 1940.44,398.96 1859.96,408.13 1897.06,458.25 1919.73,455.66 2017.48,1313.54 2126.17,1313.54 2020.93,389.79 2016.65,371.08 2008.87,356.03 1998.11,344.41 1984.88,336.04 1969.71,330.7 1953.11,328.19 1932.07,328.75 1910.79,333.18 1890.27,341.47 1871.52,353.6"/>
    <polygon points="1964.93,489.23 1960.54,450.67 2000.77,446.09 2005.17,484.64"/>
    <polygon points="1936.4739,361.7061 1940.8818,399.8019 1676.8035,430.3568 1672.3957,392.261"/>
  </g>
  <g fill="none" id="layer4" inkscape:groupmode="layer" inkscape:label="4" stroke="#00cccc" stroke-width="3.0" style="display:inline">
    <polygon points="2072.17,2775.45 1768.42,2304.16 2072.17,1973.44 2126.17,1973.44 2126.17,1932.94 2072.17,1932.94 1727.92,2263.66 1383.67,1932.91 1329.67,1932.91 1329.67,1973.41 1383.67,1973.41 1687.42,2304.16 1383.67,2775.45 1329.67,2775.45 1329.67,2815.95 1383.67,2815.95 1727.92,2344.66 2072.17,2815.95 2126.17,2815.95 2126.17,2775.45"/>
    <polygon points="1329.67,1932.91 1383.67,1932.91 1383.67,1973.41 1329.67,1973.41"/>
    <polygon points="2072.17,1932.91 2126.17,1932.91 2126.17,1973.41 2072.17,1973.41"/>
    <polygon points="2072.17,2775.45 2126.17,2775.45 2126.17,2815.95 2072.17,2815.95"/>
    <polygon points="1329.67,2775.45 1383.67,2775.45 1383.67,2815.95 1329.67,2815.95"/>
  </g>
  <g fill="none" id="layer5" inkscape:groupmode="layer" inkscape:label="5" stroke="#00ff00" stroke-width="3.0" style="display:inline">
    <polygon points="1570.3,924.83 1532.08,918.09 1536.76,891.5 1505.49,913.4 1500.83,939.81 1509.42,1015.18 1515.96,1010.37 1523.06,1006.03 1530.18,1002.46 1537.79,999.43 1545.6,997.06 1553.56,995.36 1561.9,994.32 1570.03,994.01 1578.17,994.39 1586.27,995.46 1594.31,997.23 1601.94,999.6 1609.43,1002.64 1616.78,1006.36 1623.77,1010.69 1630.27,1015.51 1636.26,1020.8 1641.93,1026.73 1647.03,1033.07 1651.55,1039.78 1655.48,1046.82 1658.9,1054.4 1661.66,1062.24 1663.67,1070.02 1665.07,1078.23 1665.75,1086.28 1665.74,1094.4 1665.04,1102.54 1663.63,1110.66 1661.58,1118.44 1658.85,1126.13 1655.55,1133.42 1643.49,1127.36 1645.97,1121.97 1648.12,1116.22 1649.75,1110.67 1651.03,1104.81 1651.87,1098.91 1652.28,1093.02 1652.27,1087.14 1651.81,1081.02 1650.95,1075.25 1649.62,1069.29 1647.86,1063.45 1645.68,1057.76 1643.08,1052.23 1640.22,1047.14 1636.84,1042.02 1633.24,1037.36 1629.5,1033.14 1625.65,1029.36 1621.3,1025.64 1616.9,1022.36 1611.98,1019.19 1607.04,1016.47 1601.93,1014.09 1596.73,1012.08 1591.48,1010.44 1585.9,1009.12 1580.58,1008.22 1574.96,1007.67 1569.35,1007.5 1563.77,1007.71 1558.23,1008.3 1552.49,1009.31 1543.66,1011.7 1535.15,1015.04 1527.03,1019.31 1519.41,1024.48 1512.36,1030.52 1506.14,1037.19 1500.63,1044.61 1496.02,1052.52 1492.62,1060.07 1489.94,1068.13 1488.09,1076.4 1487.11,1084.82 1486.94,1091.05 1487.24,1097.29 1490.93,1129.98 1460.81,1129.95 1438.0,1130.17 1418.56,1131.13 1398.7,1133.36 1375.67,1138.42 1350.7,1148.44 1324.24,1165.65 1404.71,1174.81 1400.32,1213.38 1319.84,1204.21 1394.2,1267.03 1468.45,1275.49 1556.86,2051.55 1665.56,2051.55 1556.2,1091.73 1569.62,1090.2 1588.34,1254.51 1601.24,1252.54 1614.02,1249.53 1626.37,1245.57 1638.5,1240.6 1650.09,1234.73 1661.34,1227.85 1671.96,1220.14 1681.89,1211.64 1691.11,1202.41 1699.73,1192.28 1707.52,1181.49 1714.3,1170.34 1720.19,1158.66 1725.15,1146.51 1729.15,1133.93 1732.1,1121.25 1733.24,1114.51 1734.1,1107.7 1734.68,1100.81 1734.97,1093.85 1734.97,1086.84 1734.69,1080.07 1734.12,1073.27 1733.26,1066.31 1732.12,1059.49 1730.7,1052.75 1729.01,1046.11 1727.05,1039.56 1724.83,1033.12 1722.25,1026.54 1719.51,1020.34 1716.4,1014.02 1713.17,1008.09 1709.55,1002.07 1705.84,996.44 1701.74,990.74 1697.4,985.22 1693.01,980.1 1688.22,974.95 1683.42,970.2 1678.2,965.46 1672.99,961.11 1662.01,953.04 1656.25,949.33 1650.32,945.85 1644.22,942.61 1637.95,939.6 1730.83,412.83 1709.41,291.36 1682.83,286.67 1664.07,393.03 1625.85,386.29 1611.78,466.06 1650.01,472.8 1612.5,685.52 1574.27,678.78 1560.21,758.55 1598.43,765.29"/>
    <polygon points="1502.03,1319.24 1542.28,1323.82 1546.67,1285.25 1506.43,1280.67"/>
    <polygon points="1405.0754,1175.0551 1400.7075,1213.1555 1136.5974,1182.8772 1140.9654,1144.7767"/>
    <polygon points="1588.6103,1255.2124 1575.5015,1256.6735 1557.1372,1091.9138 1570.246,1090.4527"/>
    <polygon points="1692.0244,1.7057 1730.5619,8.4316 1570.6317,924.7901 1532.0943,918.0642"/>
    <polygon points="1707.0336,1070.0962 1660.0019,1136.5952 1496.8119,1021.1785 1543.8436,954.6794"/>
  </g>
  <g fill="none" id="layer6" inkscape:groupmode="layer" inkscape:label="6" stroke="#cc00cc" stroke-width="3.0" style="display:inline">
    <polygon points="1197.08,1159.23 1235.3,1152.49 1230.61,1125.9 1261.88,1147.8 1266.54,1174.21 1257.95,1249.58 1251.52,1244.83 1244.57,1240.56 1237.38,1236.93 1229.74,1233.86 1221.92,1231.47 1213.99,1229.77 1205.97,1228.76 1197.65,1228.41 1189.62,1228.76 1181.38,1229.82 1173.25,1231.58 1165.54,1233.95 1158.04,1236.98 1150.77,1240.64 1143.79,1244.95 1137.37,1249.71 1131.29,1255.06 1125.61,1260.99 1120.43,1267.4 1115.9,1274.09 1111.98,1281.06 1108.58,1288.55 1105.84,1296.25 1103.77,1304.14 1102.38,1312.15 1101.65,1320.52 1101.65,1328.66 1102.34,1336.79 1103.72,1344.87 1105.72,1352.58 1108.48,1360.42 1111.82,1367.83 1123.89,1361.76 1121.4,1356.32 1119.31,1350.74 1117.64,1345.04 1116.33,1338.97 1115.51,1333.09 1115.11,1327.16 1115.14,1321.21 1115.6,1315.24 1116.48,1309.37 1117.83,1303.38 1119.59,1297.58 1121.75,1291.98 1124.3,1286.6 1127.2,1281.46 1130.44,1276.56 1134.19,1271.7 1137.9,1267.56 1141.86,1263.67 1146.07,1260.06 1150.74,1256.59 1155.64,1253.44 1160.51,1250.77 1165.57,1248.42 1170.79,1246.42 1176.17,1244.76 1181.68,1243.47 1187.3,1242.56 1192.75,1242.06 1198.27,1241.91 1203.86,1242.14 1209.49,1242.75 1215.01,1243.73 1223.97,1246.16 1232.46,1249.52 1240.43,1253.75 1248.05,1258.95 1255.01,1264.93 1261.25,1271.62 1266.86,1279.19 1271.47,1287.11 1274.88,1294.74 1277.53,1302.74 1279.35,1311.04 1280.29,1319.3 1280.45,1325.4 1280.15,1331.59 1276.45,1364.39 1329.38,1364.57 1348.82,1365.54 1368.67,1367.77 1391.71,1372.83 1416.67,1382.85 1443.14,1400.05 1362.66,1409.22 1367.06,1447.78 1447.53,1438.61 1373.17,1501.44 1298.93,1509.89 1210.51,2285.95 1101.81,2285.95 1211.17,1326.13 1197.76,1324.6 1179.04,1488.91 1166.2,1486.94 1153.39,1483.92 1140.95,1479.92 1128.66,1474.86 1117.12,1468.99 1105.86,1462.09 1095.19,1454.33 1085.16,1445.73 1075.84,1436.34 1067.44,1426.42 1059.8,1415.81 1052.99,1404.55 1047.16,1392.94 1042.13,1380.58 1038.17,1368.06 1035.24,1355.43 1034.1,1348.67 1033.24,1341.91 1032.67,1335.14 1032.38,1328.1 1032.38,1321.36 1032.67,1314.37 1033.25,1307.41 1034.13,1300.5 1036.68,1287.12 1038.39,1280.4 1040.39,1273.76 1042.66,1267.21 1045.2,1260.76 1048.01,1254.42 1051.08,1248.2 1054.41,1242.11 1058.0,1236.16 1065.76,1224.92 1070.09,1219.42 1074.48,1214.31 1083.9,1204.6 1088.94,1200.01 1094.19,1195.62 1099.65,1191.43 1105.32,1187.44 1111.18,1183.68 1116.99,1180.28 1123.25,1176.96 1129.43,1174.0 1036.54,647.23 1057.96,525.76 1084.55,521.08 1103.3,627.43 1141.52,620.69 1155.59,700.46 1117.37,707.2 1154.87,919.92 1193.1,913.18 1207.16,992.95 1168.94,999.69"/>
    <polygon points="1225.1,1557.02 1265.34,1552.43 1260.95,1513.87 1220.71,1518.46"/>
    <polygon points="1626.879,1378.6444 1631.2868,1416.7402 1367.2086,1447.2951 1362.8008,1409.1992"/>
    <polygon points="1197.743,1324.5073 1210.8518,1325.9685 1192.4875,1490.7282 1179.3787,1489.267"/>
    <polygon points="1235.2989,1152.4788 1197.717,1159.0379 1037.7455,242.4429 1075.3275,235.8838"/>
    <polygon points="1227.5192,1185.4481 1274.5509,1251.9471 1111.3609,1367.3639 1064.3292,1300.8648"/>
  </g>
  <g fill="none" id="layer7" inkscape:groupmode="layer" inkscape:label="7" stroke="#cccc00" stroke-width="3.0" style="display:inline">
    <polygon points="69.12,1237.31 69.12,427.31 973.62,427.31 973.62,1237.31"/>
    <polygon points="123.12,994.31 123.12,1075.31 177.12,1075.31 177.12,994.31"/>
    <polygon points="123.12,697.31 123.12,778.31 177.12,778.31 177.12,697.31"/>
    <polygon points="919.62,994.31 865.62,994.31 865.62,1075.31 919.62,1075.31"/>
    <polygon points="919.62,697.31 865.62,697.31 865.62,778.31 919.62,778.31"/>
    <polygon points="69.12,1621.31 69.12,1454.25 973.62,1454.25 973.62,1621.31"/>
  </g>
</svg>
