<?xml version="1.0" encoding="utf-8"?>
<!-- Generator: Adobe Illustrator 27.7.0, SVG Export Plug-In . SVG Version: 6.00 Build 0)  -->
<svg version="1.1"
	 id="Layer_1" xmlns:ev="http://www.w3.org/2001/xml-events" xmlns:sodipodi="http://sodipodi.sourceforge.net/DTD/sodipodi-0.dtd" xmlns:cc="http://creativecommons.org/ns" xmlns:inkscape="http://www.inkscape.org/namespaces/inkscape" xmlns:dc="http://purl.org/dc/elements/1.1/" xmlns:rdf="http://www.w3.org/1999/02/22-rdf-syntax-ns"
	 xmlns="http://www.w3.org/2000/svg" xmlns:xlink="http://www.w3.org/1999/xlink" x="0px" y="0px" width="1609.522px"
	 height="2113.087px" viewBox="0 0 1609.522 2113.087" enable-background="new 0 0 1609.522 2113.087" xml:space="preserve">
<polygon fill="none" stroke="#231F20" stroke-width="2.25" stroke-miterlimit="3" points="649.215,1859.032 132.84,1859.032 
	132.84,1757.782 92.34,1757.782 92.34,1859.032 1.215,1859.032 51.84,1190.782 92.34,1190.782 92.34,1251.532 132.84,1251.532 
	132.84,1190.782 649.215,1190.782 649.215,1251.532 689.715,1251.532 689.715,1190.782 730.215,1190.782 780.84,1859.032 
	689.715,1859.032 689.715,1757.782 649.215,1757.782 "/>
<polygon fill="none" stroke="#0000FF" stroke-width="2.25" stroke-miterlimit="3" points="92.317,909.712 132.84,909.712 
	132.84,1251.532 92.317,1251.532 "/>
<polygon fill="none" stroke="#0000FF" stroke-width="2.25" stroke-miterlimit="3" points="648.938,927.098 689.438,927.098 
	689.438,1251.532 648.938,1251.532 "/>
<polygon fill="none" stroke="#0000FF" stroke-width="2.25" stroke-miterlimit="3" points="649.365,1757.865 689.865,1757.865 
	689.865,1957.245 649.365,1957.245 "/>
<polygon fill="none" stroke="#0000FF" stroke-width="2.25" stroke-miterlimit="3" points="92.317,1757.865 132.818,1757.865 
	132.818,1957.245 92.317,1957.245 "/>
<g id="layer2" inkscape:groupmode="layer" inkscape:label="2">
	<polygon fill="none" stroke="#008800" stroke-width="2.25" stroke-miterlimit="3" points="1470.51,852.307 1410.157,845.422 
		1406.858,874.35 1467.218,881.227 1439.4,918.818 1422.397,916.883 1349.085,1560.292 1267.56,1560.292 1346.497,867.473 
		1349.7,853.44 1355.535,842.152 1363.605,833.438 1373.527,827.16 1384.913,823.155 1397.355,821.28 1413.135,821.693 
		1429.103,825.015 1444.492,831.233 1458.555,840.337 	"/>
	<polygon fill="none" stroke="#008800" stroke-width="2.25" stroke-miterlimit="3" points="1388.49,942.06 1391.79,913.133 
		1361.61,909.698 1358.318,938.617 	"/>
	<polygon fill="none" stroke="#008800" stroke-width="2.25" stroke-miterlimit="3" points="1608.377,868.532 1605.101,897.107 
		1407.019,874.398 1410.295,845.823 	"/>
</g>
<g id="layer3" inkscape:groupmode="layer" inkscape:label="3">
	<polygon fill="none" stroke="#FF0000" stroke-width="2.25" stroke-miterlimit="3" points="1391.677,277.17 1452.038,270.293 
		1455.33,299.22 1394.97,306.098 1422.795,343.688 1439.797,341.745 1513.11,985.155 1594.627,985.155 1515.698,292.342 
		1512.488,278.31 1506.652,267.022 1498.583,258.307 1488.66,252.03 1477.282,248.025 1464.833,246.143 1449.052,246.562 
		1433.093,249.885 1417.703,256.103 1403.64,265.2 	"/>
	<polygon fill="none" stroke="#FF0000" stroke-width="2.25" stroke-miterlimit="3" points="1473.698,366.923 1470.405,338.003 
		1500.578,334.568 1503.878,363.48 	"/>
	<polygon fill="none" stroke="#FF0000" stroke-width="2.25" stroke-miterlimit="3" points="1452.355,271.28 1455.661,299.851 
		1257.603,322.768 1254.297,294.196 	"/>
</g>
<g id="layer4" inkscape:groupmode="layer" inkscape:label="4">
	<polygon fill="none" stroke="#00CCCC" stroke-width="2.25" stroke-miterlimit="3" points="1554.127,2081.587 1326.315,1728.12 
		1554.127,1480.08 1594.627,1480.08 1594.627,1449.705 1554.127,1449.705 1295.94,1697.745 1037.753,1449.682 997.253,1449.682 
		997.253,1480.057 1037.753,1480.057 1265.565,1728.12 1037.753,2081.587 997.253,2081.587 997.253,2111.962 1037.753,2111.962 
		1295.94,1758.495 1554.127,2111.962 1594.627,2111.962 1594.627,2081.587 	"/>
	<polygon fill="none" stroke="#00CCCC" stroke-width="2.25" stroke-miterlimit="3" points="997.253,1449.682 1037.753,1449.682 
		1037.753,1480.057 997.253,1480.057 	"/>
	<polygon fill="none" stroke="#00CCCC" stroke-width="2.25" stroke-miterlimit="3" points="1554.127,1449.682 1594.627,1449.682 
		1594.627,1480.057 1554.127,1480.057 	"/>
	<polygon fill="none" stroke="#00CCCC" stroke-width="2.25" stroke-miterlimit="3" points="1554.127,2081.587 1594.627,2081.587 
		1594.627,2111.962 1554.127,2111.962 	"/>
	<polygon fill="none" stroke="#00CCCC" stroke-width="2.25" stroke-miterlimit="3" points="997.253,2081.587 1037.753,2081.587 
		1037.753,2111.962 997.253,2111.962 	"/>
</g>
<g id="layer5" inkscape:groupmode="layer" inkscape:label="5">
	<polygon fill="none" stroke="#00FF00" stroke-width="2.25" stroke-miterlimit="3" points="1177.725,693.622 1149.06,688.568 
		1152.57,668.625 1129.117,685.05 1125.622,704.857 1132.065,761.385 1136.97,757.777 1142.295,754.523 1147.635,751.845 
		1153.343,749.573 1159.2,747.795 1165.17,746.52 1171.425,745.74 1177.522,745.508 1183.628,745.792 1189.703,746.595 
		1195.733,747.922 1201.455,749.7 1207.073,751.98 1212.585,754.77 1217.828,758.018 1222.703,761.633 1227.195,765.6 
		1231.448,770.047 1235.272,774.802 1238.663,779.835 1241.61,785.115 1244.175,790.8 1246.245,796.68 1247.753,802.515 
		1248.802,808.672 1249.312,814.71 1249.305,820.8 1248.78,826.905 1247.723,832.995 1246.185,838.83 1244.137,844.598 
		1241.663,850.065 1232.617,845.52 1234.478,841.477 1236.09,837.165 1237.312,833.003 1238.272,828.608 1238.902,824.182 
		1239.21,819.765 1239.203,815.355 1238.858,810.765 1238.212,806.438 1237.215,801.968 1235.895,797.587 1234.26,793.32 
		1232.31,789.172 1230.165,785.355 1227.63,781.515 1224.93,778.02 1222.125,774.855 1219.238,772.02 1215.975,769.23 
		1212.675,766.77 1208.985,764.393 1205.28,762.352 1201.448,760.568 1197.547,759.06 1193.61,757.83 1189.425,756.84 
		1185.435,756.165 1181.22,755.753 1177.012,755.625 1172.828,755.783 1168.672,756.225 1164.367,756.982 1157.745,758.775 
		1151.363,761.28 1145.272,764.482 1139.557,768.36 1134.27,772.89 1129.605,777.892 1125.473,783.458 1122.015,789.39 
		1119.465,795.052 1117.455,801.098 1116.068,807.3 1115.333,813.615 1115.205,818.288 1115.43,822.968 1118.198,847.485 
		1095.608,847.462 1078.5,847.628 1063.92,848.348 1049.025,850.02 1031.753,853.815 1013.025,861.33 993.18,874.238 
		1053.532,881.108 1050.24,910.035 989.88,903.157 1045.65,950.273 1101.337,956.617 1167.645,1538.663 1249.17,1538.663 
		1167.15,818.797 1177.215,817.65 1191.255,940.883 1200.93,939.405 1210.515,937.148 1219.777,934.177 1228.875,930.45 
		1237.568,926.047 1246.005,920.887 1253.97,915.105 1261.417,908.73 1268.333,901.807 1274.797,894.21 1280.64,886.117 
		1285.725,877.755 1290.142,868.995 1293.863,859.883 1296.863,850.448 1299.075,840.938 1299.93,835.883 1300.575,830.775 
		1301.01,825.608 1301.228,820.387 1301.228,815.13 1301.017,810.052 1300.59,804.953 1299.945,799.733 1299.09,794.617 
		1298.025,789.562 1296.758,784.583 1295.288,779.67 1293.622,774.84 1291.688,769.905 1289.633,765.255 1287.3,760.515 
		1284.878,756.068 1282.163,751.552 1279.38,747.33 1276.305,743.055 1273.05,738.915 1269.758,735.075 1266.165,731.213 
		1262.565,727.65 1258.65,724.095 1254.742,720.833 1246.508,714.78 1242.188,711.997 1237.74,709.387 1233.165,706.958 
		1228.462,704.7 1298.122,309.622 1282.057,218.52 1262.122,215.003 1248.052,294.772 1219.387,289.717 1208.835,349.545 
		1237.508,354.6 1209.375,514.14 1180.703,509.085 1170.157,568.912 1198.823,573.967 	"/>
	<polygon fill="none" stroke="#00FF00" stroke-width="2.25" stroke-miterlimit="3" points="1126.522,989.43 1156.71,992.865 
		1160.003,963.938 1129.823,960.503 	"/>
	<polygon fill="none" stroke="#00FF00" stroke-width="2.25" stroke-miterlimit="3" points="1053.807,881.291 1050.531,909.867 
		852.448,887.158 855.724,858.583 	"/>
	<polygon fill="none" stroke="#00FF00" stroke-width="2.25" stroke-miterlimit="3" points="1191.458,941.409 1181.626,942.505 
		1167.853,818.935 1177.684,817.84 	"/>
	<polygon fill="none" stroke="#00FF00" stroke-width="2.25" stroke-miterlimit="3" points="1269.018,1.279 1297.921,6.324 
		1177.974,693.593 1149.071,688.548 	"/>
	<polygon fill="none" stroke="#00FF00" stroke-width="2.25" stroke-miterlimit="3" points="1280.275,802.572 1245.001,852.446 
		1122.609,765.884 1157.883,716.01 	"/>
</g>
<g id="layer6" inkscape:groupmode="layer" inkscape:label="6">
	<polygon fill="none" stroke="#CC00CC" stroke-width="2.25" stroke-miterlimit="3" points="897.81,869.422 926.475,864.367 
		922.958,844.425 946.41,860.85 949.905,880.657 943.462,937.185 938.64,933.622 933.427,930.42 928.035,927.698 922.305,925.395 
		916.44,923.602 910.492,922.328 904.477,921.57 898.238,921.307 892.215,921.57 886.035,922.365 879.938,923.685 874.155,925.462 
		868.53,927.735 863.078,930.48 857.843,933.712 853.027,937.282 848.468,941.295 844.208,945.742 840.323,950.55 836.925,955.568 
		833.985,960.795 831.435,966.413 829.38,972.188 827.828,978.105 826.785,984.113 826.238,990.39 826.238,996.495 
		826.755,1002.593 827.79,1008.652 829.29,1014.435 831.36,1020.315 833.865,1025.872 842.917,1021.32 841.05,1017.24 
		839.483,1013.055 838.23,1008.78 837.247,1004.227 836.633,999.818 836.333,995.37 836.355,990.907 836.7,986.43 837.36,982.027 
		838.372,977.535 839.693,973.185 841.312,968.985 843.225,964.95 845.4,961.095 847.83,957.42 850.642,953.775 853.425,950.67 
		856.395,947.753 859.552,945.045 863.055,942.443 866.73,940.08 870.383,938.078 874.177,936.315 878.093,934.815 882.128,933.57 
		886.26,932.602 890.475,931.92 894.562,931.545 898.703,931.432 902.895,931.605 907.117,932.062 911.258,932.797 917.977,934.62 
		924.345,937.14 930.323,940.312 936.038,944.212 941.258,948.698 945.938,953.715 950.145,959.392 953.602,965.333 956.16,971.055 
		958.148,977.055 959.512,983.28 960.218,989.475 960.337,994.05 960.113,998.693 957.337,1023.292 997.035,1023.427 
		1011.615,1024.155 1026.503,1025.828 1043.782,1029.622 1062.503,1037.137 1082.355,1050.038 1021.995,1056.915 1025.295,1085.835 
		1085.647,1078.958 1029.878,1126.08 974.198,1132.417 907.883,1714.462 826.358,1714.462 908.378,994.598 898.32,993.45 
		884.28,1116.682 874.65,1115.205 865.042,1112.94 855.712,1109.94 846.495,1106.145 837.84,1101.742 829.395,1096.568 
		821.392,1090.747 813.87,1084.297 806.88,1077.255 800.58,1069.815 794.85,1061.858 789.742,1053.413 785.37,1044.705 
		781.598,1035.435 778.628,1026.045 776.43,1016.573 775.575,1011.503 774.93,1006.432 774.503,1001.355 774.285,996.075 
		774.285,991.02 774.503,985.777 774.938,980.557 775.598,975.375 777.51,965.34 778.792,960.3 780.292,955.32 781.995,950.407 
		783.9,945.57 786.008,940.815 788.31,936.15 790.807,931.583 793.5,927.12 799.32,918.69 802.568,914.565 805.86,910.733 
		812.925,903.45 816.705,900.008 820.642,896.715 824.738,893.573 828.99,890.58 833.385,887.76 837.742,885.21 842.438,882.72 
		847.073,880.5 777.405,485.422 793.47,394.32 813.413,390.81 827.475,470.573 856.14,465.518 866.693,525.345 838.027,530.4 
		866.152,689.94 894.825,684.885 905.37,744.713 876.705,749.768 	"/>
	<polygon fill="none" stroke="#CC00CC" stroke-width="2.25" stroke-miterlimit="3" points="918.825,1167.765 949.005,1164.323 
		945.712,1135.402 915.532,1138.845 	"/>
	<polygon fill="none" stroke="#CC00CC" stroke-width="2.25" stroke-miterlimit="3" points="1220.159,1033.983 1223.465,1062.555 
		1025.406,1085.471 1022.101,1056.899 	"/>
	<polygon fill="none" stroke="#CC00CC" stroke-width="2.25" stroke-miterlimit="3" points="898.307,993.38 908.139,994.476 
		894.366,1118.046 884.534,1116.95 	"/>
	<polygon fill="none" stroke="#CC00CC" stroke-width="2.25" stroke-miterlimit="3" points="926.474,864.359 898.288,869.278 
		778.309,181.832 806.496,176.913 	"/>
	<polygon fill="none" stroke="#CC00CC" stroke-width="2.25" stroke-miterlimit="3" points="920.639,889.086 955.913,938.96 
		833.521,1025.523 798.247,975.649 	"/>
</g>
<g id="layer7" inkscape:groupmode="layer" inkscape:label="7">
	<polygon fill="none" stroke="#CCCC00" stroke-width="2.25" stroke-miterlimit="3" points="51.84,927.983 51.84,320.482 
		730.215,320.482 730.215,927.983 	"/>
	<polygon fill="none" stroke="#CCCC00" stroke-width="2.25" stroke-miterlimit="3" points="92.34,745.732 92.34,806.483 
		132.84,806.483 132.84,745.732 	"/>
	<polygon fill="none" stroke="#CCCC00" stroke-width="2.25" stroke-miterlimit="3" points="92.34,522.982 92.34,583.732 
		132.84,583.732 132.84,522.982 	"/>
	<polygon fill="none" stroke="#CCCC00" stroke-width="2.25" stroke-miterlimit="3" points="689.715,745.732 649.215,745.732 
		649.215,806.483 689.715,806.483 	"/>
	<polygon fill="none" stroke="#CCCC00" stroke-width="2.25" stroke-miterlimit="3" points="689.715,522.982 649.215,522.982 
		649.215,583.732 689.715,583.732 	"/>
	<polygon fill="none" stroke="#CCCC00" stroke-width="2.25" stroke-miterlimit="3" points="51.84,1215.983 51.84,1090.688 
		730.215,1090.688 730.215,1215.983 	"/>
</g>
</svg>
