<?xml version="1.0" encoding="utf-8"?>
<!-- Generator: Adobe Illustrator 27.9.0, SVG Export Plug-In . SVG Version: 6.00 Build 0)  -->
<svg version="1.1" id="Layer_1" xmlns="http://www.w3.org/2000/svg" xmlns:xlink="http://www.w3.org/1999/xlink" x="0px" y="0px"
	 width="3456px" height="5184px" viewBox="0 0 3456 5184" style="enable-background:new 0 0 3456 5184;" xml:space="preserve">
<g>
	
		<polygon style="fill:none;stroke:#2E3192;stroke-width:8.5039;stroke-linecap:round;stroke-linejoin:round;stroke-miterlimit:10;" points="
		1983.863,2969.6 1932.162,2969.6 1880.363,2969.6 1854.562,2969.6 1828.415,2969.6 1828.415,2928.4 1828.115,2878.7 
		1802.215,2878.7 1776.315,2878.7 1776.315,2809.6 1776.315,2731.9 1802.215,2731.9 1828.115,2731.9 1828.115,2770.7 
		1828.115,2809.6 1854.562,2809.6 1880.363,2809.6 1880.363,2770.7 1880.363,2731.9 1932.162,2731.9 1983.863,2731.9 1983.863,2799 
		1983.863,2866.1 1983.863,2917.9 	"/>
	
		<polygon style="opacity:0.72;fill:#ED1C24;stroke:#ED1C24;stroke-width:2.8346;stroke-linecap:round;stroke-linejoin:round;stroke-miterlimit:10;enable-background:new    ;" points="
		2502.563,1698.4 2554.263,1698.4 2606.063,1698.4 2606.063,1660.2 2606.063,1622 2554.263,1622 2502.563,1622 2502.563,1660.2 	"/>
	
		<polygon style="opacity:0.7;fill:#ED1C24;stroke:#ED1C24;stroke-width:2.8346;stroke-linecap:round;stroke-linejoin:round;stroke-miterlimit:10;enable-background:new    ;" points="
		1880.363,1698.4 1932.162,1698.4 1983.863,1698.4 1983.863,1660.2 1983.863,1622 1932.162,1622 1880.363,1622 1880.363,1660.2 	"/>
	
		<polygon style="fill:none;stroke:#00AEEF;stroke-width:8.5039;stroke-linecap:round;stroke-linejoin:round;stroke-miterlimit:10;" points="
		1880.363,2373.4 1854.562,2373.4 1828.115,2373.4 1802.215,2373.4 1776.315,2373.4 1776.315,2295.8 1776.315,2218.2 
		1802.215,2218.2 1828.115,2218.2 1828.115,2257 1828.115,2295.8 1854.562,2295.8 1880.363,2295.8 1880.363,2257 1880.363,2218.2 
		1932.162,2218.2 1983.863,2218.2 1983.863,2295.8 1983.863,2373.4 1932.162,2373.4 	"/>
	
		<polygon style="fill:none;stroke:#2E3192;stroke-width:17.0079;stroke-linecap:round;stroke-linejoin:round;stroke-miterlimit:10;" points="
		3124.663,2969.6 3176.363,2969.6 3228.163,2969.6 3252.889,2969.6 3280.189,2969.6 3280.189,2928.4 3280.389,2878.8 
		3306.289,2878.8 3332.189,2878.8 3332.189,2809.6 3332.189,2731.9 3306.289,2731.9 3280.389,2731.9 3280.389,2770.7 
		3280.389,2809.6 3254.589,2809.6 3228.163,2809.6 3228.163,2770.7 3228.163,2731.9 3176.363,2731.9 3124.663,2731.9 3124.663,2799 
		3124.663,2866.1 3124.663,2917.9 	"/>
	
		<polygon style="opacity:0.74;fill:#ED1C24;stroke:#ED1C24;stroke-width:14.1732;stroke-linecap:round;stroke-linejoin:round;stroke-miterlimit:10;enable-background:new    ;" points="
		3228.163,1698.4 3176.363,1698.4 3124.663,1698.4 3124.663,1660.2 3124.663,1622 3176.363,1622 3228.163,1622 3228.163,1660.2 	"/>
	
		<polygon style="fill:none;stroke:#00AEEF;stroke-width:17.0079;stroke-linecap:round;stroke-linejoin:round;stroke-miterlimit:10;" points="
		3228.163,2373.4 3254.589,2373.4 3280.389,2373.4 3306.289,2373.4 3332.189,2373.4 3332.189,2295.8 3332.189,2218.2 
		3306.289,2218.2 3280.389,2218.2 3280.389,2257 3280.389,2295.8 3254.589,2295.8 3228.163,2295.8 3228.163,2257 3228.163,2218.2 
		3176.363,2218.2 3124.663,2218.2 3124.663,2295.8 3124.663,2373.4 3176.363,2373.4 	"/>
	
		<polygon style="fill:none;stroke:#00AEEF;stroke-width:14.1732;stroke-linecap:round;stroke-linejoin:round;stroke-miterlimit:10;" points="
		3228.163,2269.9 3228.163,2321.7 3228.163,2373.4 2865.363,2373.4 2502.563,2373.4 2502.563,2321.7 2502.563,2269.9 
		2865.363,2269.9 	"/>
	
		<polygon style="fill:none;stroke:#000000;stroke-width:2.8346;stroke-linecap:round;stroke-linejoin:round;stroke-miterlimit:10;" points="
		2606.063,1622 2554.263,1622 2502.563,1622 2450.763,1622 2450.763,1699.6 2450.763,1777.3 2502.563,1777.3 2502.563,1997.7 
		2502.563,2373.4 2554.263,2373.4 2606.063,2373.4 2606.063,1997.7 2606.063,1777.3 2657.763,1777.3 2657.763,1699.6 2657.763,1622 
			"/>
	
		<polygon style="fill:none;stroke:#00AEEF;stroke-width:5.6693;stroke-linecap:round;stroke-linejoin:round;stroke-miterlimit:10;" points="
		1880.363,2269.9 1880.363,2321.7 1880.363,2373.4 2243.263,2373.4 2606.063,2373.4 2606.063,2321.7 2606.063,2269.9 
		2243.263,2269.9 	"/>
	
		<polygon style="fill:none;stroke:#000000;stroke-width:2.8346;stroke-linecap:round;stroke-linejoin:round;stroke-miterlimit:10;" points="
		2502.563,2969.6 2554.263,2969.6 2606.063,2969.6 2606.063,2619.8 2606.063,2269.9 2554.263,2269.9 2502.563,2269.9 
		2502.563,2619.8 	"/>
	
		<polygon style="fill:none;stroke:#00AEEF;stroke-width:14.1732;stroke-linecap:round;stroke-linejoin:round;stroke-miterlimit:10;" points="
		3176.363,1622 3150.563,1622 3124.663,1622 3072.863,1622 3072.863,1699.6 3072.863,1777.3 3124.663,1777.3 3124.663,1997.7 
		3124.663,2373.4 3176.363,2373.4 3228.163,2373.4 3228.163,1997.7 3228.163,1777.3 3228.163,1699.6 3228.163,1622 	"/>
	
		<polygon style="opacity:0.73;fill:#B7268F;stroke:#231F20;stroke-width:14.1732;stroke-linecap:round;stroke-linejoin:round;stroke-miterlimit:10;enable-background:new    ;" points="
		2865.363,1622 2657.763,1622 2554.263,1622 2502.563,1622 2450.763,1622 2450.763,1699.6 2450.763,1777.3 2502.563,1777.3 
		2554.263,1777.3 2657.763,1777.3 2865.363,1777.3 3228.163,1777.3 3228.163,1699.6 3228.163,1622 	"/>
	
		<polygon style="fill:#3F55A5;stroke:#231F20;stroke-width:2.8346;stroke-linecap:round;stroke-linejoin:round;stroke-miterlimit:10;" points="
		2606.063,1622 2554.263,1622 2450.763,1622 2243.263,1622 1880.363,1622 1880.363,1699.6 1880.363,1777.3 2243.263,1777.3 
		2450.763,1777.3 2554.263,1777.3 2606.063,1777.3 2657.763,1777.3 2657.763,1699.6 2657.763,1622 	"/>
	
		<polygon style="fill:none;stroke:#00AEEF;stroke-width:5.6693;stroke-linecap:round;stroke-linejoin:round;stroke-miterlimit:10;" points="
		1983.863,1622 1958.062,1622 1932.162,1622 1880.363,1622 1880.363,1699.6 1880.363,1777.3 1880.363,1997.7 1880.363,2373.4 
		1932.162,2373.4 1983.863,2373.4 1983.863,1997.7 1983.863,1777.3 2035.662,1777.3 2035.662,1699.6 2035.662,1622 	"/>
	
		<polygon style="opacity:0.5;fill:#2E3192;stroke:#00AEEF;stroke-width:5.6693;stroke-linecap:round;stroke-linejoin:round;stroke-miterlimit:10;enable-background:new    ;" points="
		1880.363,2969.6 1932.162,2969.6 1983.863,2969.6 1983.863,2619.8 1983.863,2269.9 1932.162,2269.9 1880.363,2269.9 
		1880.363,2619.8 	"/>
	
		<polygon style="fill:none;stroke:#2E3192;stroke-width:5.6693;stroke-linecap:round;stroke-linejoin:round;stroke-miterlimit:10;" points="
		1880.363,2866.1 1880.363,2917.9 1880.363,2969.6 2243.263,2969.6 2606.063,2969.6 2606.063,2917.9 2606.063,2866.1 
		2243.263,2866.1 	"/>
	
		<polygon style="fill:none;stroke:#2E3192;stroke-width:14.1732;stroke-linecap:round;stroke-linejoin:round;stroke-miterlimit:10;" points="
		3228.163,2866.1 3228.163,2917.9 3228.163,2969.6 2865.363,2969.6 2502.563,2969.6 2502.563,2917.9 2502.563,2866.1 
		2865.363,2866.1 	"/>
	
		<polygon style="opacity:0.5;fill:#2E3192;stroke:#00AEEF;stroke-width:14.1732;stroke-linecap:round;stroke-linejoin:round;stroke-miterlimit:10;enable-background:new    ;" points="
		3228.163,2969.6 3176.363,2969.6 3124.663,2969.6 3124.663,2619.8 3124.663,2269.9 3176.363,2269.9 3228.163,2269.9 
		3228.163,2619.8 	"/>
	
		<polygon style="fill:none;stroke:#000000;stroke-width:14.1732;stroke-linecap:round;stroke-linejoin:round;stroke-miterlimit:10;" points="
		2502.563,2269.9 2502.563,2321.7 2502.563,2373.4 2554.263,2373.4 2606.063,2373.4 2788.563,2198.5 2971.063,2023.6 
		2918.263,1972.9 2865.363,1922.3 2683.963,2096.1 	"/>
	
		<polygon style="fill:none;stroke:#000000;stroke-width:14.1732;stroke-linecap:round;stroke-linejoin:round;stroke-miterlimit:10;" points="
		3176.363,1622 3150.563,1622 3124.663,1622 3072.863,1622 3072.863,1699.6 3072.863,1723.4 2968.663,1823.3 2812.663,1972.8 
		2865.363,2023.6 2918.063,2074.4 3073.063,1925.8 3228.163,1777.3 3228.163,1699.6 3228.163,1622 	"/>
	
		<polygon style="fill:none;stroke:#000000;stroke-width:2.8346;stroke-linecap:round;stroke-linejoin:round;stroke-miterlimit:10;" points="
		2606.063,2269.9 2606.063,2321.7 2606.063,2373.4 2554.263,2373.4 2502.563,2373.4 2319.963,2198.5 2137.463,2023.6 
		2190.363,1972.9 2243.263,1922.3 2424.663,2096.1 	"/>
	
		<polygon style="fill:none;stroke:#000000;stroke-width:2.8346;stroke-linecap:round;stroke-linejoin:round;stroke-miterlimit:10;" points="
		2139.963,1823.3 2035.662,1723.4 2035.662,1699.6 2035.662,1622 1983.863,1622 1958.062,1622 1932.162,1622 1880.363,1622 
		1880.363,1699.6 1880.363,1777.3 2035.463,1925.8 2190.463,2074.4 2243.263,2023.6 2295.963,1972.8 	"/>
	
		<polygon style="fill:none;stroke:#000000;stroke-width:2.8346;stroke-linecap:round;stroke-linejoin:round;stroke-miterlimit:10;" points="
		2606.063,2373.4 2606.063,2321.7 2606.063,2269.9 2554.263,2269.9 2502.563,2269.9 2319.963,2444.9 2137.463,2619.8 
		2190.363,2670.5 2243.263,2721.1 2424.663,2547.3 	"/>
	
		<polygon style="fill:none;stroke:#2E3192;stroke-width:5.6693;stroke-linecap:round;stroke-linejoin:round;stroke-miterlimit:10;" points="
		1880.363,2866.1 1880.363,2917.9 1880.363,2969.6 1932.162,2969.6 1983.863,2969.6 2139.963,2820.1 2295.963,2670.6 
		2243.263,2619.8 2190.463,2569 2035.463,2717.5 	"/>
	
		<polygon style="fill:none;stroke:#000000;stroke-width:14.1732;stroke-linecap:round;stroke-linejoin:round;stroke-miterlimit:10;" points="
		2502.563,2373.4 2502.563,2321.7 2502.563,2269.9 2554.263,2269.9 2606.063,2269.9 2788.563,2444.9 2971.063,2619.8 
		2918.263,2670.5 2865.363,2721.1 2683.963,2547.3 	"/>
	
		<polygon style="fill:none;stroke:#2E3192;stroke-width:14.1732;stroke-linecap:round;stroke-linejoin:round;stroke-miterlimit:10;" points="
		3228.163,2866.1 3228.163,2917.9 3228.163,2969.6 3176.363,2969.6 3124.663,2969.6 2968.663,2820.1 2812.663,2670.6 
		2865.363,2619.8 2918.063,2569 3073.063,2717.5 	"/>
	
		<polygon style="fill:none;stroke:#00AEEF;stroke-width:14.1732;stroke-linecap:round;stroke-linejoin:round;stroke-miterlimit:10;" points="
		3228.163,2373.4 3176.363,2373.4 3124.663,2373.4 3124.663,2323.5 3124.663,2273.6 2968.663,2123.2 2812.663,1972.8 
		2838.963,1947.5 2865.363,1922.3 3046.763,2096.1 3228.163,2269.9 3228.163,2321.7 	"/>
	
		<polygon style="fill:none;stroke:#000000;stroke-width:14.1732;stroke-linecap:round;stroke-linejoin:round;stroke-miterlimit:10;" points="
		2788.563,1848.7 2657.763,1723.4 2657.763,1699.6 2657.763,1622 2606.063,1622 2554.263,1622 2502.563,1622 2450.763,1622 
		2450.763,1699.6 2450.763,1777.3 2502.563,1777.3 2554.263,1777.3 2556.163,1777.3 2609.863,1777.3 2763.963,1925.8 
		2918.063,2074.4 2944.563,2049 2971.063,2023.6 	"/>
	
		<polygon style="fill:none;stroke:#000000;stroke-width:2.8346;stroke-linecap:round;stroke-linejoin:round;stroke-miterlimit:10;" points="
		2606.063,1622 2554.263,1622 2502.563,1622 2450.763,1622 2450.763,1699.6 2450.763,1723.4 2319.963,1848.7 2137.463,2023.6 
		2163.963,2049 2190.463,2074.4 2344.563,1925.8 2498.663,1777.3 2552.363,1777.3 2554.263,1777.3 2606.063,1777.3 2657.763,1777.3 
		2657.763,1699.6 2657.763,1622 	"/>
	
		<polygon style="fill:none;stroke:#00AEEF;stroke-width:5.6693;stroke-linecap:round;stroke-linejoin:round;stroke-miterlimit:10;" points="
		1880.363,2373.4 1932.162,2373.4 1983.863,2373.4 1983.863,2323.5 1983.863,2273.6 2139.963,2123.2 2295.963,1972.8 
		2269.563,1947.5 2243.263,1922.3 2061.763,2096.1 1880.363,2269.9 1880.363,2321.7 	"/>
	
		<polygon style="fill:none;stroke:#00AEEF;stroke-width:5.6693;stroke-linecap:round;stroke-linejoin:round;stroke-miterlimit:10;" points="
		1880.363,2269.9 1932.162,2269.9 1983.863,2269.9 1983.863,2319.8 1983.863,2369.7 2139.963,2520.2 2295.963,2670.6 
		2269.563,2695.9 2243.263,2721.1 2061.763,2547.3 1880.363,2373.4 1880.363,2321.7 	"/>
	
		<polygon style="fill:none;stroke:#000000;stroke-width:2.8346;stroke-linecap:round;stroke-linejoin:round;stroke-miterlimit:10;" points="
		2137.463,2619.8 2163.963,2594.4 2190.463,2569 2344.563,2717.5 2498.663,2866.1 2552.363,2866.1 2606.063,2866.1 2606.063,2917.9 
		2606.063,2969.6 2554.263,2969.6 2502.563,2969.6 2319.963,2794.7 	"/>
	
		<polygon style="fill:none;stroke:#000000;stroke-width:14.1732;stroke-linecap:round;stroke-linejoin:round;stroke-miterlimit:10;" points="
		2971.063,2619.8 2944.563,2594.4 2918.063,2569 2763.963,2717.5 2609.863,2866.1 2556.163,2866.1 2502.563,2866.1 2502.563,2917.9 
		2502.563,2969.6 2554.263,2969.6 2606.063,2969.6 2788.563,2794.7 	"/>
	
		<polygon style="fill:none;stroke:#00AEEF;stroke-width:14.1732;stroke-linecap:round;stroke-linejoin:round;stroke-miterlimit:10;" points="
		3228.163,2269.9 3176.363,2269.9 3124.663,2269.9 3124.663,2319.8 3124.663,2369.7 2968.663,2520.2 2812.663,2670.6 
		2838.963,2695.9 2865.363,2721.1 3046.763,2547.3 3228.163,2373.4 3228.163,2321.7 	"/>
</g>
<g>
	
		<rect x="2603.5" y="1456.6" style="fill:#3F55A5;stroke:#FFFFFF;stroke-width:2.8346;stroke-linecap:round;stroke-linejoin:round;stroke-miterlimit:10;" width="518.7" height="51.7"/>
	
		<rect x="1981.3" y="1456.6" style="fill:#B7268F;stroke:#FFFFFF;stroke-width:2.8346;stroke-linecap:round;stroke-linejoin:round;stroke-miterlimit:10;" width="518.7" height="51.7"/>
	
		<polygon style="fill:none;stroke:#00A651;stroke-width:8.5039;stroke-linecap:round;stroke-linejoin:round;stroke-miterlimit:10;" points="
		3225.6,1353.1 3225.6,1379 3225.6,1404.8 3252.026,1404.8 3277.927,1404.8 3277.927,1379 3277.927,1353.1 3303.726,1353.1 
		3329.626,1353.1 3329.626,1404.8 3329.626,1456.6 3277.927,1456.6 3225.6,1456.6 3173.9,1456.6 3122.1,1456.6 3122.1,1404.8 
		3122.1,1353.1 3173.9,1353.1 	"/>
	
		<polygon style="fill:none;stroke:#FFF200;stroke-width:8.5039;stroke-linecap:round;stroke-linejoin:round;stroke-miterlimit:10;" points="
		3225.6,731 3225.6,756.8 3225.6,782.7 3252.026,782.7 3277.927,782.7 3277.927,756.8 3277.927,731 3303.726,731 3329.626,731 
		3329.626,782.7 3329.626,834.5 3277.927,834.5 3225.6,834.5 3173.9,834.5 3122.1,834.5 3122.1,782.7 3122.1,731 3173.9,731 	"/>
	
		<polygon style="fill:none;stroke:#00A651;stroke-width:17.0079;stroke-linecap:round;stroke-linejoin:round;stroke-miterlimit:10;" points="
		1877.9,1353.1 1877.9,1379 1877.9,1404.8 1850.3,1404.8 1825.553,1404.8 1825.553,1379 1825.553,1353.1 1799.753,1353.1 
		1773.853,1353.1 1773.853,1404.8 1773.853,1456.6 1825.553,1456.6 1877.9,1456.6 1929.6,1456.6 1981.4,1456.6 1981.4,1404.8 
		1981.4,1353.1 1929.6,1353.1 	"/>
	
		<polygon style="fill:none;stroke:#FFF200;stroke-width:17.0079;stroke-linecap:round;stroke-linejoin:round;stroke-miterlimit:10;" points="
		1877.9,731 1877.9,756.8 1877.9,782.7 1850.3,782.7 1825.553,782.7 1825.553,756.8 1825.553,731 1799.753,731 1773.853,731 
		1773.853,782.7 1773.853,834.5 1825.553,834.5 1877.9,834.5 1929.6,834.5 1981.4,834.5 1981.4,782.7 1981.4,731 1929.6,731 	"/>
	
		<polygon style="opacity:0.72;fill:#ED1C24;stroke:#ED1C24;stroke-width:2.8346;stroke-linecap:round;stroke-linejoin:round;stroke-miterlimit:10;enable-background:new    ;" points="
		2500,1533 2474.1,1533 2448.2,1533 2448.2,1494.8 2448.2,1456.6 2474.1,1456.6 2500,1456.6 2500,1494.8 	"/>
	
		<polygon style="opacity:0.72;fill:#ED1C24;stroke:#ED1C24;stroke-width:2.8346;stroke-linecap:round;stroke-linejoin:round;stroke-miterlimit:10;enable-background:new    ;" points="
		2655.2,1533 2629.4,1533 2603.5,1533 2603.5,1494.8 2603.5,1456.6 2629.4,1456.6 2655.2,1456.6 2655.2,1494.8 	"/>
	
		<polygon style="opacity:0.7;fill:#ED1C24;stroke:#ED1C24;stroke-width:2.8346;stroke-linecap:round;stroke-linejoin:round;stroke-miterlimit:10;enable-background:new    ;" points="
		3122.1,1533 3096.2,1533 3070.4,1533 3070.4,1494.8 3070.4,1456.6 3096.2,1456.6 3122.1,1456.6 3122.1,1494.8 	"/>
	
		<polygon style="opacity:0.74;fill:#ED1C24;stroke:#ED1C24;stroke-width:14.1732;stroke-linecap:round;stroke-linejoin:round;stroke-miterlimit:10;enable-background:new    ;" points="
		1981.4,1533 2007.2,1533 2033.1,1533 2033.1,1494.8 2033.1,1456.6 2007.2,1456.6 1981.4,1456.6 1981.4,1494.8 	"/>
	
		<polygon style="fill:none;stroke:#FFF200;stroke-width:5.6693;stroke-linecap:round;stroke-linejoin:round;stroke-miterlimit:10;" points="
		2500,834.5 2862.8,834.5 3225.6,834.5 3225.6,782.7 3225.6,731 2862.8,731 2500,731 2500,782.7 	"/>
	
		<polygon style="fill:none;stroke:#000000;stroke-width:2.8346;stroke-linecap:round;stroke-linejoin:round;stroke-miterlimit:10;" points="
		2500,108.8 2500,471.7 2500,834.5 2551.7,834.5 2603.5,834.5 2603.5,471.7 2603.5,108.8 2551.7,108.8 	"/>
	
		<polygon style="fill:none;stroke:#FFF200;stroke-width:14.1732;stroke-linecap:round;stroke-linejoin:round;stroke-miterlimit:10;" points="
		2603.5,834.5 2240.7,834.5 1877.9,834.5 1877.9,782.7 1877.9,731 2240.7,731 2603.5,731 2603.5,782.7 	"/>
	
		<polygon style="opacity:0.72;fill:none;stroke:#000000;stroke-width:2.8346;stroke-linecap:round;stroke-linejoin:round;stroke-miterlimit:10;enable-background:new    ;" points="
		2603.5,731 2603.5,1093.8 2603.5,1456.6 2603.5,1482.5 2603.5,1508.3 2551.7,1508.3 2500,1508.3 2500,1482.5 2500,1456.6 
		2500,1093.8 2500,731 2551.7,731 	"/>
	
		<polygon style="fill:none;stroke:#FFF200;stroke-width:5.6693;stroke-linecap:round;stroke-linejoin:round;stroke-miterlimit:10;" points="
		3122.1,108.8 3122.1,471.7 3122.1,834.5 3173.9,834.5 3225.6,834.5 3225.6,471.7 3225.6,108.8 3173.9,108.8 	"/>
	
		<polygon style="fill:none;stroke:#000000;stroke-width:2.8346;stroke-linecap:round;stroke-linejoin:round;stroke-miterlimit:10;" points="
		2500,212.3 2862.8,212.3 3225.6,212.3 3225.6,160.6 3225.6,108.8 2862.8,108.8 2500,108.8 2500,160.6 	"/>
	
		<polygon style="fill:none;stroke:#000000;stroke-width:14.1732;stroke-linecap:round;stroke-linejoin:round;stroke-miterlimit:10;" points="
		2603.5,212.3 2240.7,212.3 1877.9,212.3 1877.9,160.6 1877.9,108.8 2240.7,108.8 2603.5,108.8 2603.5,160.6 	"/>
	
		<polygon style="fill:none;stroke:#FFF200;stroke-width:14.1732;stroke-linecap:round;stroke-linejoin:round;stroke-miterlimit:10;" points="
		1981.4,108.8 1981.4,471.7 1981.4,834.5 1929.6,834.5 1877.9,834.5 1877.9,471.7 1877.9,108.8 1929.6,108.8 	"/>
	
		<polygon style="opacity:0.74;fill:#00A651;stroke:#FFF200;stroke-width:14.1732;stroke-linecap:round;stroke-linejoin:round;stroke-miterlimit:10;enable-background:new    ;" points="
		1877.9,731 1877.9,1093.8 1877.9,1456.6 1877.9,1482.5 1877.9,1508.3 1929.6,1508.3 1981.4,1508.3 1981.4,1482.5 1981.4,1456.6 
		1981.4,1093.8 1981.4,731 1929.6,731 	"/>
	
		<polygon style="opacity:0.73;fill:none;stroke:#00A651;stroke-width:14.1732;stroke-linecap:round;stroke-linejoin:round;stroke-miterlimit:10;enable-background:new    ;" points="
		1877.9,1353.1 1877.9,1404.8 1877.9,1456.6 1877.9,1482.5 1877.9,1508.3 1929.6,1508.3 1981.4,1508.3 1981.4,1508.3 1981.4,1508.3 
		2240.7,1508.3 2500,1508.3 2500,1508.3 2500,1508.3 2551.7,1508.3 2603.5,1508.3 2603.5,1482.5 2603.5,1456.6 2603.5,1404.8 
		2603.5,1353.1 2240.7,1353.1 	"/>
	
		<polygon style="opacity:0.71;fill:none;stroke:#00A651;stroke-width:5.6693;stroke-linecap:round;stroke-linejoin:round;stroke-miterlimit:10;enable-background:new    ;" points="
		3225.6,1353.1 3225.6,1404.8 3225.6,1456.6 3225.6,1482.5 3225.6,1508.3 3173.9,1508.3 3122.1,1508.3 3122.2,1508.3 3122.2,1508.3 
		2862.9,1508.3 2603.6,1508.3 2603.6,1508.3 2603.5,1508.3 2551.7,1508.3 2500,1508.3 2500,1482.5 2500,1456.6 2500,1404.8 
		2500,1353.1 2862.8,1353.1 	"/>
	
		<polygon style="opacity:0.7;fill:#00A651;stroke:#FFF200;stroke-width:5.6693;stroke-linecap:round;stroke-linejoin:round;stroke-miterlimit:10;enable-background:new    ;" points="
		3225.6,731 3225.6,1093.8 3225.6,1456.6 3225.6,1482.5 3225.6,1508.3 3173.9,1508.3 3122.1,1508.3 3122.1,1482.5 3122.1,1456.6 
		3122.1,1093.8 3122.1,731 3173.9,731 	"/>
	
		<polygon style="fill:none;stroke:#000000;stroke-width:2.8346;stroke-linecap:round;stroke-linejoin:round;stroke-miterlimit:10;" points="
		2966.3,471.7 2914.6,419.9 2862.8,368.2 2681.4,549.6 2500,731 2500,782.7 2500,834.5 2551.7,834.5 2603.5,834.5 2784.9,653.1 	"/>
	
		<polygon style="fill:none;stroke:#000000;stroke-width:2.8346;stroke-linecap:round;stroke-linejoin:round;stroke-miterlimit:10;" points="
		3225.6,212.3 3225.6,160.6 3225.6,108.8 3173.9,108.8 3122.1,108.8 2966.6,264.4 2811.1,419.9 2862.8,471.7 2914.6,523.4 
		3070.1,367.9 	"/>
	
		<polygon style="fill:none;stroke:#000000;stroke-width:14.1732;stroke-linecap:round;stroke-linejoin:round;stroke-miterlimit:10;" points="
		2137.2,471.7 2188.9,419.9 2240.7,368.2 2422.1,549.6 2603.5,731 2603.5,782.7 2603.5,834.5 2551.7,834.5 2500,834.5 2318.6,653.1 
			"/>
	
		<polygon style="fill:none;stroke:#000000;stroke-width:14.1732;stroke-linecap:round;stroke-linejoin:round;stroke-miterlimit:10;" points="
		1877.9,212.3 1877.9,160.6 1877.9,108.8 1929.6,108.8 1981.4,108.8 2136.9,264.4 2292.4,419.9 2240.7,471.7 2188.9,523.4 
		2033.4,367.9 	"/>
	
		<polygon style="fill:none;stroke:#000000;stroke-width:14.1732;stroke-linecap:round;stroke-linejoin:round;stroke-miterlimit:10;" points="
		2137.2,1093.8 2188.9,1145.5 2240.7,1197.3 2422.1,1015.9 2603.5,834.5 2603.5,782.7 2603.5,731 2551.7,731 2500,731 2318.6,912.4 
			"/>
	
		<polygon style="opacity:0.74;fill:none;stroke:#00A651;stroke-width:14.1732;stroke-linecap:round;stroke-linejoin:round;stroke-miterlimit:10;enable-background:new    ;" points="
		2189,1042.1 2240.7,1093.8 2292.5,1145.6 2136.9,1301.1 1981.3,1456.6 1981.3,1482.4 1981.3,1508.3 1929.5,1508.3 1877.8,1508.3 
		1877.8,1482.4 1877.8,1456.5 1877.8,1404.8 1877.8,1353 2033.4,1197.5 	"/>
	
		<polygon style="fill:none;stroke:#000000;stroke-width:2.8346;stroke-linecap:round;stroke-linejoin:round;stroke-miterlimit:10;" points="
		2966.3,1093.8 2914.6,1145.5 2862.8,1197.3 2681.4,1015.9 2500,834.5 2500,782.7 2500,731 2551.7,731 2603.5,731 2784.9,912.4 	"/>
	
		<polygon style="opacity:0.7;fill:none;stroke:#00A651;stroke-width:5.6693;stroke-linecap:round;stroke-linejoin:round;stroke-miterlimit:10;enable-background:new    ;" points="
		2914.5,1042.1 2862.7,1093.8 2811,1145.6 2966.6,1301.1 3122.2,1456.6 3122.2,1482.4 3122.2,1508.3 3173.9,1508.3 3225.7,1508.3 
		3225.7,1482.4 3225.7,1456.5 3225.7,1404.8 3225.6,1353 3070.1,1197.5 	"/>
	
		<polygon style="fill:none;stroke:#FFF200;stroke-width:5.6693;stroke-linecap:round;stroke-linejoin:round;stroke-miterlimit:10;" points="
		3225.6,731 3225.6,782.7 3225.6,834.5 3173.9,834.5 3122.1,834.5 3122.1,782.7 3122.1,731 2966.6,575.4 2811.1,419.9 2836.9,394 
		2862.8,368.2 3044.2,549.6 	"/>
	
		<polygon style="fill:none;stroke:#000000;stroke-width:2.8346;stroke-linecap:round;stroke-linejoin:round;stroke-miterlimit:10;" points="
		2966.3,471.7 2940.4,497.5 2914.6,523.4 2759,367.9 2603.5,212.3 2551.7,212.3 2500,212.3 2500,160.6 2500,108.8 2551.7,108.8 
		2603.5,108.8 2784.9,290.2 	"/>
	
		<polygon style="fill:none;stroke:#000000;stroke-width:14.1732;stroke-linecap:round;stroke-linejoin:round;stroke-miterlimit:10;" points="
		2137.2,471.7 2163.1,497.5 2188.9,523.4 2344.5,367.9 2500,212.3 2551.7,212.3 2603.5,212.3 2603.5,160.6 2603.5,108.8 
		2551.7,108.8 2500,108.8 2318.6,290.2 	"/>
	
		<polygon style="fill:none;stroke:#FFF200;stroke-width:14.1732;stroke-linecap:round;stroke-linejoin:round;stroke-miterlimit:10;" points="
		1877.9,731 1877.9,782.7 1877.9,834.5 1929.6,834.5 1981.4,834.5 1981.4,782.7 1981.4,731 2136.9,575.4 2292.4,419.9 2266.6,394 
		2240.7,368.2 2059.3,549.6 	"/>
	
		<polygon style="fill:none;stroke:#FFF200;stroke-width:14.1732;stroke-linecap:round;stroke-linejoin:round;stroke-miterlimit:10;" points="
		1877.9,834.5 1877.9,782.7 1877.9,731 1929.6,731 1981.4,731 1981.4,782.7 1981.4,834.5 2136.9,990 2292.4,1145.5 2266.6,1171.4 
		2240.7,1197.3 2059.3,1015.9 	"/>
	
		<polygon style="opacity:0.72;fill:none;stroke:#000000;stroke-width:14.1732;stroke-linecap:round;stroke-linejoin:round;stroke-miterlimit:10;enable-background:new    ;" points="
		2500,1353.1 2344.5,1197.6 2188.9,1042 2163.1,1067.9 2137.2,1093.8 2318.6,1275.2 2500,1456.6 2500,1482.5 2500,1508.3 
		2551.7,1508.3 2603.5,1508.3 2603.5,1482.5 2603.5,1456.6 2603.5,1404.8 2603.5,1353.1 2551.7,1353.1 	"/>
	
		<polygon style="opacity:0.72;fill:none;stroke:#000000;stroke-width:2.8346;stroke-linecap:round;stroke-linejoin:round;stroke-miterlimit:10;enable-background:new    ;" points="
		2603.5,1353.1 2759,1197.6 2914.6,1042 2940.4,1067.9 2966.3,1093.8 2784.9,1275.2 2603.5,1456.6 2603.5,1482.5 2603.5,1508.3 
		2551.7,1508.3 2500,1508.3 2500,1482.5 2500,1456.6 2500,1404.8 2500,1353.1 2551.7,1353.1 	"/>
	
		<polygon style="fill:none;stroke:#FFF200;stroke-width:5.6693;stroke-linecap:round;stroke-linejoin:round;stroke-miterlimit:10;" points="
		3225.6,834.5 3225.6,782.7 3225.6,731 3173.9,731 3122.1,731 3122.1,782.7 3122.1,834.5 2966.6,990 2811.1,1145.5 2836.9,1171.4 
		2862.8,1197.3 3044.2,1015.9 	"/>
</g>
<g>
	
		<polygon style="fill:none;stroke:#D7DF23;stroke-width:8.5039;stroke-linecap:round;stroke-linejoin:round;stroke-miterlimit:10;" points="
		200.191,3806.188 147.844,3806.188 96.144,3806.188 96.144,3728.588 96.144,3650.988 122.044,3650.988 147.844,3650.988 
		147.844,3689.788 147.844,3728.588 173.744,3728.588 200.191,3728.588 200.191,3715.588 200.191,3702.588 251.891,3702.588 
		303.691,3702.588 303.691,3754.387 303.691,3806.088 251.891,3806.088 200.191,3806.088 	"/>
	
		<polygon style="fill:none;stroke:#754C29;stroke-width:8.5039;stroke-linecap:round;stroke-linejoin:round;stroke-miterlimit:10;" points="
		200.191,4429.387 147.844,4429.387 96.144,4429.387 96.144,4351.688 96.144,4274.087 122.044,4274.087 147.844,4274.087 
		147.844,4312.887 147.844,4351.688 173.744,4351.688 200.191,4351.688 200.191,4312.887 200.191,4274.087 251.891,4274.087 
		303.691,4274.087 303.691,4351.688 303.691,4429.287 251.891,4429.287 200.191,4429.287 200.191,4429.287 	"/>
	
		<polygon style="fill:none;stroke:#662D91;stroke-width:8.5039;stroke-linecap:round;stroke-linejoin:round;stroke-miterlimit:10;" points="
		200.191,5052.387 147.844,5052.387 96.144,5052.387 96.144,4974.688 96.144,4897.087 122.044,4897.087 147.844,4897.087 
		147.844,4935.887 147.844,4974.688 173.744,4974.688 200.191,4974.688 200.191,4935.887 200.191,4897.087 251.891,4897.087 
		303.691,4897.087 303.691,4974.688 303.691,5052.287 251.891,5052.287 200.191,5052.287 200.191,5052.287 	"/>
	
		<polygon style="fill:none;stroke:#D7DF23;stroke-width:17.0079;stroke-linecap:round;stroke-linejoin:round;stroke-miterlimit:10;" points="
		1547.891,3806.188 1600.217,3806.188 1651.917,3806.188 1651.917,3728.588 1651.917,3650.988 1626.117,3650.988 1600.217,3650.988 
		1600.217,3689.788 1600.217,3728.588 1573.791,3728.588 1547.891,3728.588 1547.891,3715.588 1547.891,3702.588 1496.191,3702.588 
		1444.391,3702.588 1444.391,3754.387 1444.391,3806.088 1496.191,3806.088 1547.891,3806.088 	"/>
	
		<polygon style="fill:none;stroke:#754C29;stroke-width:17.0079;stroke-linecap:round;stroke-linejoin:round;stroke-miterlimit:10;" points="
		1547.891,4429.387 1600.217,4429.387 1651.917,4429.387 1651.917,4351.688 1651.917,4274.087 1626.117,4274.087 1600.217,4274.087 
		1600.217,4312.887 1600.217,4351.688 1573.791,4351.688 1547.891,4351.688 1547.891,4312.887 1547.891,4274.087 1496.191,4274.087 
		1444.391,4274.087 1444.391,4351.688 1444.391,4429.287 1496.191,4429.287 1547.891,4429.287 1547.891,4429.287 	"/>
	
		<polygon style="fill:none;stroke:#662D91;stroke-width:17.0079;stroke-linecap:round;stroke-linejoin:round;stroke-miterlimit:10;" points="
		1547.891,5052.387 1600.217,5052.387 1651.917,5052.387 1651.917,4974.688 1651.917,4897.087 1626.117,4897.087 1600.217,4897.087 
		1600.217,4935.887 1600.217,4974.688 1573.791,4974.688 1547.891,4974.688 1547.891,4935.887 1547.891,4897.087 1496.191,4897.087 
		1444.391,4897.087 1444.391,4974.688 1444.391,5052.287 1496.191,5052.287 1547.891,5052.287 1547.891,5052.287 	"/>
	
		<polygon style="fill:none;stroke:#754C29;stroke-width:14.1732;stroke-linecap:round;stroke-linejoin:round;stroke-miterlimit:10;" points="
		1547.891,4325.688 1185.091,4325.688 822.291,4325.688 822.291,4377.487 822.291,4429.188 1185.091,4429.188 1547.791,4429.188 
		1547.891,4429.287 1547.891,4429.387 1547.891,4377.587 	"/>
	
		<polygon style="fill:none;stroke:#000000;stroke-width:2.8346;stroke-linecap:round;stroke-linejoin:round;stroke-miterlimit:10;" points="
		822.291,3702.588 874.091,3702.588 925.791,3702.588 925.791,4065.887 925.791,4429.188 874.091,4429.188 822.491,4429.188 
		822.391,4429.287 822.291,4429.387 822.291,4065.988 	"/>
	
		<polygon style="fill:none;stroke:#754C29;stroke-width:5.6693;stroke-linecap:round;stroke-linejoin:round;stroke-miterlimit:10;" points="
		200.191,4325.688 562.991,4325.688 925.791,4325.688 925.791,4377.487 925.791,4429.188 563.091,4429.188 200.291,4429.188 
		200.291,4429.287 200.191,4429.387 200.191,4377.587 	"/>
	
		<polygon style="fill:none;stroke:#000000;stroke-width:2.8346;stroke-linecap:round;stroke-linejoin:round;stroke-miterlimit:10;" points="
		822.291,4325.688 874.091,4325.688 925.791,4325.688 925.791,4689.087 925.791,5052.387 874.091,5052.387 822.291,5052.387 
		822.291,4689.087 	"/>
	
		<polygon style="opacity:0.5;fill:#D7DF23;stroke:#754C29;stroke-width:14.1732;stroke-linecap:round;stroke-linejoin:round;stroke-miterlimit:10;enable-background:new    ;" points="
		1547.891,3702.588 1496.191,3702.588 1444.391,3702.588 1444.391,4065.887 1444.391,4429.188 1496.091,4429.188 1547.791,4429.188 
		1547.891,4429.287 1547.891,4429.387 1547.891,4065.988 	"/>
	
		<polygon style="fill:none;stroke:#D7DF23;stroke-width:14.1732;stroke-linecap:round;stroke-linejoin:round;stroke-miterlimit:10;" points="
		1547.891,3702.588 1185.091,3702.588 822.291,3702.588 822.291,3754.288 822.291,3806.088 1185.091,3806.088 1547.791,3806.088 
		1547.891,3806.188 1547.891,3806.188 1547.891,3754.387 	"/>
	
		<polygon style="fill:none;stroke:#D7DF23;stroke-width:5.6693;stroke-linecap:round;stroke-linejoin:round;stroke-miterlimit:10;" points="
		200.191,3702.588 562.991,3702.588 925.791,3702.588 925.791,3754.288 925.791,3806.088 563.091,3806.088 200.291,3806.088 
		200.291,3806.188 200.191,3806.188 200.191,3754.387 	"/>
	
		<polygon style="opacity:0.5;fill:#D7DF23;stroke:#754C29;stroke-width:5.6693;stroke-linecap:round;stroke-linejoin:round;stroke-miterlimit:10;enable-background:new    ;" points="
		200.191,3702.588 251.891,3702.588 303.691,3702.588 303.691,4065.887 303.691,4429.188 251.991,4429.188 200.291,4429.188 
		200.291,4429.287 200.191,4429.387 200.191,4065.988 	"/>
	
		<polygon style="opacity:0.5;fill:#662D91;stroke:#754C29;stroke-width:5.6693;stroke-linecap:round;stroke-linejoin:round;stroke-miterlimit:10;enable-background:new    ;" points="
		200.191,4325.688 251.891,4325.688 303.691,4325.688 303.691,4689.087 303.691,5052.387 251.891,5052.387 200.191,5052.387 
		200.191,4689.087 	"/>
	
		<polygon style="fill:none;stroke:#662D91;stroke-width:5.6693;stroke-linecap:round;stroke-linejoin:round;stroke-miterlimit:10;" points="
		200.191,4948.688 562.991,4948.688 925.791,4948.688 925.791,5000.487 925.791,5052.188 563.091,5052.188 200.291,5052.188 
		200.291,5052.287 200.191,5052.387 200.191,5000.487 	"/>
	
		<polygon style="fill:none;stroke:#662D91;stroke-width:14.1732;stroke-linecap:round;stroke-linejoin:round;stroke-miterlimit:10;" points="
		1547.891,4948.688 1185.091,4948.688 822.291,4948.688 822.291,5000.487 822.291,5052.188 1185.091,5052.188 1547.791,5052.188 
		1547.891,5052.287 1547.891,5052.387 1547.891,5000.487 	"/>
	
		<polygon style="opacity:0.5;fill:#662D91;stroke:#754C29;stroke-width:14.1732;stroke-linecap:round;stroke-linejoin:round;stroke-miterlimit:10;enable-background:new    ;" points="
		1547.891,4325.688 1496.191,4325.688 1444.391,4325.688 1444.391,4689.087 1444.391,5052.387 1496.191,5052.387 1547.891,5052.387 
		1547.891,4689.087 	"/>
	
		<polygon style="fill:none;stroke:#000000;stroke-width:14.1732;stroke-linecap:round;stroke-linejoin:round;stroke-miterlimit:10;" points="
		925.791,4429.287 1107.191,4247.587 1288.491,4065.988 1236.791,4014.188 1185.091,3962.387 1003.691,4144.087 822.291,4325.787 
		822.291,4377.587 822.291,4429.287 874.091,4429.287 	"/>
	
		<polygon style="fill:none;stroke:#D7DF23;stroke-width:14.1732;stroke-linecap:round;stroke-linejoin:round;stroke-miterlimit:10;" points="
		1547.891,3702.588 1496.191,3702.588 1444.391,3702.588 1288.891,3858.387 1133.391,4014.088 1185.091,4065.887 1236.791,4117.688 
		1392.391,3961.887 1547.891,3806.088 1547.891,3754.288 	"/>
	
		<polygon style="fill:none;stroke:#000000;stroke-width:2.8346;stroke-linecap:round;stroke-linejoin:round;stroke-miterlimit:10;" points="
		822.291,4429.287 640.991,4247.587 459.591,4065.988 511.291,4014.188 562.991,3962.387 744.391,4144.087 925.791,4325.787 
		925.791,4377.587 925.791,4429.287 874.091,4429.287 	"/>
	
		<polygon style="fill:none;stroke:#D7DF23;stroke-width:5.6693;stroke-linecap:round;stroke-linejoin:round;stroke-miterlimit:10;" points="
		200.191,3702.588 251.891,3702.588 303.691,3702.588 459.191,3858.387 614.691,4014.088 562.991,4065.887 511.291,4117.688 
		355.691,3961.887 200.191,3806.088 200.191,3754.288 	"/>
	
		<polygon style="fill:none;stroke:#000000;stroke-width:2.8346;stroke-linecap:round;stroke-linejoin:round;stroke-miterlimit:10;" points="
		925.791,4325.688 925.791,4377.387 925.791,4429.188 744.391,4610.887 562.991,4792.587 511.291,4740.787 459.591,4688.987 
		640.991,4507.287 822.291,4325.688 874.091,4325.688 	"/>
	
		<polygon style="fill:none;stroke:#662D91;stroke-width:5.6693;stroke-linecap:round;stroke-linejoin:round;stroke-miterlimit:10;" points="
		303.691,5052.487 251.891,5052.487 200.191,5052.487 200.191,5000.787 200.191,4948.987 355.691,4793.188 511.291,4637.387 
		562.991,4689.188 614.691,4740.987 459.191,4896.688 	"/>
	
		<polygon style="fill:none;stroke:#000000;stroke-width:14.1732;stroke-linecap:round;stroke-linejoin:round;stroke-miterlimit:10;" points="
		822.291,4325.688 822.291,4377.387 822.291,4429.188 1003.691,4610.887 1185.091,4792.587 1236.791,4740.787 1288.491,4688.987 
		1107.191,4507.287 925.791,4325.688 874.091,4325.688 	"/>
	
		<polygon style="fill:none;stroke:#662D91;stroke-width:14.1732;stroke-linecap:round;stroke-linejoin:round;stroke-miterlimit:10;" points="
		1444.391,5052.487 1496.191,5052.487 1547.891,5052.487 1547.891,5000.787 1547.891,4948.987 1392.391,4793.188 1236.791,4637.387 
		1185.091,4689.188 1133.391,4740.987 1288.891,4896.688 	"/>
	
		<polygon style="fill:none;stroke:#754C29;stroke-width:14.1732;stroke-linecap:round;stroke-linejoin:round;stroke-miterlimit:10;" points="
		1547.891,4429.188 1496.291,4429.188 1444.591,4429.188 1444.491,4429.287 1444.391,4429.387 1444.391,4377.487 1444.391,4325.587 
		1288.891,4169.887 1133.391,4014.088 1159.291,3988.188 1185.091,3962.288 1366.491,4143.987 1547.891,4325.688 1547.891,4377.487 
			"/>
	
		<polygon style="fill:none;stroke:#000000;stroke-width:14.1732;stroke-linecap:round;stroke-linejoin:round;stroke-miterlimit:10;" points="
		1236.791,4117.688 1081.291,3961.887 925.691,3806.088 873.991,3806.088 822.291,3806.088 822.291,3754.288 822.291,3702.588 
		874.091,3702.588 925.791,3702.588 1107.191,3884.288 1288.491,4065.887 1262.691,4091.788 	"/>
	
		<polygon style="fill:none;stroke:#000000;stroke-width:2.8346;stroke-linecap:round;stroke-linejoin:round;stroke-miterlimit:10;" points="
		511.291,4117.688 666.891,3961.887 822.491,3806.088 874.091,3806.088 925.791,3806.088 925.791,3754.288 925.791,3702.588 
		874.091,3702.588 822.291,3702.588 640.991,3884.288 459.591,4065.887 485.391,4091.788 	"/>
	
		<polygon style="fill:none;stroke:#754C29;stroke-width:5.6693;stroke-linecap:round;stroke-linejoin:round;stroke-miterlimit:10;" points="
		200.191,4429.188 251.891,4429.188 303.491,4429.188 303.591,4429.287 303.691,4429.387 303.691,4377.487 303.691,4325.587 
		459.191,4169.887 614.691,4014.088 588.891,3988.188 562.991,3962.288 381.591,4143.987 200.191,4325.688 200.191,4377.487 	"/>
	
		<polygon style="fill:none;stroke:#754C29;stroke-width:5.6693;stroke-linecap:round;stroke-linejoin:round;stroke-miterlimit:10;" points="
		200.191,4325.688 251.891,4325.688 303.491,4325.688 303.591,4325.688 303.691,4325.587 303.691,4377.487 303.691,4429.387 
		459.191,4585.087 614.691,4740.787 588.891,4766.688 562.991,4792.587 381.591,4610.887 200.191,4429.188 200.191,4377.487 	"/>
	
		<polygon style="fill:none;stroke:#000000;stroke-width:2.8346;stroke-linecap:round;stroke-linejoin:round;stroke-miterlimit:10;" points="
		511.291,4637.387 666.891,4793.188 822.491,4948.987 874.091,4948.987 925.791,4948.987 925.791,5000.787 925.791,5052.487 
		874.091,5052.487 822.291,5052.487 640.991,4870.887 459.591,4689.188 485.391,4663.287 	"/>
	
		<polygon style="fill:none;stroke:#000000;stroke-width:14.1732;stroke-linecap:round;stroke-linejoin:round;stroke-miterlimit:10;" points="
		1236.791,4637.387 1081.291,4793.188 925.691,4948.987 873.991,4948.987 822.291,4948.987 822.291,5000.787 822.291,5052.487 
		874.091,5052.487 925.791,5052.487 1107.191,4870.887 1288.491,4689.188 1262.691,4663.287 	"/>
	
		<polygon style="fill:none;stroke:#754C29;stroke-width:14.1732;stroke-linecap:round;stroke-linejoin:round;stroke-miterlimit:10;" points="
		1547.891,4325.688 1496.291,4325.688 1444.591,4325.688 1444.491,4325.688 1444.391,4325.587 1444.391,4377.487 1444.391,4429.387 
		1288.891,4585.087 1133.391,4740.787 1159.291,4766.688 1185.091,4792.587 1366.491,4610.887 1547.891,4429.188 1547.891,4377.487 
			"/>
</g>
<g>
	
		<polygon style="fill:none;stroke:#EC008C;stroke-width:8.5039;stroke-linecap:round;stroke-linejoin:round;stroke-miterlimit:10;" points="
		1600.217,3379.887 1600.217,3418.688 1600.217,3457.488 1573.791,3457.488 1547.891,3457.488 1547.891,3418.688 1547.891,3379.887 
		1496.191,3379.887 1444.391,3379.887 1444.391,3457.887 1444.391,3535.887 1496.191,3535.887 1547.891,3535.887 1547.891,3535.488 
		1547.891,3535.188 1600.217,3535.188 1651.917,3535.188 1651.917,3457.488 1651.917,3379.887 1626.117,3379.887 	"/>
	
		<polygon style="fill:none;stroke:#F7941D;stroke-width:8.5039;stroke-linecap:round;stroke-linejoin:round;stroke-miterlimit:10;" points="
		1600.217,2811.088 1600.217,2849.887 1600.217,2888.688 1573.791,2888.688 1547.891,2888.688 1547.891,2849.887 1547.891,2811.088 
		1496.191,2811.088 1444.391,2811.088 1444.391,2888.988 1444.391,2966.988 1496.191,2966.988 1547.891,2966.988 1547.891,2966.688 
		1547.891,2966.288 1600.217,2966.288 1651.917,2966.288 1651.917,2888.688 1651.917,2811.088 1626.117,2811.088 	"/>
	
		<polygon style="fill:none;stroke:#EF4136;stroke-width:8.5039;stroke-linecap:round;stroke-linejoin:round;stroke-miterlimit:10;" points="
		1600.217,2242.188 1600.217,2280.988 1600.217,2319.788 1573.791,2319.788 1547.891,2319.788 1547.891,2307.188 1547.891,2294.588 
		1496.191,2294.588 1444.391,2294.588 1444.391,2346.387 1444.391,2398.088 1496.191,2398.088 1547.891,2398.088 1547.891,2397.788 
		1547.891,2397.387 1600.217,2397.387 1651.917,2397.387 1651.917,2319.788 1651.917,2242.188 1626.117,2242.188 	"/>
	
		<polygon style="fill:none;stroke:#EC008C;stroke-width:17.0079;stroke-linecap:round;stroke-linejoin:round;stroke-miterlimit:10;" points="
		147.844,3379.887 147.844,3418.688 147.844,3457.488 173.744,3457.488 200.191,3457.488 200.191,3418.688 200.191,3379.887 
		251.891,3379.887 303.691,3379.887 303.691,3457.887 303.691,3535.887 251.891,3535.887 200.191,3535.887 200.191,3535.488 
		200.191,3535.188 147.844,3535.188 96.144,3535.188 96.144,3457.488 96.144,3379.887 122.044,3379.887 	"/>
	
		<polygon style="fill:none;stroke:#F7941D;stroke-width:17.0079;stroke-linecap:round;stroke-linejoin:round;stroke-miterlimit:10;" points="
		147.844,2811.088 147.844,2849.887 147.844,2888.688 173.744,2888.688 200.191,2888.688 200.191,2849.887 200.191,2811.088 
		251.891,2811.088 303.691,2811.088 303.691,2888.988 303.691,2966.988 251.891,2966.988 200.191,2966.988 200.191,2966.688 
		200.191,2966.288 147.844,2966.288 96.144,2966.288 96.144,2888.688 96.144,2811.088 122.044,2811.088 	"/>
	
		<polygon style="fill:none;stroke:#EF4136;stroke-width:17.0079;stroke-linecap:round;stroke-linejoin:round;stroke-miterlimit:10;" points="
		147.844,2242.188 147.844,2280.988 147.844,2319.788 173.744,2319.788 200.191,2319.788 200.191,2307.188 200.191,2294.588 
		251.891,2294.588 303.691,2294.588 303.691,2346.387 303.691,2398.088 251.891,2398.088 200.191,2398.088 200.191,2397.788 
		200.191,2397.387 147.844,2397.387 96.144,2397.387 96.144,2319.788 96.144,2242.188 122.044,2242.188 	"/>
	
		<polygon style="fill:none;stroke:#F7941D;stroke-width:5.6693;stroke-linecap:round;stroke-linejoin:round;stroke-miterlimit:10;" points="
		1547.891,2863.488 1547.891,2915.288 1547.891,2966.988 1185.091,2966.988 822.291,2966.988 822.291,2915.288 822.291,2863.488 
		1185.091,2863.488 	"/>
	
		<polygon style="fill:none;stroke:#000000;stroke-width:2.8346;stroke-linecap:round;stroke-linejoin:round;stroke-miterlimit:10;" points="
		925.791,2966.988 874.091,2966.988 822.291,2966.988 822.291,2630.788 822.291,2294.588 874.091,2294.588 925.791,2294.588 
		925.791,2630.788 	"/>
	
		<polygon style="fill:none;stroke:#F7941D;stroke-width:14.1732;stroke-linecap:round;stroke-linejoin:round;stroke-miterlimit:10;" points="
		200.191,2863.488 200.191,2915.288 200.191,2966.988 562.991,2966.988 925.791,2966.988 925.791,2915.288 925.791,2863.488 
		562.991,2863.488 	"/>
	
		<polygon style="fill:none;stroke:#000000;stroke-width:2.8346;stroke-linecap:round;stroke-linejoin:round;stroke-miterlimit:10;" points="
		925.791,3535.887 874.091,3535.887 822.291,3535.887 822.291,3199.688 822.291,2863.488 874.091,2863.488 925.791,2863.488 
		925.791,3199.688 	"/>
	
		<polygon style="opacity:0.5;fill:#F7941D;stroke:#EF4136;stroke-width:5.6693;stroke-linecap:round;stroke-linejoin:round;stroke-miterlimit:10;enable-background:new    ;" points="
		1547.891,2966.988 1496.191,2966.988 1444.391,2966.988 1444.391,2630.788 1444.391,2294.588 1496.191,2294.588 1547.891,2294.588 
		1547.891,2630.788 	"/>
	
		<polygon style="fill:none;stroke:#EF4136;stroke-width:5.6693;stroke-linecap:round;stroke-linejoin:round;stroke-miterlimit:10;" points="
		1547.891,2294.588 1547.891,2346.387 1547.891,2398.088 1185.091,2398.088 822.291,2398.088 822.291,2346.387 822.291,2294.588 
		1185.091,2294.588 	"/>
	
		<polygon style="fill:none;stroke:#EF4136;stroke-width:14.1732;stroke-linecap:round;stroke-linejoin:round;stroke-miterlimit:10;" points="
		200.191,2294.588 200.191,2346.387 200.191,2398.088 562.991,2398.088 925.791,2398.088 925.791,2346.387 925.791,2294.588 
		562.991,2294.588 	"/>
	
		<polygon style="opacity:0.5;fill:#F7941D;stroke:#EF4136;stroke-width:14.1732;stroke-linecap:round;stroke-linejoin:round;stroke-miterlimit:10;enable-background:new    ;" points="
		200.191,2966.988 251.891,2966.988 303.691,2966.988 303.691,2630.788 303.691,2294.588 251.891,2294.588 200.191,2294.588 
		200.191,2630.788 	"/>
	
		<polygon style="opacity:0.5;fill:#F7941D;stroke:#EC008C;stroke-width:14.1732;stroke-linecap:round;stroke-linejoin:round;stroke-miterlimit:10;enable-background:new    ;" points="
		200.191,3535.887 251.891,3535.887 303.691,3535.887 303.691,3199.688 303.691,2863.488 251.891,2863.488 200.191,2863.488 
		200.191,3199.688 	"/>
	
		<polygon style="fill:none;stroke:#EC008C;stroke-width:14.1732;stroke-linecap:round;stroke-linejoin:round;stroke-miterlimit:10;" points="
		200.191,3432.387 200.191,3484.088 200.191,3535.887 562.991,3535.887 925.791,3535.887 925.791,3484.088 925.791,3432.387 
		562.991,3432.387 	"/>
	
		<polygon style="fill:none;stroke:#EC008C;stroke-width:5.6693;stroke-linecap:round;stroke-linejoin:round;stroke-miterlimit:10;" points="
		1547.891,3432.387 1547.891,3484.088 1547.891,3535.887 1185.091,3535.887 822.291,3535.887 822.291,3484.088 822.291,3432.387 
		1185.091,3432.387 	"/>
	
		<polygon style="opacity:0.5;fill:#F7941D;stroke:#EC008C;stroke-width:5.6693;stroke-linecap:round;stroke-linejoin:round;stroke-miterlimit:10;enable-background:new    ;" points="
		1547.891,3535.887 1496.191,3535.887 1444.391,3535.887 1444.391,3199.688 1444.391,2863.488 1496.191,2863.488 1547.891,2863.488 
		1547.891,3199.688 	"/>
	
		<polygon style="fill:none;stroke:#000000;stroke-width:2.8346;stroke-linecap:round;stroke-linejoin:round;stroke-miterlimit:10;" points="
		925.791,2966.988 874.091,2966.988 822.291,2966.988 822.291,2915.288 822.291,2863.488 1003.691,2697.588 1185.091,2531.788 
		1239.291,2581.288 1293.491,2630.788 1109.591,2798.887 	"/>
	
		<polygon style="fill:none;stroke:#EF4136;stroke-width:5.6693;stroke-linecap:round;stroke-linejoin:round;stroke-miterlimit:10;" points="
		1547.891,2294.588 1547.891,2346.387 1547.891,2398.088 1393.391,2539.387 1238.891,2680.688 1185.091,2630.788 1131.291,2580.988 
		1287.891,2437.788 1444.391,2294.588 1496.191,2294.588 	"/>
	
		<polygon style="fill:none;stroke:#000000;stroke-width:14.1732;stroke-linecap:round;stroke-linejoin:round;stroke-miterlimit:10;" points="
		822.291,2966.988 874.091,2966.988 925.791,2966.988 925.791,2915.288 925.791,2863.488 744.391,2697.588 562.991,2531.788 
		508.791,2581.288 454.691,2630.788 638.491,2798.887 	"/>
	
		<polygon style="fill:none;stroke:#EF4136;stroke-width:14.1732;stroke-linecap:round;stroke-linejoin:round;stroke-miterlimit:10;" points="
		200.191,2294.588 200.191,2346.387 200.191,2398.088 354.691,2539.387 509.191,2680.688 562.991,2630.788 616.791,2580.988 
		460.291,2437.788 303.691,2294.588 251.891,2294.588 	"/>
	
		<polygon style="fill:none;stroke:#000000;stroke-width:14.1732;stroke-linecap:round;stroke-linejoin:round;stroke-miterlimit:10;" points="
		822.291,2863.488 874.091,2863.488 925.791,2863.488 925.791,2915.288 925.791,2966.988 744.391,3132.887 562.991,3298.788 
		508.791,3249.188 454.691,3199.688 638.491,3031.588 	"/>
	
		<polygon style="fill:none;stroke:#EC008C;stroke-width:14.1732;stroke-linecap:round;stroke-linejoin:round;stroke-miterlimit:10;" points="
		200.191,3535.887 200.191,3484.088 200.191,3432.387 354.691,3291.088 509.191,3149.788 562.991,3199.688 616.791,3249.588 
		460.291,3392.688 303.691,3535.887 251.891,3535.887 	"/>
	
		<polygon style="fill:none;stroke:#000000;stroke-width:2.8346;stroke-linecap:round;stroke-linejoin:round;stroke-miterlimit:10;" points="
		925.791,2863.488 874.091,2863.488 822.291,2863.488 822.291,2915.288 822.291,2966.988 1003.691,3132.887 1185.091,3298.788 
		1239.291,3249.188 1293.491,3199.688 1109.591,3031.588 	"/>
	
		<polygon style="fill:none;stroke:#EC008C;stroke-width:5.6693;stroke-linecap:round;stroke-linejoin:round;stroke-miterlimit:10;" points="
		1547.891,3535.887 1547.891,3484.088 1547.891,3432.387 1393.391,3291.088 1238.891,3149.788 1185.091,3199.688 1131.291,3249.588 
		1287.891,3392.688 1444.391,3535.887 1496.191,3535.887 	"/>
	
		<polygon style="fill:none;stroke:#F7941D;stroke-width:5.6693;stroke-linecap:round;stroke-linejoin:round;stroke-miterlimit:10;" points="
		1444.391,2966.988 1496.191,2966.988 1547.891,2966.988 1547.891,2915.288 1547.891,2863.488 1366.491,2697.588 1185.091,2531.788 
		1158.191,2556.387 1131.291,2580.988 1287.891,2725.988 1444.391,2871.088 1444.391,2919.088 	"/>
	
		<polygon style="fill:none;stroke:#000000;stroke-width:2.8346;stroke-linecap:round;stroke-linejoin:round;stroke-miterlimit:10;" points="
		933.991,2398.088 1086.491,2539.387 1238.891,2680.688 1266.191,2655.788 1293.491,2630.788 1109.591,2462.688 925.791,2294.588 
		874.091,2294.588 822.291,2294.588 822.291,2346.387 822.291,2398.088 878.191,2398.088 	"/>
	
		<polygon style="fill:none;stroke:#000000;stroke-width:14.1732;stroke-linecap:round;stroke-linejoin:round;stroke-miterlimit:10;" points="
		814.091,2398.088 661.691,2539.387 509.191,2680.688 481.891,2655.788 454.691,2630.788 638.491,2462.688 822.291,2294.588 
		874.091,2294.588 925.791,2294.588 925.791,2346.387 925.791,2398.088 869.991,2398.088 	"/>
	
		<polygon style="fill:none;stroke:#F7941D;stroke-width:14.1732;stroke-linecap:round;stroke-linejoin:round;stroke-miterlimit:10;" points="
		303.691,2966.988 251.891,2966.988 200.191,2966.988 200.191,2915.288 200.191,2863.488 381.591,2697.588 562.991,2531.788 
		589.891,2556.387 616.791,2580.988 460.291,2725.988 303.691,2871.088 303.691,2919.088 	"/>
	
		<polygon style="fill:none;stroke:#F7941D;stroke-width:14.1732;stroke-linecap:round;stroke-linejoin:round;stroke-miterlimit:10;" points="
		303.691,2863.488 251.891,2863.488 200.191,2863.488 200.191,2915.288 200.191,2966.988 381.591,3132.887 562.991,3298.788 
		589.891,3274.188 616.791,3249.588 460.291,3104.488 303.691,2959.387 303.691,2911.488 	"/>
	
		<polygon style="fill:none;stroke:#000000;stroke-width:14.1732;stroke-linecap:round;stroke-linejoin:round;stroke-miterlimit:10;" points="
		814.091,3432.387 661.691,3291.088 509.191,3149.788 481.891,3174.788 454.691,3199.688 638.491,3367.788 822.291,3535.887 
		874.091,3535.887 925.791,3535.887 925.791,3484.088 925.791,3432.387 869.991,3432.387 	"/>
	
		<polygon style="fill:none;stroke:#000000;stroke-width:2.8346;stroke-linecap:round;stroke-linejoin:round;stroke-miterlimit:10;" points="
		933.991,3432.387 1086.491,3291.088 1238.891,3149.788 1266.191,3174.788 1293.491,3199.688 1109.591,3367.788 925.791,3535.887 
		874.091,3535.887 822.291,3535.887 822.291,3484.088 822.291,3432.387 878.191,3432.387 	"/>
	
		<polygon style="fill:none;stroke:#F7941D;stroke-width:5.6693;stroke-linecap:round;stroke-linejoin:round;stroke-miterlimit:10;" points="
		1444.391,2863.488 1496.191,2863.488 1547.891,2863.488 1547.891,2915.288 1547.891,2966.988 1366.491,3132.887 1185.091,3298.788 
		1158.191,3274.188 1131.291,3249.588 1287.891,3104.488 1444.391,2959.387 1444.391,2911.488 	"/>
</g>
<g>
	
		<polygon style="opacity:0.5;fill:#D7DF23;stroke:#2E3192;stroke-width:8.5039;stroke-miterlimit:10;enable-background:new    ;" points="
		1450.9,671.3 1332.5,681.3 1214.2,691.2 1220.6,768.6 1227,845.9 1343.5,836.1 1460,826.4 1460,800.4 1460,774.4 1380.2,781.4 
		1300.5,788.4 1298.2,762.6 1296,736.8 1375.7,729.8 1455.4,722.9 1453.2,697.1 	"/>
	
		<polygon style="opacity:0.5;fill:#EF4136;stroke:#00A651;stroke-width:8.5039;stroke-miterlimit:10;enable-background:new    ;" points="
		103.9,736.7 155.5,732.5 207,728.2 211.5,779.7 216.1,831.3 212.3,883.6 208.5,935.9 156.1,940.4 103.8,945 108.4,892.7 113,840.3 
		108.4,788.5 	"/>
	
		<polygon style="opacity:0.75;fill:#EF4136;stroke:#00A651;stroke-width:8.5039;stroke-miterlimit:10;enable-background:new    ;" points="
		132.6,784 159.6,781.7 186.7,779.3 191.5,833.4 196.2,887.6 169.1,890 142,892.3 137.3,838.2 	"/>
	
		<polygon style="opacity:0.75;fill:none;stroke:#00AEEF;stroke-width:8.5039;stroke-miterlimit:10;enable-background:new    ;" points="
		784.2,781.6 861.5,774.8 938.9,768.1 941.1,793.8 943.4,819.6 866,826.4 788.7,833.1 786.5,807.4 	"/>
	<polygon style="fill:none;stroke:#00AEEF;stroke-width:8.5039;stroke-miterlimit:10;" points="860.1,774.6 858.1,748.8 856.1,723 
		778.2,730 700.2,737 702.8,762.8 705.5,788.5 709.4,840.1 713.4,891.7 786.1,885.1 858.9,878.6 861.4,852.4 863.9,826.2 
		826.3,829.7 788.7,833.1 786.5,807.4 784.2,781.6 822.1,778.1 	"/>
	
		<polygon style="opacity:0.75;fill:#D7DF23;stroke:#2E3192;stroke-width:8.5039;stroke-miterlimit:10;enable-background:new    ;" points="
		1455.4,722.9 1457.7,748.6 1460,774.4 1380.2,781.4 1300.5,788.4 1298.2,762.6 1296,736.8 1375.7,729.8 	"/>
	
		<polygon style="opacity:0.75;fill:none;stroke:#FFF200;stroke-width:8.5039;stroke-miterlimit:10;enable-background:new    ;" points="
		78.5,164.3 105.5,161.9 132.6,159.5 137.4,213.7 142.1,267.8 115,270.2 87.9,272.6 83.2,218.4 	"/>
	<polygon style="fill:none;stroke:#FFF200;stroke-width:8.5039;stroke-miterlimit:10;" points="58.7,220.6 71.6,219.4 84.5,218.3 
		82.3,192.5 80,166.8 105.8,164.5 131.6,162.2 133.8,188 136.1,213.8 148.9,212.7 161.8,211.5 157.3,160 152.8,108.4 101.3,112.9 
		49.7,117.5 54.2,169 	"/>
	
		<polygon style="opacity:0.75;fill:none;stroke:#F7941D;stroke-width:8.5039;stroke-miterlimit:10;enable-background:new    ;" points="
		82.7,1482.8 108.5,1485.1 134.3,1487.4 127.5,1564.7 120.7,1642 95,1639.8 69.2,1637.5 75.9,1560.2 	"/>
	<polygon style="fill:none;stroke:#F7941D;stroke-width:8.5039;stroke-miterlimit:10;" points="62.8,1413.2 115,1410.9 
		167.1,1408.7 160.1,1488.5 153.2,1568.2 101.6,1563.7 50.1,1559.2 56.4,1486.2 	"/>
	
		<polygon style="opacity:0.75;fill:none;stroke:#EC008C;stroke-width:8.5039;stroke-miterlimit:10;enable-background:new    ;" points="
		33.1,2049.5 58.9,2051.8 84.7,2054.1 81.3,2092.7 77.9,2131.4 51.9,2131.4 26,2131.4 29.6,2090.5 	"/>
	<polygon style="fill:none;stroke:#EC008C;stroke-width:8.5039;stroke-miterlimit:10;" points="0,2131.4 7.1,2050.1 14.2,1968.9 
		65.8,1973.6 117.3,1978.3 110.5,2054.8 103.7,2131.4 51.9,2131.4 	"/>
	
		<polygon style="opacity:0.75;fill:none;stroke:#662D91;stroke-width:8.5039;stroke-miterlimit:10;enable-background:new    ;" points="
		1377.8,2053.8 1403.7,2053.8 1429.6,2053.8 1429.6,2092.6 1429.6,2131.4 1403.7,2131.4 1377.8,2131.4 1377.8,2092.6 	"/>
	<polygon style="fill:none;stroke:#662D91;stroke-width:8.5039;stroke-miterlimit:10;" points="1460,2131.4 1405.9,2131.4 
		1351.9,2131.4 1351.9,2053.7 1351.9,1975.9 1405.9,1976.1 1460,1976.3 1460,2053.9 	"/>
	
		<polygon style="opacity:0.75;fill:none;stroke:#754C29;stroke-width:8.5039;stroke-miterlimit:10;enable-background:new    ;" points="
		1377.8,1585.9 1377.8,1508.2 1377.8,1430.6 1403.7,1430.6 1429.6,1430.6 1429.6,1508.2 1429.6,1585.9 1403.7,1585.9 	"/>
	<polygon style="fill:none;stroke:#754C29;stroke-width:8.5039;stroke-miterlimit:10;" points="1351.9,1508.4 1405.9,1508.2 
		1460,1508 1460,1430.1 1460,1352.2 1405.9,1354.6 1351.9,1356.9 1351.9,1432.7 	"/>
	
		<polygon style="opacity:0.75;fill:#00A651;stroke:#EF4136;stroke-width:8.5039;stroke-miterlimit:10;enable-background:new    ;" points="
		132.4,915.4 158.1,917.7 183.9,920 177.1,997.3 170.4,1074.6 144.6,1072.4 118.8,1070.1 125.6,992.8 	"/>
	
		<polygon style="opacity:0.5;fill:#00A651;stroke:#EF4136;stroke-width:8.5039;stroke-miterlimit:10;enable-background:new    ;" points="
		113,840.3 164.5,835.8 216.1,831.3 209.5,915.6 202.9,999.9 151.3,995.5 99.8,991.2 106.4,915.8 	"/>
	
		<polygon style="opacity:0.75;fill:#2E3192;stroke:#D7DF23;stroke-width:8.5039;stroke-miterlimit:10;enable-background:new    ;" points="
		1377.8,807.6 1403.7,807.6 1429.6,807.6 1429.6,885.3 1429.6,963 1403.7,963 1377.8,963 1377.8,885.3 	"/>
	
		<polygon style="opacity:0.5;fill:#2E3192;stroke:#D7DF23;stroke-width:8.5039;stroke-miterlimit:10;enable-background:new    ;" points="
		1352.3,731.9 1403.9,727.4 1455.4,722.9 1457.7,748.6 1460,774.4 1460,829.7 1460,884.9 1405.9,884.7 1351.9,884.6 1351.9,808.2 
		1351.9,731.9 1352.1,731.9 	"/>
	<polygon style="fill:none;stroke:#754C29;stroke-width:2.8346;stroke-miterlimit:10;" points="684.5,1386.1 1072.2,1369.1 
		1460,1352.2 1460,1404 1460,1455.8 1068.6,1472.9 677.2,1490 676.8,1489.6 676.4,1489.3 680.5,1437.7 	"/>
	<polygon style="fill:none;stroke:#00AEEF;stroke-width:2.8346;stroke-miterlimit:10;" points="728.1,734.5 780.4,730 832.8,725.4 
		835,751.2 837.3,776.9 832.7,829.3 828.2,881.6 804.4,1183.6 780.5,1485.5 728.8,1487.7 677.2,1490 676.8,1489.6 676.4,1489.3 
		700,1190 723.7,890.8 728.2,838.4 732.6,786.1 730.4,760.3 	"/>
	<polygon style="fill:none;stroke:#F7941D;stroke-width:2.8346;stroke-miterlimit:10;" points="788.7,1381.5 784.6,1433.5 
		780.5,1485.5 417.1,1501.3 53.7,1517.2 58.3,1465.2 62.8,1413.2 425.8,1397.4 	"/>
	<polygon style="fill:none;stroke:#000000;stroke-width:2.8346;stroke-miterlimit:10;" points="684.5,1386.1 736.7,1383.8 
		788.9,1381.5 759.2,1756.4 729.5,2131.4 677.6,2131.4 625.6,2131.4 655.1,1758.7 	"/>
	
		<polygon style="opacity:0.5;fill:#D7DF23;stroke:#754C29;stroke-width:2.8346;stroke-miterlimit:10;enable-background:new    ;" points="
		1347.8,680.3 1399.4,675.8 1450.9,671.3 1455.4,722.9 1460,774.4 1460,1115.1 1460,1455.8 1405.9,1458.2 1351.9,1460.5 
		1351.9,1096.2 1351.9,731.9 1349.9,706.1 	"/>
	
		<polygon style="opacity:0.5;fill:#00AEEF;stroke:#2E3192;stroke-width:2.8346;stroke-miterlimit:10;enable-background:new    ;" points="
		728.1,734.5 1089.5,702.9 1450.9,671.3 1455.4,722.9 1460,774.4 1460,800.4 1460,826.4 1091.8,858.6 723.7,890.8 727.8,838.5 
		731.9,786.2 730,760.4 	"/>
	
		<polygon style="opacity:0.5;fill:#00AEEF;stroke:#EF4136;stroke-width:2.8346;stroke-miterlimit:10;enable-background:new    ;" points="
		108.4,788.8 470.6,757.1 832.8,725.4 835,751.2 837.3,776.9 832.7,829.3 828.2,881.6 466,913.3 103.8,945 108.4,892.7 113,840.3 
		110.7,814.5 	"/>
	
		<polygon style="opacity:0.5;fill:#F7941D;stroke:#EF4136;stroke-width:2.8346;stroke-miterlimit:10;enable-background:new    ;" points="
		108.4,788.8 160,784.3 211.6,779.7 213.8,805.5 216.1,831.3 187,1172 158,1512.7 105.9,1514.9 53.7,1517.2 83.3,1178.8 113,840.3 
		110.7,814.5 	"/>
	
		<polygon style="opacity:0.5;fill:#F7941D;stroke:#EC008C;stroke-width:2.8346;stroke-miterlimit:10;enable-background:new    ;" points="
		0,2131.4 31.4,1772.3 62.8,1413.2 114.9,1410.9 166.9,1408.7 135.5,1770 104.1,2131.4 91,2131.4 77.9,2131.4 39,2131.4 	"/>
	<polygon style="fill:none;stroke:#EC008C;stroke-width:2.8346;stroke-miterlimit:10;" points="737.6,2027.9 733.6,2079.6 
		729.5,2131.4 364.7,2131.4 0,2131.4 4.5,2079.6 9.1,2027.9 373.3,2027.9 	"/>
	<polygon style="fill:none;stroke:#662D91;stroke-width:2.8346;stroke-miterlimit:10;" points="633.8,2027.9 629.7,2079.6 
		625.6,2131.4 1042.8,2131.4 1460,2131.4 1460,2079.6 1460,2027.9 1046.9,2027.9 	"/>
	
		<polygon style="opacity:0.5;fill:#662D91;stroke:#754C29;stroke-width:2.8346;stroke-miterlimit:10;enable-background:new    ;" points="
		1351.9,1356.9 1405.9,1354.6 1460,1352.2 1460,1741.8 1460,2131.4 1405.9,2131.4 1351.9,2131.4 1351.9,1744.2 	"/>
	<polygon style="fill:none;stroke:#000000;stroke-width:2.8346;stroke-miterlimit:10;" points="1075.2,999 1130,1049.8 
		1184.7,1100.7 984.7,1293 784.8,1485.3 731,1487.6 677.2,1490 676.8,1489.6 676.4,1489.3 680.9,1432.2 685.4,1375.2 880.3,1187.1 	
		"/>
	
		<polygon style="opacity:0.5;fill:#D7DF23;stroke:#2E3192;stroke-width:2.8346;stroke-miterlimit:10;enable-background:new    ;" points="
		1351.9,731.9 1185.8,892.2 1019.7,1052.6 1074.5,1103.3 1129.2,1154 1294.6,995 1460,836 1460,805.2 1460,774.4 1455.4,722.9 
		1450.9,671.3 1399.4,675.8 1347.8,680.3 1349.9,706.1 	"/>
	<polygon style="fill:none;stroke:#000000;stroke-width:2.8346;stroke-miterlimit:10;" points="331.5,1161.4 389,1107.6 
		446.4,1053.7 617.5,1218.9 788.5,1384 784.5,1434.7 780.5,1485.5 728.8,1487.7 677.2,1490 504.3,1325.7 	"/>
	<polygon style="fill:none;stroke:#EF4136;stroke-width:2.8346;stroke-miterlimit:10;" points="216.1,831.3 164.5,835.8 113,840.3 
		108.4,892.7 103.8,945 242.2,1076.6 380.6,1208.1 437.6,1154.2 494.6,1100.3 355.4,965.8 	"/>
	<polygon style="fill:none;stroke:#000000;stroke-width:2.8346;stroke-miterlimit:10;" points="673.6,1386.6 729.8,1384.1 
		786.1,1381.6 787.3,1382.8 788.5,1384 784.3,1436.9 780.2,1489.7 581.8,1680.5 383.4,1871.3 333.2,1817.4 283,1763.5 478.3,1575 	
		"/>
	<polygon style="fill:none;stroke:#EC008C;stroke-width:2.8346;stroke-miterlimit:10;" points="338.4,1710.1 388.5,1764.1 
		438.7,1818.1 275.8,1974.8 113,2131.4 56.5,2131.4 0,2131.4 4.5,2079.6 9.1,2027.9 173.7,1869 	"/>
	<polygon style="fill:none;stroke:#000000;stroke-width:2.8346;stroke-miterlimit:10;" points="684.5,1386.1 735.3,1383.9 
		786.1,1381.6 969.9,1559.1 1153.8,1736.6 1098.9,1787.7 1044,1838.7 860.2,1664 676.4,1489.3 680.5,1437.7 	"/>
	<polygon style="fill:none;stroke:#662D91;stroke-width:2.8346;stroke-miterlimit:10;" points="991.1,1788.4 1045.9,1736.9 
		1100.7,1685.4 1280.3,1858.8 1460,2032.2 1460,2081.8 1460,2131.4 1405.9,2131.4 1351.9,2131.4 1171.5,1959.9 	"/>
	<polygon style="fill:none;stroke:#754C29;stroke-width:2.8346;stroke-miterlimit:10;" points="1019.7,1052.6 1047.5,1025.8 
		1075.2,999 1267.6,1177.8 1460,1356.6 1460,1406.2 1460,1455.8 1405.9,1458.2 1351.9,1460.5 1351.9,1410.4 1351.9,1360.2 
		1185.8,1206.4 	"/>
	<polygon style="fill:none;stroke:#00AEEF;stroke-width:2.8346;stroke-miterlimit:10;" points="728.1,734.5 780.4,730 832.8,725.4 
		834.6,751.2 836.5,777 1010.6,938.9 1184.7,1100.7 1157,1127.4 1129.2,1154 930.6,970.1 731.9,786.2 730,760.4 	"/>
	<polygon style="fill:none;stroke:#00AEEF;stroke-width:2.8346;stroke-miterlimit:10;" points="729.4,734.4 730.7,760.3 
		731.9,786.2 531.7,973.8 331.5,1161.4 356,1184.8 380.6,1208.1 608.9,992.5 837.3,776.9 835,751.2 832.8,725.4 781.1,729.9 	"/>
	<polygon style="fill:none;stroke:#F7941D;stroke-width:2.8346;stroke-miterlimit:10;" points="446.4,1053.7 470.5,1077 
		494.6,1100.3 330.8,1255.2 167,1410.1 162.5,1461.4 158,1512.7 105.9,1514.9 53.7,1517.2 58.3,1465.2 62.8,1413.2 254.6,1233.5 	
		"/>
	<polygon style="fill:none;stroke:#F7941D;stroke-width:2.8346;stroke-miterlimit:10;" points="62.8,1413.2 115,1410.9 
		167.1,1408.7 162.6,1460.7 158,1512.7 298.4,1665.4 438.7,1818.1 411.1,1844.7 383.4,1871.3 218.6,1694.2 53.7,1517.2 58.3,1465.2 
			"/>
	<polygon style="fill:none;stroke:#000000;stroke-width:2.8346;stroke-miterlimit:10;" points="283,1763.5 310.7,1736.8 
		338.4,1710.1 485.9,1869 633.4,2027.9 685.5,2027.9 737.6,2027.9 733.6,2079.6 729.5,2131.4 677.6,2131.4 625.6,2131.4 
		454.3,1947.4 	"/>
	<polygon style="fill:none;stroke:#000000;stroke-width:2.8346;stroke-miterlimit:10;" points="1100.7,1685.4 1127.3,1711 
		1153.8,1736.6 941.6,1934 729.5,2131.4 677.6,2131.4 625.6,2131.4 629.7,2079.6 633.8,2027.9 684.9,2027.9 735.9,2027.9 
		918.3,1856.6 	"/>
	<polygon style="fill:none;stroke:#754C29;stroke-width:2.8346;stroke-miterlimit:10;" points="991.1,1788.4 1017.6,1813.5 
		1044,1838.7 1252,1645.3 1460,1451.8 1460,1402 1460,1352.2 1405.9,1354.6 1351.9,1356.9 1351.9,1403.3 1351.9,1449.6 1171.5,1619 
			"/>
	<polygon style="fill:none;stroke:#000000;stroke-width:2.8346;stroke-miterlimit:10;" points="701,424.7 1062.4,393 1423.8,361.4 
		1426.1,387.2 1428.3,413 1066.9,444.6 705.5,476.2 703.3,450.4 	"/>
	<polygon style="fill:none;stroke:#000000;stroke-width:2.8346;stroke-miterlimit:10;" points="669.4,63.2 721.7,58.7 774,54.1 
		792.1,260.2 810.1,466.3 809.4,466.8 808.6,467.2 757.1,471.7 705.5,476.2 687.5,269.7 	"/>
	<polygon style="fill:none;stroke:#000000;stroke-width:2.8346;stroke-miterlimit:10;" points="81.3,478.9 443.5,447.2 805.6,415.5 
		807.9,441.3 810.2,467.1 448,498.8 85.8,530.4 83.6,504.7 	"/>
	<polygon style="fill:none;stroke:#00AEEF;stroke-width:2.8346;stroke-miterlimit:10;" points="701,424.7 753.3,420.1 805.6,415.5 
		821.5,596.2 837.3,776.9 785,781.5 732.6,786.1 716.8,605.4 	"/>
	<polygon style="fill:none;stroke:#000000;stroke-width:2.8346;stroke-miterlimit:10;" points="1289.1,9 1340.6,4.5 1392.2,0 
		1410.3,206.5 1428.3,413 1376.8,417.5 1325.2,422 1307.2,215.5 	"/>
	<polygon style="fill:none;stroke:#000000;stroke-width:2.8346;stroke-miterlimit:10;" points="669.4,63.2 1030.8,31.6 1392.2,0 
		1396.7,51.6 1401.2,103.1 1039.8,134.7 678.4,166.3 673.9,114.8 	"/>
	<polygon style="fill:none;stroke:#FFF200;stroke-width:2.8346;stroke-miterlimit:10;" points="774,54.1 778.5,105.6 783,157.2 
		420.9,188.9 58.7,220.6 54.2,169 49.7,117.5 411.9,85.8 	"/>
	<polygon style="fill:none;stroke:#FFF200;stroke-width:2.8346;stroke-miterlimit:10;" points="49.7,117.5 101.3,112.9 152.8,108.4 
		170.9,314.9 188.9,521.4 137.4,525.9 85.8,530.4 67.8,323.9 	"/>
	<polygon style="fill:none;stroke:#00A651;stroke-width:2.8346;stroke-miterlimit:10;" points="81.3,478.9 132.9,474.4 184.4,470 
		200.3,650.6 216.1,831.3 164.5,835.8 113,840.3 97.1,659.6 	"/>
	
		<polygon style="opacity:0.5;fill:#D7DF23;stroke:#2E3192;stroke-width:2.8346;stroke-miterlimit:10;enable-background:new    ;" points="
		1320.7,370.5 1372.3,365.9 1423.8,361.4 1441.9,567.9 1460,774.4 1460,800.4 1460,826.4 1405.9,831.1 1351.9,835.8 1352.1,783.8 
		1352.3,731.9 1336.5,551.2 	"/>
	<polygon style="fill:none;stroke:#000000;stroke-width:2.8346;stroke-miterlimit:10;" points="1047,212.1 1100.8,233.4 
		1154.5,254.7 981.6,360.9 808.6,467.2 757.1,471.7 705.5,476.2 703.3,450.4 701,424.7 874,318.4 	"/>
	<polygon style="fill:none;stroke:#000000;stroke-width:2.8346;stroke-miterlimit:10;" points="1289.1,9 1291.3,34.8 1293.6,60.6 
		1145.5,151.6 997.3,242.6 1051.1,263.9 1104.9,285.2 1253.1,194.1 1401.2,103.1 1396.7,51.6 1392.2,0 1340.6,4.5 	"/>
	<polygon style="fill:none;stroke:#000000;stroke-width:2.8346;stroke-miterlimit:10;" points="328.3,327.1 377.6,296.8 
		426.9,266.5 616.3,341.4 805.7,416.3 807.9,441.3 810.1,466.3 809.4,466.8 808.6,467.2 757,471.7 705.3,476.2 516.8,401.7 	"/>
	<polygon style="fill:none;stroke:#FFF200;stroke-width:2.8346;stroke-miterlimit:10;" points="481.2,288 431.8,318.3 382.4,348.6 
		220.6,284.6 58.7,220.6 54.2,169 49.7,117.5 101.3,112.9 152.8,108.4 155.1,134.2 157.3,160 319.3,224 	"/>
	<polygon style="fill:none;stroke:#000000;stroke-width:2.8346;stroke-miterlimit:10;" points="701,424.7 752.6,420.2 804.1,415.6 
		804.9,416 805.7,416.3 807.9,441.3 810.1,466.3 636.6,572.9 463.1,679.5 409.2,658.3 355.4,637 528.2,530.8 	"/>
	<polygon style="fill:none;stroke:#00A651;stroke-width:2.8346;stroke-miterlimit:10;" points="405,606.5 458.9,627.8 512.8,649 
		364.4,740.1 216.1,831.3 212.3,883.6 208.5,935.9 156.1,940.4 103.8,945 108.4,892.7 113,840.3 110.7,814.5 108.4,788.8 
		256.7,697.6 	"/>
	<polygon style="fill:none;stroke:#000000;stroke-width:2.8346;stroke-miterlimit:10;" points="701,424.7 752.6,420.2 804.1,415.6 
		992.9,490.3 1181.7,564.9 1132.4,595.2 1083.1,625.6 894.3,551 705.5,476.3 703.3,450.5 	"/>
	<polygon style="fill:none;stroke:#2E3192;stroke-width:2.8346;stroke-miterlimit:10;" points="1028.8,604.1 1078.2,573.8 
		1127.5,543.5 1289.2,607.4 1450.9,671.3 1453.2,697.1 1455.4,722.9 1403.7,727.4 1351.9,731.9 1190.4,668 	"/>
	<polygon style="fill:none;stroke:#000000;stroke-width:2.8346;stroke-miterlimit:10;" points="997.3,242.6 1022.2,227.3 
		1047,212.1 1235.4,286.8 1423.8,361.4 1426.1,387.2 1428.3,413 1376.8,417.5 1325.2,422 1323,396.2 1320.7,370.5 1159,306.5 	"/>
	<polygon style="fill:none;stroke:#000000;stroke-width:2.8346;stroke-miterlimit:10;" points="669.4,63.2 721.7,58.7 774,54.1 
		776.3,79.9 778.5,105.6 966.5,180.2 1154.5,254.7 1129.7,269.9 1104.9,285.2 889.4,200 673.9,114.8 671.7,89 	"/>
	<polygon style="fill:none;stroke:#000000;stroke-width:2.8346;stroke-miterlimit:10;" points="328.3,327.1 501.1,221 673.9,114.8 
		671.7,89 669.4,63.2 721.7,58.7 774,54.1 776.3,79.9 778.5,105.6 580.5,227.1 382.4,348.6 355.4,337.8 	"/>
	<polygon style="fill:none;stroke:#000000;stroke-width:2.8346;stroke-miterlimit:10;" points="426.9,266.5 454,277.3 481.2,288 
		332.8,379 184.4,470 186.7,495.7 188.9,521.4 137.4,525.9 85.8,530.4 83.6,504.7 81.3,478.9 254.1,372.7 	"/>
	<polygon style="fill:none;stroke:#000000;stroke-width:2.8346;stroke-miterlimit:10;" points="81.3,478.9 133,474.4 184.6,469.8 
		186.8,495.6 188.9,521.4 350.9,585.2 512.8,649 487.9,664.3 463.1,679.5 274.4,605 85.8,530.4 83.6,504.7 	"/>
	<polygon style="fill:none;stroke:#00AEEF;stroke-width:2.8346;stroke-miterlimit:10;" points="405,606.5 567.2,670.5 729.4,734.4 
		781.1,729.9 832.8,725.4 835,751.2 837.3,776.9 784.6,781.6 731.9,786.2 543.7,711.6 355.4,637 380.2,621.8 	"/>
	<polygon style="fill:none;stroke:#00AEEF;stroke-width:2.8346;stroke-miterlimit:10;" points="1127.5,543.5 1154.6,554.2 
		1181.7,564.9 1009.5,670.9 837.3,776.9 832.7,829.3 828.2,881.6 775.9,886.2 723.7,890.8 727.8,838.5 731.9,786.2 730,760.4 
		728.1,734.5 779.7,730 831.2,725.5 979.4,634.5 	"/>
	<polygon style="fill:none;stroke:#000000;stroke-width:2.8346;stroke-miterlimit:10;" points="1320.7,370.5 1323,396.2 1325.2,422 
		1177,513.1 1028.8,604.1 1055.9,614.9 1083.1,625.6 1255.7,519.3 1428.3,413 1426.1,387.2 1423.8,361.4 1372.3,365.9 	"/>
</g>
<g>
	
		<polygon style="opacity:0.5;fill:#D7DF23;stroke:#2E3192;stroke-width:17.0079;stroke-miterlimit:10;enable-background:new    ;" points="
		2005.1,3723.9 2123.5,3733.9 2241.8,3743.8 2235.4,3821.2 2229,3898.5 2112.5,3888.8 1996,3879 1996,3853 1996,3827 2075.8,3834 
		2155.5,3841 2157.8,3815.2 2160,3789.4 2080.3,3782.5 2000.6,3775.5 2002.8,3749.7 	"/>
	
		<polygon style="opacity:0.5;fill:#EF4136;stroke:#00A651;stroke-width:17.0079;stroke-miterlimit:10;enable-background:new    ;" points="
		3352.1,3789.4 3300.5,3785.1 3249,3780.8 3244.4,3832.4 3239.9,3883.9 3243.7,3936.2 3247.5,3988.5 3299.9,3993 3352.2,3997.6 
		3347.6,3945.3 3343,3892.9 3347.6,3841.1 	"/>
	
		<polygon style="opacity:0.75;fill:#EF4136;stroke:#00A651;stroke-width:17.0079;stroke-miterlimit:10;enable-background:new    ;" points="
		3323.4,3836.6 3296.4,3834.3 3269.3,3831.9 3264.5,3886.1 3259.8,3940.2 3286.9,3942.6 3314,3945 3318.7,3890.8 	"/>
	
		<polygon style="opacity:0.75;fill:none;stroke:#00AEEF;stroke-width:17.0079;stroke-miterlimit:10;enable-background:new    ;" points="
		2671.8,3834.2 2594.5,3827.4 2517.1,3820.7 2514.9,3846.5 2512.6,3872.2 2590,3879 2667.3,3885.8 2669.5,3860 	"/>
	<polygon style="fill:none;stroke:#00AEEF;stroke-width:17.0079;stroke-miterlimit:10;" points="2595.9,3827.2 2597.9,3801.4 
		2599.9,3775.6 2677.8,3782.6 2755.8,3789.6 2753.2,3815.4 2750.5,3841.2 2746.6,3892.7 2742.6,3944.3 2669.9,3937.8 2597.1,3931.2 
		2594.6,3905 2592.1,3878.8 2629.7,3882.3 2667.3,3885.8 2669.5,3860 2671.8,3834.2 2633.9,3830.7 	"/>
	
		<polygon style="opacity:0.75;fill:#D7DF23;stroke:#2E3192;stroke-width:17.0079;stroke-miterlimit:10;enable-background:new    ;" points="
		2000.6,3775.5 1998.3,3801.3 1996,3827 2075.8,3834 2155.5,3841 2157.8,3815.2 2160,3789.4 2080.3,3782.5 	"/>
	
		<polygon style="opacity:0.75;fill:none;stroke:#FFF200;stroke-width:17.0079;stroke-miterlimit:10;enable-background:new    ;" points="
		3377.5,3216.9 3350.5,3214.5 3323.4,3212.1 3318.6,3266.3 3313.9,3320.5 3341,3322.8 3368.1,3325.2 3372.8,3271 	"/>
	<polygon style="fill:none;stroke:#FFF200;stroke-width:17.0079;stroke-miterlimit:10;" points="3397.3,3273.2 3384.4,3272 
		3371.5,3270.9 3373.7,3245.1 3376,3219.4 3350.2,3217.1 3324.4,3214.9 3322.2,3240.6 3319.9,3266.4 3307.1,3265.3 3294.2,3264.2 
		3298.7,3212.6 3303.2,3161 3354.7,3165.6 3406.3,3170.1 3401.8,3221.6 	"/>
	
		<polygon style="opacity:0.75;fill:none;stroke:#F7941D;stroke-width:17.0079;stroke-miterlimit:10;enable-background:new    ;" points="
		3373.3,4535.5 3347.5,4537.7 3321.7,4540 3328.5,4617.3 3335.3,4694.6 3361,4692.4 3386.8,4690.1 3380.1,4612.8 	"/>
	<polygon style="fill:none;stroke:#F7941D;stroke-width:17.0079;stroke-miterlimit:10;" points="3393.2,4465.8 3341,4463.6 
		3288.9,4461.3 3295.9,4541.1 3302.8,4620.9 3354.4,4616.3 3405.9,4611.8 3399.6,4538.8 	"/>
	
		<polygon style="opacity:0.75;fill:none;stroke:#EC008C;stroke-width:17.0079;stroke-miterlimit:10;enable-background:new    ;" points="
		3422.9,5102.2 3397.1,5104.4 3371.3,5106.7 3374.7,5145.3 3378.1,5184 3404.1,5184 3430,5184 3426.4,5143.1 	"/>
	<polygon style="fill:none;stroke:#EC008C;stroke-width:17.0079;stroke-miterlimit:10;" points="3456,5184 3448.9,5102.7 
		3441.8,5021.5 3390.2,5026.2 3338.7,5030.9 3345.5,5107.5 3352.3,5184 3404.1,5184 	"/>
	
		<polygon style="opacity:0.75;fill:none;stroke:#662D91;stroke-width:17.0079;stroke-miterlimit:10;enable-background:new    ;" points="
		2078.2,5106.4 2052.3,5106.4 2026.4,5106.4 2026.4,5145.2 2026.4,5184 2052.3,5184 2078.2,5184 2078.2,5145.2 	"/>
	<polygon style="fill:none;stroke:#662D91;stroke-width:17.0079;stroke-miterlimit:10;" points="1996,5184 2050.1,5184 2104.1,5184 
		2104.1,5106.3 2104.1,5028.6 2050.1,5028.7 1996,5028.9 1996,5106.5 	"/>
	
		<polygon style="opacity:0.75;fill:none;stroke:#754C29;stroke-width:17.0079;stroke-miterlimit:10;enable-background:new    ;" points="
		2078.2,4638.5 2078.2,4560.9 2078.2,4483.2 2052.3,4483.2 2026.4,4483.2 2026.4,4560.9 2026.4,4638.5 2052.3,4638.5 	"/>
	<polygon style="fill:none;stroke:#754C29;stroke-width:17.0079;stroke-miterlimit:10;" points="2104.1,4561 2050.1,4560.8 
		1996,4560.6 1996,4482.7 1996,4404.8 2050.1,4407.2 2104.1,4409.5 2104.1,4485.3 	"/>
	
		<polygon style="opacity:0.75;fill:#00A651;stroke:#EF4136;stroke-width:17.0079;stroke-miterlimit:10;enable-background:new    ;" points="
		3323.6,3968.1 3297.9,3970.3 3272.1,3972.6 3278.9,4049.9 3285.6,4127.2 3311.4,4125 3337.2,4122.7 3330.4,4045.4 	"/>
	
		<polygon style="opacity:0.5;fill:#00A651;stroke:#EF4136;stroke-width:17.0079;stroke-miterlimit:10;enable-background:new    ;" points="
		3343,3892.9 3291.5,3888.4 3239.9,3883.9 3246.5,3968.2 3253.1,4052.5 3304.7,4048.2 3356.2,4043.8 3349.6,3968.4 	"/>
	
		<polygon style="opacity:0.75;fill:#2E3192;stroke:#D7DF23;stroke-width:17.0079;stroke-miterlimit:10;enable-background:new    ;" points="
		2078.2,3860.2 2052.3,3860.2 2026.4,3860.2 2026.4,3937.9 2026.4,4015.6 2052.3,4015.6 2078.2,4015.6 2078.2,3937.9 	"/>
	
		<polygon style="opacity:0.5;fill:#2E3192;stroke:#D7DF23;stroke-width:17.0079;stroke-miterlimit:10;enable-background:new    ;" points="
		2103.7,3784.5 2052.1,3780 2000.6,3775.5 1998.3,3801.3 1996,3827 1996,3882.3 1996,3937.5 2050.1,3937.4 2104.1,3937.2 
		2104.1,3860.9 2104.1,3784.5 2103.9,3784.5 	"/>
	<polygon style="fill:none;stroke:#754C29;stroke-width:11.3386;stroke-miterlimit:10;" points="2771.5,4438.7 2383.8,4421.8 
		1996,4404.8 1996,4456.6 1996,4508.4 2387.4,4525.5 2778.8,4542.6 2779.2,4542.2 2779.6,4541.9 2775.5,4490.3 	"/>
	<polygon style="fill:none;stroke:#00AEEF;stroke-width:11.3386;stroke-miterlimit:10;" points="2727.9,3787.2 2675.6,3782.6 
		2623.2,3778 2621,3803.8 2618.7,3829.6 2623.3,3881.9 2627.8,3934.3 2651.6,4236.2 2675.5,4538.1 2727.2,4540.4 2778.8,4542.6 
		2779.2,4542.2 2779.6,4541.9 2756,4242.6 2732.3,3943.4 2727.8,3891.1 2723.4,3838.7 2725.6,3812.9 	"/>
	<polygon style="fill:none;stroke:#F7941D;stroke-width:11.3386;stroke-miterlimit:10;" points="2667.3,4434.1 2671.4,4486.1 
		2675.5,4538.1 3038.9,4554 3402.3,4569.8 3397.7,4517.8 3393.2,4465.8 3030.2,4450 	"/>
	<polygon style="fill:none;stroke:#000000;stroke-width:11.3386;stroke-miterlimit:10;" points="2771.5,4438.7 2719.3,4436.4 
		2667.1,4434.1 2696.8,4809.1 2726.5,5184 2778.4,5184 2830.4,5184 2800.9,4811.3 	"/>
	
		<polygon style="opacity:0.5;fill:#D7DF23;stroke:#754C29;stroke-width:11.3386;stroke-miterlimit:10;enable-background:new    ;" points="
		2108.2,3732.9 2056.6,3728.4 2005.1,3723.9 2000.6,3775.5 1996,3827 1996,4167.7 1996,4508.4 2050.1,4510.8 2104.1,4513.1 
		2104.1,4148.8 2104.1,3784.5 2106.1,3758.7 	"/>
	
		<polygon style="opacity:0.5;fill:#00AEEF;stroke:#2E3192;stroke-width:11.3386;stroke-miterlimit:10;enable-background:new    ;" points="
		2727.9,3787.2 2366.5,3755.5 2005.1,3723.9 2000.6,3775.5 1996,3827 1996,3853 1996,3879 2364.2,3911.2 2732.3,3943.4 
		2728.2,3891.1 2724.1,3838.8 2726,3813 	"/>
	
		<polygon style="opacity:0.5;fill:#00AEEF;stroke:#EF4136;stroke-width:11.3386;stroke-miterlimit:10;enable-background:new    ;" points="
		3347.6,3841.4 2985.4,3809.7 2623.2,3778 2621,3803.8 2618.7,3829.6 2623.3,3881.9 2627.8,3934.3 2990,3965.9 3352.2,3997.6 
		3347.6,3945.3 3343,3892.9 3345.3,3867.2 	"/>
	
		<polygon style="opacity:0.5;fill:#F7941D;stroke:#EF4136;stroke-width:11.3386;stroke-miterlimit:10;enable-background:new    ;" points="
		3347.6,3841.4 3296,3836.9 3244.4,3832.4 3242.2,3858.1 3239.9,3883.9 3269,4224.6 3298,4565.3 3350.1,4567.6 3402.3,4569.8 
		3372.7,4231.4 3343,3892.9 3345.3,3867.2 	"/>
	
		<polygon style="opacity:0.5;fill:#F7941D;stroke:#EC008C;stroke-width:11.3386;stroke-miterlimit:10;enable-background:new    ;" points="
		3456,5184 3424.6,4824.9 3393.2,4465.8 3341.1,4463.6 3289.1,4461.3 3320.5,4822.6 3351.9,5184 3365,5184 3378.1,5184 3417,5184 	
		"/>
	<polygon style="fill:none;stroke:#EC008C;stroke-width:11.3386;stroke-miterlimit:10;" points="2718.4,5080.5 2722.4,5132.2 
		2726.5,5184 3091.3,5184 3456,5184 3451.5,5132.2 3446.9,5080.5 3082.7,5080.5 	"/>
	<polygon style="fill:none;stroke:#662D91;stroke-width:11.3386;stroke-miterlimit:10;" points="2822.2,5080.5 2826.3,5132.2 
		2830.4,5184 2413.2,5184 1996,5184 1996,5132.2 1996,5080.5 2409.1,5080.5 	"/>
	
		<polygon style="opacity:0.5;fill:#662D91;stroke:#754C29;stroke-width:11.3386;stroke-miterlimit:10;enable-background:new    ;" points="
		2104.1,4409.5 2050.1,4407.2 1996,4404.8 1996,4794.4 1996,5184 2050.1,5184 2104.1,5184 2104.1,4796.8 	"/>
	<polygon style="fill:none;stroke:#000000;stroke-width:11.3386;stroke-miterlimit:10;" points="2380.8,4051.6 2326,4102.5 
		2271.3,4153.3 2471.3,4345.6 2671.2,4537.9 2725,4540.3 2778.8,4542.6 2779.2,4542.2 2779.6,4541.9 2775.1,4484.8 2770.6,4427.8 
		2575.7,4239.7 	"/>
	
		<polygon style="opacity:0.5;fill:#D7DF23;stroke:#2E3192;stroke-width:11.3386;stroke-miterlimit:10;enable-background:new    ;" points="
		2104.1,3784.5 2270.2,3944.9 2436.3,4105.2 2381.5,4155.9 2326.8,4206.6 2161.4,4047.6 1996,3888.6 1996,3857.8 1996,3827 
		2000.6,3775.5 2005.1,3723.9 2056.6,3728.4 2108.2,3732.9 2106.1,3758.7 	"/>
	<polygon style="fill:none;stroke:#000000;stroke-width:11.3386;stroke-miterlimit:10;" points="3124.5,4214.1 3067,4160.2 
		3009.6,4106.3 2838.5,4271.5 2667.5,4436.6 2671.5,4487.3 2675.5,4538.1 2727.2,4540.4 2778.8,4542.6 2951.7,4378.3 	"/>
	<polygon style="fill:none;stroke:#EF4136;stroke-width:11.3386;stroke-miterlimit:10;" points="3239.9,3883.9 3291.5,3888.4 
		3343,3892.9 3347.6,3945.3 3352.2,3997.6 3213.8,4129.2 3075.4,4260.7 3018.4,4206.8 2961.4,4152.9 3100.6,4018.4 	"/>
	<polygon style="fill:none;stroke:#000000;stroke-width:11.3386;stroke-miterlimit:10;" points="2782.4,4439.2 2726.2,4436.7 
		2669.9,4434.3 2668.7,4435.4 2667.5,4436.6 2671.7,4489.5 2675.8,4542.3 2874.2,4733.1 3072.6,4923.9 3122.8,4870 3173,4816.1 
		2977.7,4627.6 	"/>
	<polygon style="fill:none;stroke:#EC008C;stroke-width:11.3386;stroke-miterlimit:10;" points="3117.6,4762.7 3067.5,4816.7 
		3017.3,4870.7 3180.2,5027.4 3343,5184 3399.5,5184 3456,5184 3451.5,5132.2 3446.9,5080.5 3282.3,4921.6 	"/>
	<polygon style="fill:none;stroke:#000000;stroke-width:11.3386;stroke-miterlimit:10;" points="2771.5,4438.7 2720.7,4436.5 
		2669.9,4434.3 2486.1,4611.8 2302.2,4789.3 2357.1,4840.3 2412,4891.3 2595.8,4716.6 2779.6,4541.9 2775.5,4490.3 	"/>
	<polygon style="fill:none;stroke:#662D91;stroke-width:11.3386;stroke-miterlimit:10;" points="2464.9,4841 2410.1,4789.5 
		2355.3,4738 2175.7,4911.4 1996,5084.8 1996,5134.4 1996,5184 2050.1,5184 2104.1,5184 2284.5,5012.5 	"/>
	<polygon style="fill:none;stroke:#754C29;stroke-width:11.3386;stroke-miterlimit:10;" points="2436.3,4105.2 2408.5,4078.4 
		2380.8,4051.6 2188.4,4230.4 1996,4409.2 1996,4458.8 1996,4508.4 2050.1,4510.8 2104.1,4513.1 2104.1,4463 2104.1,4412.8 
		2270.2,4259 	"/>
	<polygon style="fill:none;stroke:#00AEEF;stroke-width:11.3386;stroke-miterlimit:10;" points="2727.9,3787.2 2675.6,3782.6 
		2623.2,3778 2621.4,3803.8 2619.5,3829.6 2445.4,3991.5 2271.3,4153.3 2299,4180 2326.8,4206.6 2525.4,4022.7 2724.1,3838.8 
		2726,3813 	"/>
	<polygon style="fill:none;stroke:#00AEEF;stroke-width:11.3386;stroke-miterlimit:10;" points="2726.6,3787 2725.3,3812.9 
		2724.1,3838.8 2924.3,4026.4 3124.5,4214.1 3100,4237.4 3075.4,4260.7 2847.1,4045.1 2618.7,3829.6 2621,3803.8 2623.2,3778 
		2674.9,3782.5 	"/>
	<polygon style="fill:none;stroke:#F7941D;stroke-width:11.3386;stroke-miterlimit:10;" points="3009.6,4106.3 2985.5,4129.6 
		2961.4,4152.9 3125.2,4307.8 3289,4462.7 3293.5,4514 3298,4565.3 3350.1,4567.6 3402.3,4569.8 3397.7,4517.8 3393.2,4465.8 
		3201.4,4286.1 	"/>
	<polygon style="fill:none;stroke:#F7941D;stroke-width:11.3386;stroke-miterlimit:10;" points="3393.2,4465.8 3341,4463.6 
		3288.9,4461.3 3293.4,4513.3 3298,4565.3 3157.6,4718 3017.3,4870.7 3044.9,4897.3 3072.6,4923.9 3237.4,4746.9 3402.3,4569.8 
		3397.7,4517.8 	"/>
	<polygon style="fill:none;stroke:#000000;stroke-width:11.3386;stroke-miterlimit:10;" points="3173,4816.1 3145.3,4789.4 
		3117.6,4762.7 2970.1,4921.6 2822.6,5080.5 2770.5,5080.5 2718.4,5080.5 2722.4,5132.2 2726.5,5184 2778.4,5184 2830.4,5184 
		3001.7,5000 	"/>
	<polygon style="fill:none;stroke:#000000;stroke-width:11.3386;stroke-miterlimit:10;" points="2355.3,4738 2328.7,4763.6 
		2302.2,4789.3 2514.4,4986.6 2726.5,5184 2778.4,5184 2830.4,5184 2826.3,5132.2 2822.2,5080.5 2771.1,5080.5 2720.1,5080.5 
		2537.7,4909.3 	"/>
	<polygon style="fill:none;stroke:#754C29;stroke-width:11.3386;stroke-miterlimit:10;" points="2464.9,4841 2438.4,4866.2 
		2412,4891.3 2204,4697.9 1996,4504.5 1996,4454.6 1996,4404.8 2050.1,4407.2 2104.1,4409.5 2104.1,4455.9 2104.1,4502.2 
		2284.5,4671.6 	"/>
	<polygon style="fill:none;stroke:#000000;stroke-width:11.3386;stroke-miterlimit:10;" points="2755,3477.3 2393.6,3445.7 
		2032.2,3414 2029.9,3439.8 2027.7,3465.6 2389.1,3497.2 2750.5,3528.8 2752.7,3503.1 	"/>
	<polygon style="fill:none;stroke:#000000;stroke-width:11.3386;stroke-miterlimit:10;" points="2786.6,3115.9 2734.3,3111.3 
		2682,3106.7 2663.9,3312.8 2645.9,3518.9 2646.6,3519.4 2647.4,3519.8 2698.9,3524.3 2750.5,3528.8 2768.5,3322.3 	"/>
	<polygon style="fill:none;stroke:#000000;stroke-width:11.3386;stroke-miterlimit:10;" points="3374.7,3531.5 3012.5,3499.8 
		2650.4,3468.1 2648.1,3493.9 2645.8,3519.7 3008,3551.4 3370.2,3583.1 3372.4,3557.3 	"/>
	<polygon style="fill:none;stroke:#00AEEF;stroke-width:11.3386;stroke-miterlimit:10;" points="2755,3477.3 2702.7,3472.7 
		2650.4,3468.1 2634.5,3648.8 2618.7,3829.6 2671,3834.1 2723.4,3838.7 2739.2,3658 	"/>
	<polygon style="fill:none;stroke:#000000;stroke-width:11.3386;stroke-miterlimit:10;" points="2166.9,3061.6 2115.4,3057.1 
		2063.8,3052.6 2045.7,3259.1 2027.7,3465.6 2079.2,3470.1 2130.8,3474.6 2148.8,3268.1 	"/>
	<polygon style="fill:none;stroke:#000000;stroke-width:11.3386;stroke-miterlimit:10;" points="2786.6,3115.9 2425.2,3084.2 
		2063.8,3052.6 2059.3,3104.2 2054.8,3155.7 2416.2,3187.3 2777.6,3219 2782.1,3167.4 	"/>
	<polygon style="fill:none;stroke:#FFF200;stroke-width:11.3386;stroke-miterlimit:10;" points="2682,3106.7 2677.5,3158.3 
		2673,3209.8 3035.1,3241.5 3397.3,3273.2 3401.8,3221.6 3406.3,3170.1 3044.1,3138.4 	"/>
	<polygon style="fill:none;stroke:#FFF200;stroke-width:11.3386;stroke-miterlimit:10;" points="3406.3,3170.1 3354.7,3165.6 
		3303.2,3161 3285.1,3367.5 3267.1,3574 3318.6,3578.5 3370.2,3583.1 3388.2,3376.6 	"/>
	<polygon style="fill:none;stroke:#00A651;stroke-width:11.3386;stroke-miterlimit:10;" points="3374.7,3531.5 3323.1,3527 
		3271.6,3522.6 3255.7,3703.2 3239.9,3883.9 3291.5,3888.4 3343,3892.9 3358.9,3712.2 	"/>
	
		<polygon style="opacity:0.5;fill:#D7DF23;stroke:#2E3192;stroke-width:11.3386;stroke-miterlimit:10;enable-background:new    ;" points="
		2135.3,3423.1 2083.7,3418.6 2032.2,3414 2014.1,3620.5 1996,3827 1996,3853 1996,3879 2050.1,3883.7 2104.1,3888.4 2103.9,3836.5 
		2103.7,3784.5 2119.5,3603.8 	"/>
	<polygon style="fill:none;stroke:#000000;stroke-width:11.3386;stroke-miterlimit:10;" points="2409,3264.7 2355.2,3286 
		2301.5,3307.3 2474.4,3413.6 2647.4,3519.8 2698.9,3524.3 2750.5,3528.8 2752.7,3503.1 2755,3477.3 2582,3371 	"/>
	<polygon style="fill:none;stroke:#000000;stroke-width:11.3386;stroke-miterlimit:10;" points="2166.9,3061.6 2164.6,3087.4 
		2162.4,3113.2 2310.5,3204.2 2458.7,3295.2 2404.9,3316.5 2351.1,3337.8 2202.9,3246.7 2054.8,3155.7 2059.3,3104.2 2063.8,3052.6 
		2115.4,3057.1 	"/>
	<polygon style="fill:none;stroke:#000000;stroke-width:11.3386;stroke-miterlimit:10;" points="3127.7,3379.8 3078.4,3349.5 
		3029.1,3319.2 2839.7,3394 2650.3,3468.9 2648.1,3493.9 2645.9,3518.9 2646.6,3519.4 2647.4,3519.8 2699,3524.3 2750.7,3528.9 
		2939.2,3454.3 	"/>
	<polygon style="fill:none;stroke:#FFF200;stroke-width:11.3386;stroke-miterlimit:10;" points="2974.8,3340.6 3024.2,3370.9 
		3073.6,3401.2 3235.4,3337.2 3397.3,3273.2 3401.8,3221.6 3406.3,3170.1 3354.7,3165.6 3303.2,3161 3300.9,3186.8 3298.7,3212.6 
		3136.7,3276.6 	"/>
	<polygon style="fill:none;stroke:#000000;stroke-width:11.3386;stroke-miterlimit:10;" points="2755,3477.3 2703.4,3472.8 
		2651.9,3468.3 2651.1,3468.6 2650.3,3468.9 2648.1,3493.9 2645.9,3518.9 2819.4,3625.5 2992.9,3732.2 3046.8,3710.9 3100.6,3689.6 
		2927.8,3583.5 	"/>
	<polygon style="fill:none;stroke:#00A651;stroke-width:11.3386;stroke-miterlimit:10;" points="3051,3659.1 2997.1,3680.4 
		2943.2,3701.6 3091.6,3792.8 3239.9,3883.9 3243.7,3936.2 3247.5,3988.5 3299.9,3993 3352.2,3997.6 3347.6,3945.3 3343,3892.9 
		3345.3,3867.2 3347.6,3841.4 3199.3,3750.3 	"/>
	<polygon style="fill:none;stroke:#000000;stroke-width:11.3386;stroke-miterlimit:10;" points="2755,3477.3 2703.4,3472.8 
		2651.9,3468.3 2463.1,3542.9 2274.3,3617.5 2323.6,3647.9 2372.9,3678.2 2561.7,3603.6 2750.5,3528.9 2752.7,3503.1 	"/>
	<polygon style="fill:none;stroke:#2E3192;stroke-width:11.3386;stroke-miterlimit:10;" points="2427.2,3656.8 2377.8,3626.4 
		2328.5,3596.1 2166.8,3660 2005.1,3723.9 2002.8,3749.7 2000.6,3775.5 2052.3,3780 2104.1,3784.5 2265.6,3720.6 	"/>
	<polygon style="fill:none;stroke:#000000;stroke-width:11.3386;stroke-miterlimit:10;" points="2458.7,3295.2 2433.8,3280 
		2409,3264.7 2220.6,3339.4 2032.2,3414 2029.9,3439.8 2027.7,3465.6 2079.2,3470.1 2130.8,3474.6 2133,3448.8 2135.3,3423.1 
		2297,3359.2 	"/>
	<polygon style="fill:none;stroke:#000000;stroke-width:11.3386;stroke-miterlimit:10;" points="2786.6,3115.9 2734.3,3111.3 
		2682,3106.7 2679.7,3132.5 2677.5,3158.3 2489.5,3232.8 2301.5,3307.3 2326.3,3322.5 2351.1,3337.8 2566.6,3252.6 2782.1,3167.4 
		2784.3,3141.6 	"/>
	<polygon style="fill:none;stroke:#000000;stroke-width:11.3386;stroke-miterlimit:10;" points="3127.7,3379.8 2954.9,3273.6 
		2782.1,3167.4 2784.3,3141.6 2786.6,3115.9 2734.3,3111.3 2682,3106.7 2679.7,3132.5 2677.5,3158.3 2875.5,3279.7 3073.6,3401.2 
		3100.6,3390.5 	"/>
	<polygon style="fill:none;stroke:#000000;stroke-width:11.3386;stroke-miterlimit:10;" points="3029.1,3319.2 3002,3329.9 
		2974.8,3340.6 3123.2,3431.6 3271.6,3522.6 3269.3,3548.3 3267.1,3574 3318.6,3578.5 3370.2,3583.1 3372.4,3557.3 3374.7,3531.5 
		3201.9,3425.3 	"/>
	<polygon style="fill:none;stroke:#000000;stroke-width:11.3386;stroke-miterlimit:10;" points="3374.7,3531.5 3323,3527 
		3271.4,3522.5 3269.2,3548.2 3267.1,3574 3105.1,3637.8 2943.2,3701.6 2968.1,3716.9 2992.9,3732.2 3181.6,3657.6 3370.2,3583.1 
		3372.4,3557.3 	"/>
	<polygon style="fill:none;stroke:#00AEEF;stroke-width:11.3386;stroke-miterlimit:10;" points="3051,3659.1 2888.8,3723.1 
		2726.6,3787 2674.9,3782.5 2623.2,3778 2621,3803.8 2618.7,3829.6 2671.4,3834.2 2724.1,3838.8 2912.3,3764.2 3100.6,3689.6 
		3075.8,3674.4 	"/>
	<polygon style="fill:none;stroke:#00AEEF;stroke-width:11.3386;stroke-miterlimit:10;" points="2328.5,3596.1 2301.4,3606.8 
		2274.3,3617.5 2446.5,3723.5 2618.7,3829.6 2623.3,3881.9 2627.8,3934.3 2680.1,3938.8 2732.3,3943.4 2728.2,3891.1 2724.1,3838.8 
		2726,3813 2727.9,3787.2 2676.3,3782.7 2624.8,3778.1 2476.6,3687.1 	"/>
	<polygon style="fill:none;stroke:#000000;stroke-width:11.3386;stroke-miterlimit:10;" points="2135.3,3423.1 2133,3448.8 
		2130.8,3474.6 2279,3565.7 2427.2,3656.8 2400.1,3667.5 2372.9,3678.2 2200.3,3571.9 2027.7,3465.6 2029.9,3439.8 2032.2,3414 
		2083.7,3418.6 	"/>
</g>
</svg>
