<?xml version="1.0" encoding="utf-8"?>
<!-- Generator: Adobe Illustrator 28.0.0, SVG Export Plug-In . SVG Version: 6.00 Build 0)  -->
<svg version="1.1" id="Layer_1" xmlns="http://www.w3.org/2000/svg" xmlns:xlink="http://www.w3.org/1999/xlink" x="0px" y="0px"
	 width="3456px" height="5184px" viewBox="0 0 3456 5184" style="enable-background:new 0 0 3456 5184;" xml:space="preserve">
<g>
	
		<polygon style="fill:none;stroke:#2E3192;stroke-width:8.5039;stroke-linecap:round;stroke-linejoin:round;stroke-miterlimit:10;" points="
		1999.439,2994.328 1947.689,2994.328 1895.939,2994.328 1870.064,2994.328 1844.189,2994.328 1844.189,2953.103 1844.189,2911.879 
		1818.314,2911.879 1792.439,2911.879 1792.439,2834.254 1792.439,2756.629 1818.314,2756.629 1844.189,2756.629 1844.189,2795.441 
		1844.189,2834.254 1870.064,2834.254 1895.939,2834.254 1895.939,2795.441 1895.939,2756.629 1947.689,2756.629 1999.439,2756.629 
		1999.439,2823.728 1999.439,2890.828 1999.439,2942.578 	"/>
	
		<polygon style="opacity:0.72;fill:#ED1C24;stroke:#ED1C24;stroke-width:2.8346;stroke-linecap:round;stroke-linejoin:round;stroke-miterlimit:10;enable-background:new    ;" points="
		2518.064,1723.102 2569.814,1723.102 2621.564,1723.102 2621.564,1684.906 2621.564,1646.71 2569.814,1646.71 2518.064,1646.71 
		2518.064,1684.906 	"/>
	
		<polygon style="opacity:0.7;fill:#ED1C24;stroke:#ED1C24;stroke-width:2.8346;stroke-linecap:round;stroke-linejoin:round;stroke-miterlimit:10;enable-background:new    ;" points="
		1895.939,1723.102 1947.689,1723.102 1999.439,1723.102 1999.439,1684.906 1999.439,1646.71 1947.689,1646.71 1895.939,1646.71 
		1895.939,1684.906 	"/>
	
		<polygon style="fill:none;stroke:#00AEEF;stroke-width:8.5039;stroke-linecap:round;stroke-linejoin:round;stroke-miterlimit:10;" points="
		1895.939,2398.144 1870.064,2398.144 1844.189,2398.144 1818.314,2398.144 1792.439,2398.144 1792.439,2320.519 1792.439,2242.894 
		1818.314,2242.894 1844.189,2242.894 1844.189,2281.707 1844.189,2320.519 1870.064,2320.519 1895.939,2320.519 1895.939,2281.707 
		1895.939,2242.894 1947.689,2242.894 1999.439,2242.894 1999.439,2320.519 1999.439,2398.144 1947.689,2398.144 	"/>
	
		<polygon style="fill:none;stroke:#2E3192;stroke-width:17.0079;stroke-linecap:round;stroke-linejoin:round;stroke-miterlimit:10;" points="
		3140.189,2994.328 3191.939,2994.328 3243.689,2994.328 3269.564,2994.328 3295.439,2994.328 3295.439,2953.103 3295.439,2911.879 
		3321.314,2911.879 3347.189,2911.879 3347.189,2834.254 3347.189,2756.629 3321.314,2756.629 3295.439,2756.629 3295.439,2795.441 
		3295.439,2834.254 3269.564,2834.254 3243.689,2834.254 3243.689,2795.441 3243.689,2756.629 3191.939,2756.629 3140.189,2756.629 
		3140.189,2823.728 3140.189,2890.828 3140.189,2942.578 	"/>
	
		<polygon style="opacity:0.74;fill:#ED1C24;stroke:#ED1C24;stroke-width:14.1732;stroke-linecap:round;stroke-linejoin:round;stroke-miterlimit:10;enable-background:new    ;" points="
		3243.689,1723.102 3191.939,1723.102 3140.189,1723.102 3140.189,1684.906 3140.189,1646.71 3191.939,1646.71 3243.689,1646.71 
		3243.689,1684.906 	"/>
	
		<polygon style="fill:none;stroke:#00AEEF;stroke-width:17.0079;stroke-linecap:round;stroke-linejoin:round;stroke-miterlimit:10;" points="
		3243.689,2398.144 3269.564,2398.144 3295.439,2398.144 3321.314,2398.144 3347.189,2398.144 3347.189,2320.519 3347.189,2242.894 
		3321.314,2242.894 3295.439,2242.894 3295.439,2281.707 3295.439,2320.519 3269.564,2320.519 3243.689,2320.519 3243.689,2281.707 
		3243.689,2242.894 3191.939,2242.894 3140.189,2242.894 3140.189,2320.519 3140.189,2398.144 3191.939,2398.144 	"/>
	
		<polygon style="fill:none;stroke:#00AEEF;stroke-width:14.1732;stroke-linecap:round;stroke-linejoin:round;stroke-miterlimit:10;" points="
		3243.689,2294.644 3243.689,2346.394 3243.689,2398.144 2880.877,2398.144 2518.064,2398.144 2518.064,2346.394 2518.064,2294.644 
		2880.877,2294.644 	"/>
	
		<polygon style="fill:none;stroke:#000000;stroke-width:2.8346;stroke-linecap:round;stroke-linejoin:round;stroke-miterlimit:10;" points="
		2621.564,1646.71 2569.814,1646.71 2518.064,1646.71 2466.314,1646.71 2466.314,1724.335 2466.314,1801.96 2518.064,1801.96 
		2518.064,2022.427 2518.064,2398.144 2569.814,2398.144 2621.564,2398.144 2621.564,2022.427 2621.564,1801.96 2673.314,1801.96 
		2673.314,1724.335 2673.314,1646.71 	"/>
	
		<polygon style="fill:none;stroke:#00AEEF;stroke-width:5.6693;stroke-linecap:round;stroke-linejoin:round;stroke-miterlimit:10;" points="
		1895.939,2294.644 1895.939,2346.394 1895.939,2398.144 2258.752,2398.144 2621.564,2398.144 2621.564,2346.394 2621.564,2294.644 
		2258.752,2294.644 	"/>
	
		<polygon style="fill:none;stroke:#000000;stroke-width:2.8346;stroke-linecap:round;stroke-linejoin:round;stroke-miterlimit:10;" points="
		2518.064,2994.328 2569.814,2994.328 2621.564,2994.328 2621.564,2644.486 2621.564,2294.644 2569.814,2294.644 2518.064,2294.644 
		2518.064,2644.486 	"/>
	
		<polygon style="fill:none;stroke:#00AEEF;stroke-width:14.1732;stroke-linecap:round;stroke-linejoin:round;stroke-miterlimit:10;" points="
		3191.939,1646.71 3166.064,1646.71 3140.189,1646.71 3088.439,1646.71 3088.439,1724.335 3088.439,1801.96 3140.189,1801.96 
		3140.189,2022.427 3140.189,2398.144 3191.939,2398.144 3243.689,2398.144 3243.689,2022.427 3243.689,1801.96 3243.689,1724.335 
		3243.689,1646.71 	"/>
	
		<polygon style="opacity:0.73;fill:#B7268F;stroke:#231F20;stroke-width:14.1732;stroke-linecap:round;stroke-linejoin:round;stroke-miterlimit:10;enable-background:new    ;" points="
		2880.877,1646.71 2673.314,1646.71 2569.814,1646.71 2518.064,1646.71 2466.314,1646.71 2466.314,1724.335 2466.314,1801.96 
		2518.064,1801.96 2569.814,1801.96 2673.314,1801.96 2880.877,1801.96 3243.689,1801.96 3243.689,1724.335 3243.689,1646.71 	"/>
	
		<polygon style="fill:#3F55A5;stroke:#231F20;stroke-width:2.8346;stroke-linecap:round;stroke-linejoin:round;stroke-miterlimit:10;" points="
		2621.564,1646.71 2569.814,1646.71 2466.314,1646.71 2258.752,1646.71 1895.939,1646.71 1895.939,1724.335 1895.939,1801.96 
		2258.752,1801.96 2466.314,1801.96 2569.814,1801.96 2621.564,1801.96 2673.314,1801.96 2673.314,1724.335 2673.314,1646.71 	"/>
	
		<polygon style="fill:none;stroke:#00AEEF;stroke-width:5.6693;stroke-linecap:round;stroke-linejoin:round;stroke-miterlimit:10;" points="
		1999.439,1646.71 1973.564,1646.71 1947.689,1646.71 1895.939,1646.71 1895.939,1724.335 1895.939,1801.96 1895.939,2022.427 
		1895.939,2398.144 1947.689,2398.144 1999.439,2398.144 1999.439,2022.427 1999.439,1801.96 2051.189,1801.96 2051.189,1724.335 
		2051.189,1646.71 	"/>
	
		<polygon style="opacity:0.5;fill:#2E3192;stroke:#00AEEF;stroke-width:5.6693;stroke-linecap:round;stroke-linejoin:round;stroke-miterlimit:10;enable-background:new    ;" points="
		1895.939,2994.328 1947.689,2994.328 1999.439,2994.328 1999.439,2644.486 1999.439,2294.644 1947.689,2294.644 1895.939,2294.644 
		1895.939,2644.486 	"/>
	
		<polygon style="fill:none;stroke:#2E3192;stroke-width:5.6693;stroke-linecap:round;stroke-linejoin:round;stroke-miterlimit:10;" points="
		1895.939,2890.828 1895.939,2942.578 1895.939,2994.328 2258.752,2994.328 2621.564,2994.328 2621.564,2942.578 2621.564,2890.828 
		2258.752,2890.828 	"/>
	
		<polygon style="fill:none;stroke:#2E3192;stroke-width:14.1732;stroke-linecap:round;stroke-linejoin:round;stroke-miterlimit:10;" points="
		3243.689,2890.828 3243.689,2942.578 3243.689,2994.328 2880.877,2994.328 2518.064,2994.328 2518.064,2942.578 2518.064,2890.828 
		2880.877,2890.828 	"/>
	
		<polygon style="opacity:0.5;fill:#2E3192;stroke:#00AEEF;stroke-width:14.1732;stroke-linecap:round;stroke-linejoin:round;stroke-miterlimit:10;enable-background:new    ;" points="
		3243.689,2994.328 3191.939,2994.328 3140.189,2994.328 3140.189,2644.486 3140.189,2294.644 3191.939,2294.644 3243.689,2294.644 
		3243.689,2644.486 	"/>
	
		<polygon style="fill:none;stroke:#000000;stroke-width:14.1732;stroke-linecap:round;stroke-linejoin:round;stroke-miterlimit:10;" points="
		2518.064,2294.644 2518.064,2346.394 2518.064,2398.144 2569.814,2398.144 2621.564,2398.144 2804.096,2223.223 2986.628,2048.302 
		2933.753,1997.631 2880.877,1946.96 2699.47,2120.802 	"/>
	
		<polygon style="fill:none;stroke:#000000;stroke-width:14.1732;stroke-linecap:round;stroke-linejoin:round;stroke-miterlimit:10;" points="
		3191.939,1646.71 3166.064,1646.71 3140.189,1646.71 3088.439,1646.71 3088.439,1724.335 3088.439,1748.052 2984.177,1847.967 
		2828.165,1997.474 2880.877,2048.302 2933.589,2099.13 3088.639,1950.545 3243.689,1801.96 3243.689,1724.335 3243.689,1646.71 	
		"/>
	
		<polygon style="fill:none;stroke:#000000;stroke-width:2.8346;stroke-linecap:round;stroke-linejoin:round;stroke-miterlimit:10;" points="
		2621.564,2294.644 2621.564,2346.394 2621.564,2398.144 2569.814,2398.144 2518.064,2398.144 2335.532,2223.223 2153,2048.302 
		2205.876,1997.631 2258.752,1946.96 2440.158,2120.802 	"/>
	
		<polygon style="fill:none;stroke:#000000;stroke-width:2.8346;stroke-linecap:round;stroke-linejoin:round;stroke-miterlimit:10;" points="
		2155.452,1847.967 2051.189,1748.052 2051.189,1724.335 2051.189,1646.71 1999.439,1646.71 1973.564,1646.71 1947.689,1646.71 
		1895.939,1646.71 1895.939,1724.335 1895.939,1801.96 2050.989,1950.545 2206.04,2099.13 2258.752,2048.302 2311.464,1997.474 	"/>
	
		<polygon style="fill:none;stroke:#000000;stroke-width:2.8346;stroke-linecap:round;stroke-linejoin:round;stroke-miterlimit:10;" points="
		2621.564,2398.144 2621.564,2346.394 2621.564,2294.644 2569.814,2294.644 2518.064,2294.644 2335.532,2469.565 2153,2644.486 
		2205.876,2695.157 2258.752,2745.828 2440.158,2571.986 	"/>
	
		<polygon style="fill:none;stroke:#2E3192;stroke-width:5.6693;stroke-linecap:round;stroke-linejoin:round;stroke-miterlimit:10;" points="
		1895.939,2890.828 1895.939,2942.578 1895.939,2994.328 1947.689,2994.328 1999.439,2994.328 2155.452,2844.821 2311.464,2695.314 
		2258.752,2644.486 2206.04,2593.658 2050.989,2742.243 	"/>
	
		<polygon style="fill:none;stroke:#000000;stroke-width:14.1732;stroke-linecap:round;stroke-linejoin:round;stroke-miterlimit:10;" points="
		2518.064,2398.144 2518.064,2346.394 2518.064,2294.644 2569.814,2294.644 2621.564,2294.644 2804.096,2469.565 2986.628,2644.486 
		2933.753,2695.157 2880.877,2745.828 2699.47,2571.986 	"/>
	
		<polygon style="fill:none;stroke:#2E3192;stroke-width:14.1732;stroke-linecap:round;stroke-linejoin:round;stroke-miterlimit:10;" points="
		3243.689,2890.828 3243.689,2942.578 3243.689,2994.328 3191.939,2994.328 3140.189,2994.328 2984.177,2844.821 2828.165,2695.314 
		2880.877,2644.486 2933.589,2593.658 3088.639,2742.243 	"/>
	
		<polygon style="fill:none;stroke:#00AEEF;stroke-width:14.1732;stroke-linecap:round;stroke-linejoin:round;stroke-miterlimit:10;" points="
		3243.689,2398.144 3191.939,2398.144 3140.189,2398.144 3140.189,2348.244 3140.189,2298.344 2984.177,2147.909 2828.165,1997.474 
		2854.521,1972.217 2880.877,1946.96 3062.283,2120.802 3243.689,2294.644 3243.689,2346.394 	"/>
	
		<polygon style="fill:none;stroke:#000000;stroke-width:14.1732;stroke-linecap:round;stroke-linejoin:round;stroke-miterlimit:10;" points="
		2804.096,1873.381 2673.314,1748.052 2673.314,1724.335 2673.314,1646.71 2621.564,1646.71 2569.814,1646.71 2518.064,1646.71 
		2466.314,1646.71 2466.314,1724.335 2466.314,1801.96 2518.064,1801.96 2569.814,1801.96 2571.733,1801.96 2625.402,1801.96 
		2779.495,1950.545 2933.589,2099.13 2960.109,2073.716 2986.628,2048.302 	"/>
	
		<polygon style="fill:none;stroke:#000000;stroke-width:2.8346;stroke-linecap:round;stroke-linejoin:round;stroke-miterlimit:10;" points="
		2621.564,1646.71 2569.814,1646.71 2518.064,1646.71 2466.314,1646.71 2466.314,1724.335 2466.314,1748.053 2335.532,1873.381 
		2153,2048.302 2179.52,2073.716 2206.04,2099.13 2360.133,1950.545 2514.227,1801.96 2567.896,1801.96 2569.814,1801.96 
		2621.564,1801.96 2673.314,1801.96 2673.314,1724.335 2673.314,1646.71 	"/>
	
		<polygon style="fill:none;stroke:#00AEEF;stroke-width:5.6693;stroke-linecap:round;stroke-linejoin:round;stroke-miterlimit:10;" points="
		1895.939,2398.144 1947.689,2398.144 1999.439,2398.144 1999.439,2348.244 1999.439,2298.344 2155.452,2147.909 2311.464,1997.474 
		2285.108,1972.217 2258.752,1946.96 2077.345,2120.802 1895.939,2294.644 1895.939,2346.394 	"/>
	
		<polygon style="fill:none;stroke:#00AEEF;stroke-width:5.6693;stroke-linecap:round;stroke-linejoin:round;stroke-miterlimit:10;" points="
		1895.939,2294.644 1947.689,2294.644 1999.439,2294.644 1999.439,2344.544 1999.439,2394.444 2155.452,2544.879 2311.464,2695.314 
		2285.108,2720.571 2258.752,2745.828 2077.345,2571.986 1895.939,2398.144 1895.939,2346.394 	"/>
	
		<polygon style="fill:none;stroke:#000000;stroke-width:2.8346;stroke-linecap:round;stroke-linejoin:round;stroke-miterlimit:10;" points="
		2153,2644.486 2179.52,2619.072 2206.04,2593.658 2360.133,2742.243 2514.227,2890.828 2567.896,2890.828 2621.564,2890.828 
		2621.564,2942.578 2621.564,2994.328 2569.814,2994.328 2518.064,2994.328 2335.532,2819.407 	"/>
	
		<polygon style="fill:none;stroke:#000000;stroke-width:14.1732;stroke-linecap:round;stroke-linejoin:round;stroke-miterlimit:10;" points="
		2986.628,2644.486 2960.109,2619.072 2933.589,2593.658 2779.495,2742.243 2625.402,2890.828 2571.733,2890.828 2518.064,2890.828 
		2518.064,2942.578 2518.064,2994.328 2569.814,2994.328 2621.564,2994.328 2804.096,2819.407 	"/>
	
		<polygon style="fill:none;stroke:#00AEEF;stroke-width:14.1732;stroke-linecap:round;stroke-linejoin:round;stroke-miterlimit:10;" points="
		3243.689,2294.644 3191.939,2294.644 3140.189,2294.644 3140.189,2344.544 3140.189,2394.444 2984.177,2544.879 2828.165,2695.314 
		2854.521,2720.571 2880.877,2745.828 3062.283,2571.986 3243.689,2398.144 3243.689,2346.394 	"/>
</g>
<g>
	
		<rect x="2603.494" y="1450.593" style="fill:#3F55A5;stroke:#FFFFFF;stroke-width:2.8346;stroke-linecap:round;stroke-linejoin:round;stroke-miterlimit:10;" width="518.702" height="51.716"/>
	
		<rect x="1981.292" y="1450.593" style="fill:#B7268F;stroke:#FFFFFF;stroke-width:2.8346;stroke-linecap:round;stroke-linejoin:round;stroke-miterlimit:10;" width="518.702" height="51.716"/>
	
		<polygon style="fill:none;stroke:#00A651;stroke-width:8.5039;stroke-linecap:round;stroke-linejoin:round;stroke-miterlimit:10;" points="
		3225.619,1347.093 3225.619,1372.968 3225.619,1398.843 3251.494,1398.843 3277.369,1398.843 3277.369,1372.968 3277.369,1347.093 
		3303.244,1347.093 3329.119,1347.093 3329.119,1398.843 3329.119,1450.593 3277.369,1450.593 3225.619,1450.593 3173.869,1450.593 
		3122.119,1450.593 3122.119,1398.843 3122.119,1347.093 3173.869,1347.093 	"/>
	
		<polygon style="fill:none;stroke:#FFF200;stroke-width:8.5039;stroke-linecap:round;stroke-linejoin:round;stroke-miterlimit:10;" points="
		3225.619,724.968 3225.619,750.843 3225.619,776.718 3251.494,776.718 3277.369,776.718 3277.369,750.843 3277.369,724.968 
		3303.244,724.968 3329.119,724.968 3329.119,776.718 3329.119,828.468 3277.369,828.468 3225.619,828.468 3173.869,828.468 
		3122.119,828.468 3122.119,776.718 3122.119,724.968 3173.869,724.968 	"/>
	
		<polygon style="fill:none;stroke:#00A651;stroke-width:17.0079;stroke-linecap:round;stroke-linejoin:round;stroke-miterlimit:10;" points="
		1877.869,1347.093 1877.869,1372.968 1877.869,1398.843 1851.994,1398.843 1826.119,1398.843 1826.119,1372.968 1826.119,1347.093 
		1800.244,1347.093 1774.369,1347.093 1774.369,1398.843 1774.369,1450.593 1826.119,1450.593 1877.869,1450.593 1929.619,1450.593 
		1981.369,1450.593 1981.369,1398.843 1981.369,1347.093 1929.619,1347.093 	"/>
	
		<polygon style="fill:none;stroke:#FFF200;stroke-width:17.0079;stroke-linecap:round;stroke-linejoin:round;stroke-miterlimit:10;" points="
		1877.869,724.968 1877.869,750.843 1877.869,776.718 1851.994,776.718 1826.119,776.718 1826.119,750.843 1826.119,724.968 
		1800.244,724.968 1774.369,724.968 1774.369,776.718 1774.369,828.468 1826.119,828.468 1877.869,828.468 1929.619,828.468 
		1981.369,828.468 1981.369,776.718 1981.369,724.968 1929.619,724.968 	"/>
	
		<polygon style="opacity:0.72;fill:#ED1C24;stroke:#ED1C24;stroke-width:2.8346;stroke-linecap:round;stroke-linejoin:round;stroke-miterlimit:10;enable-background:new    ;" points="
		2499.994,1526.984 2474.119,1526.984 2448.244,1526.984 2448.244,1488.788 2448.244,1450.593 2474.119,1450.593 2499.994,1450.593 
		2499.994,1488.788 	"/>
	
		<polygon style="opacity:0.72;fill:#ED1C24;stroke:#ED1C24;stroke-width:2.8346;stroke-linecap:round;stroke-linejoin:round;stroke-miterlimit:10;enable-background:new    ;" points="
		2655.244,1526.984 2629.369,1526.984 2603.494,1526.984 2603.494,1488.788 2603.494,1450.593 2629.369,1450.593 2655.244,1450.593 
		2655.244,1488.788 	"/>
	
		<polygon style="opacity:0.7;fill:#ED1C24;stroke:#ED1C24;stroke-width:2.8346;stroke-linecap:round;stroke-linejoin:round;stroke-miterlimit:10;enable-background:new    ;" points="
		3122.119,1526.984 3096.244,1526.984 3070.369,1526.984 3070.369,1488.788 3070.369,1450.593 3096.244,1450.593 3122.119,1450.593 
		3122.119,1488.788 	"/>
	
		<polygon style="opacity:0.74;fill:#ED1C24;stroke:#ED1C24;stroke-width:14.1732;stroke-linecap:round;stroke-linejoin:round;stroke-miterlimit:10;enable-background:new    ;" points="
		1981.369,1526.984 2007.244,1526.984 2033.119,1526.984 2033.119,1488.788 2033.119,1450.593 2007.244,1450.593 1981.369,1450.593 
		1981.369,1488.788 	"/>
	
		<polygon style="fill:none;stroke:#FFF200;stroke-width:14.1732;stroke-linecap:round;stroke-linejoin:round;stroke-miterlimit:10;" points="
		2603.494,828.468 2240.682,828.468 1877.869,828.468 1877.869,776.718 1877.869,724.968 2240.682,724.968 2603.494,724.968 
		2603.494,776.718 	"/>
	
		<polygon style="fill:none;stroke:#000000;stroke-width:2.8346;stroke-linecap:round;stroke-linejoin:round;stroke-miterlimit:10;" points="
		2499.994,102.843 2499.994,465.655 2499.994,828.468 2551.744,828.468 2603.494,828.468 2603.494,465.655 2603.494,102.843 
		2551.744,102.843 	"/>
	
		<polygon style="fill:none;stroke:#FFF200;stroke-width:5.6693;stroke-linecap:round;stroke-linejoin:round;stroke-miterlimit:10;" points="
		2499.994,828.468 2862.807,828.468 3225.619,828.468 3225.619,776.718 3225.619,724.968 2862.807,724.968 2499.994,724.968 
		2499.994,776.718 	"/>
	
		<polygon style="opacity:0.72;fill:none;stroke:#000000;stroke-width:2.8346;stroke-linecap:round;stroke-linejoin:round;stroke-miterlimit:10;enable-background:new    ;" points="
		2603.494,724.968 2603.494,1087.78 2603.494,1450.593 2603.494,1476.468 2603.494,1502.343 2551.744,1502.343 2499.994,1502.343 
		2499.994,1476.468 2499.994,1450.593 2499.994,1087.78 2499.994,724.968 2551.744,724.968 	"/>
	
		<polygon style="fill:none;stroke:#FFF200;stroke-width:14.1732;stroke-linecap:round;stroke-linejoin:round;stroke-miterlimit:10;" points="
		1981.369,102.843 1981.369,465.655 1981.369,828.468 1929.619,828.468 1877.869,828.468 1877.869,465.655 1877.869,102.843 
		1929.619,102.843 	"/>
	
		<polygon style="fill:none;stroke:#000000;stroke-width:14.1732;stroke-linecap:round;stroke-linejoin:round;stroke-miterlimit:10;" points="
		2603.494,206.343 2240.682,206.343 1877.869,206.343 1877.869,154.593 1877.869,102.843 2240.682,102.843 2603.494,102.843 
		2603.494,154.593 	"/>
	
		<polygon style="fill:none;stroke:#000000;stroke-width:2.8346;stroke-linecap:round;stroke-linejoin:round;stroke-miterlimit:10;" points="
		2499.994,206.343 2862.807,206.343 3225.619,206.343 3225.619,154.593 3225.619,102.843 2862.807,102.843 2499.994,102.843 
		2499.994,154.593 	"/>
	
		<polygon style="fill:none;stroke:#FFF200;stroke-width:5.6693;stroke-linecap:round;stroke-linejoin:round;stroke-miterlimit:10;" points="
		3122.119,102.843 3122.119,465.655 3122.119,828.468 3173.869,828.468 3225.619,828.468 3225.619,465.655 3225.619,102.843 
		3173.869,102.843 	"/>
	
		<polygon style="opacity:0.7;fill:#00A651;stroke:#FFF200;stroke-width:5.6693;stroke-linecap:round;stroke-linejoin:round;stroke-miterlimit:10;enable-background:new    ;" points="
		3225.619,724.968 3225.619,1087.78 3225.619,1450.593 3225.619,1476.468 3225.619,1502.343 3173.869,1502.343 3122.119,1502.343 
		3122.119,1476.468 3122.119,1450.593 3122.119,1087.78 3122.119,724.968 3173.869,724.968 	"/>
	
		<polygon style="opacity:0.71;fill:none;stroke:#00A651;stroke-width:5.6693;stroke-linecap:round;stroke-linejoin:round;stroke-miterlimit:10;enable-background:new    ;" points="
		3225.619,1347.093 3225.619,1398.843 3225.619,1450.593 3225.619,1476.468 3225.619,1502.343 3173.869,1502.343 3122.119,1502.343 
		3122.196,1502.309 3122.196,1502.309 2862.884,1502.309 2603.571,1502.309 2603.571,1502.309 2603.494,1502.343 2551.744,1502.343 
		2499.994,1502.343 2499.994,1476.468 2499.994,1450.593 2499.994,1398.843 2499.994,1347.093 2862.807,1347.093 	"/>
	
		<polygon style="opacity:0.73;fill:none;stroke:#00A651;stroke-width:14.1732;stroke-linecap:round;stroke-linejoin:round;stroke-miterlimit:10;enable-background:new    ;" points="
		1877.869,1347.093 1877.869,1398.843 1877.869,1450.593 1877.869,1476.468 1877.869,1502.343 1929.619,1502.343 1981.369,1502.343 
		1981.369,1502.309 1981.369,1502.309 2240.682,1502.309 2499.994,1502.309 2499.994,1502.309 2499.994,1502.343 2551.744,1502.343 
		2603.494,1502.343 2603.494,1476.468 2603.494,1450.593 2603.494,1398.843 2603.494,1347.093 2240.682,1347.093 	"/>
	
		<polygon style="opacity:0.74;fill:#00A651;stroke:#FFF200;stroke-width:14.1732;stroke-linecap:round;stroke-linejoin:round;stroke-miterlimit:10;enable-background:new    ;" points="
		1877.869,724.968 1877.869,1087.78 1877.869,1450.593 1877.869,1476.468 1877.869,1502.343 1929.619,1502.343 1981.369,1502.343 
		1981.369,1476.468 1981.369,1450.593 1981.369,1087.78 1981.369,724.968 1929.619,724.968 	"/>
	
		<polygon style="fill:none;stroke:#000000;stroke-width:14.1732;stroke-linecap:round;stroke-linejoin:round;stroke-miterlimit:10;" points="
		2137.182,465.655 2188.932,413.905 2240.682,362.155 2422.088,543.561 2603.494,724.968 2603.494,776.718 2603.494,828.468 
		2551.744,828.468 2499.994,828.468 2318.588,647.061 	"/>
	
		<polygon style="fill:none;stroke:#000000;stroke-width:14.1732;stroke-linecap:round;stroke-linejoin:round;stroke-miterlimit:10;" points="
		1877.869,206.343 1877.869,154.593 1877.869,102.843 1929.619,102.843 1981.369,102.843 2136.901,258.374 2292.432,413.905 
		2240.682,465.655 2188.932,517.405 2033.401,361.874 	"/>
	
		<polygon style="fill:none;stroke:#000000;stroke-width:2.8346;stroke-linecap:round;stroke-linejoin:round;stroke-miterlimit:10;" points="
		2966.307,465.655 2914.557,413.905 2862.807,362.155 2681.401,543.561 2499.994,724.968 2499.994,776.718 2499.994,828.468 
		2551.744,828.468 2603.494,828.468 2784.901,647.061 	"/>
	
		<polygon style="fill:none;stroke:#000000;stroke-width:2.8346;stroke-linecap:round;stroke-linejoin:round;stroke-miterlimit:10;" points="
		3225.619,206.343 3225.619,154.593 3225.619,102.843 3173.869,102.843 3122.119,102.843 2966.588,258.374 2811.057,413.905 
		2862.807,465.655 2914.557,517.405 3070.088,361.874 	"/>
	
		<polygon style="fill:none;stroke:#000000;stroke-width:2.8346;stroke-linecap:round;stroke-linejoin:round;stroke-miterlimit:10;" points="
		2966.307,1087.78 2914.557,1139.53 2862.807,1191.28 2681.401,1009.874 2499.994,828.468 2499.994,776.718 2499.994,724.968 
		2551.744,724.968 2603.494,724.968 2784.901,906.374 	"/>
	
		<polygon style="opacity:0.7;fill:none;stroke:#00A651;stroke-width:5.6693;stroke-linecap:round;stroke-linejoin:round;stroke-miterlimit:10;enable-background:new    ;" points="
		2914.48,1036.065 2862.747,1087.832 2811.014,1139.599 2966.597,1295.078 3122.179,1450.558 3122.188,1476.433 3122.196,1502.308 
		3173.946,1502.291 3225.696,1502.274 3225.688,1476.399 3225.679,1450.524 3225.662,1398.774 3225.645,1347.024 3070.062,1191.544 
			"/>
	
		<polygon style="fill:none;stroke:#000000;stroke-width:14.1732;stroke-linecap:round;stroke-linejoin:round;stroke-miterlimit:10;" points="
		2137.182,1087.78 2188.932,1139.53 2240.682,1191.28 2422.088,1009.874 2603.494,828.468 2603.494,776.718 2603.494,724.968 
		2551.744,724.968 2499.994,724.968 2318.588,906.374 	"/>
	
		<polygon style="opacity:0.74;fill:none;stroke:#00A651;stroke-width:14.1732;stroke-linecap:round;stroke-linejoin:round;stroke-miterlimit:10;enable-background:new    ;" points="
		2189.009,1036.065 2240.742,1087.832 2292.475,1139.599 2136.892,1295.078 1981.309,1450.558 1981.3,1476.433 1981.292,1502.308 
		1929.542,1502.291 1877.792,1502.274 1877.8,1476.399 1877.809,1450.524 1877.826,1398.774 1877.843,1347.024 2033.426,1191.544 	
		"/>
	
		<polygon style="fill:none;stroke:#FFF200;stroke-width:14.1732;stroke-linecap:round;stroke-linejoin:round;stroke-miterlimit:10;" points="
		1877.869,724.968 1877.869,776.718 1877.869,828.468 1929.619,828.468 1981.369,828.468 1981.369,776.718 1981.369,724.968 
		2136.901,569.436 2292.432,413.905 2266.557,388.03 2240.682,362.155 2059.276,543.561 	"/>
	
		<polygon style="fill:none;stroke:#000000;stroke-width:14.1732;stroke-linecap:round;stroke-linejoin:round;stroke-miterlimit:10;" points="
		2137.182,465.655 2163.057,491.53 2188.932,517.405 2344.463,361.874 2499.994,206.343 2551.744,206.343 2603.494,206.343 
		2603.494,154.593 2603.494,102.843 2551.744,102.843 2499.994,102.843 2318.588,284.249 	"/>
	
		<polygon style="fill:none;stroke:#000000;stroke-width:2.8346;stroke-linecap:round;stroke-linejoin:round;stroke-miterlimit:10;" points="
		2966.307,465.655 2940.432,491.53 2914.557,517.405 2759.026,361.874 2603.494,206.343 2551.744,206.343 2499.994,206.343 
		2499.994,154.593 2499.994,102.843 2551.744,102.843 2603.494,102.843 2784.901,284.249 	"/>
	
		<polygon style="fill:none;stroke:#FFF200;stroke-width:5.6693;stroke-linecap:round;stroke-linejoin:round;stroke-miterlimit:10;" points="
		3225.619,724.968 3225.619,776.718 3225.619,828.468 3173.869,828.468 3122.119,828.468 3122.119,776.718 3122.119,724.968 
		2966.588,569.436 2811.057,413.905 2836.932,388.03 2862.807,362.155 3044.213,543.561 	"/>
	
		<polygon style="fill:none;stroke:#FFF200;stroke-width:5.6693;stroke-linecap:round;stroke-linejoin:round;stroke-miterlimit:10;" points="
		3225.619,828.468 3225.619,776.718 3225.619,724.968 3173.869,724.968 3122.119,724.968 3122.119,776.718 3122.119,828.468 
		2966.588,983.999 2811.057,1139.53 2836.932,1165.405 2862.807,1191.28 3044.213,1009.874 	"/>
	
		<polygon style="opacity:0.72;fill:none;stroke:#000000;stroke-width:2.8346;stroke-linecap:round;stroke-linejoin:round;stroke-miterlimit:10;enable-background:new    ;" points="
		2603.494,1347.093 2759.026,1191.561 2914.557,1036.03 2940.432,1061.905 2966.307,1087.78 2784.901,1269.186 2603.494,1450.593 
		2603.494,1476.468 2603.494,1502.343 2551.744,1502.343 2499.994,1502.343 2499.994,1476.468 2499.994,1450.593 2499.994,1398.843 
		2499.994,1347.093 2551.744,1347.093 	"/>
	
		<polygon style="opacity:0.72;fill:none;stroke:#000000;stroke-width:14.1732;stroke-linecap:round;stroke-linejoin:round;stroke-miterlimit:10;enable-background:new    ;" points="
		2499.994,1347.093 2344.463,1191.561 2188.932,1036.03 2163.057,1061.905 2137.182,1087.78 2318.588,1269.186 2499.994,1450.593 
		2499.994,1476.468 2499.994,1502.343 2551.744,1502.343 2603.494,1502.343 2603.494,1476.468 2603.494,1450.593 2603.494,1398.843 
		2603.494,1347.093 2551.744,1347.093 	"/>
	
		<polygon style="fill:none;stroke:#FFF200;stroke-width:14.1732;stroke-linecap:round;stroke-linejoin:round;stroke-miterlimit:10;" points="
		1877.869,828.468 1877.869,776.718 1877.869,724.968 1929.619,724.968 1981.369,724.968 1981.369,776.718 1981.369,828.468 
		2136.901,983.999 2292.432,1139.53 2266.557,1165.405 2240.682,1191.28 2059.276,1009.874 	"/>
</g>
<g>
	
		<polygon style="fill:none;stroke:#D7DF23;stroke-width:8.5039;stroke-linecap:round;stroke-linejoin:round;stroke-miterlimit:10;" points="
		283.548,3810.547 231.798,3810.547 180.048,3810.547 180.048,3732.922 180.048,3655.297 205.923,3655.297 231.798,3655.297 
		231.798,3694.109 231.798,3732.922 257.673,3732.922 283.548,3732.922 283.548,3719.935 283.548,3706.948 335.298,3706.948 
		387.048,3706.948 387.048,3758.698 387.048,3810.448 335.298,3810.448 283.548,3810.448 283.548,3810.497 	"/>
	
		<polygon style="fill:none;stroke:#754C29;stroke-width:8.5039;stroke-linecap:round;stroke-linejoin:round;stroke-miterlimit:10;" points="
		283.548,4433.688 231.798,4433.688 180.048,4433.688 180.048,4356.062 180.048,4278.438 205.923,4278.438 231.798,4278.438 
		231.798,4317.25 231.798,4356.062 257.673,4356.062 283.548,4356.062 283.548,4317.25 283.548,4278.438 335.298,4278.438 
		387.048,4278.438 387.048,4356.013 387.048,4433.589 335.298,4433.589 283.548,4433.589 283.548,4433.638 	"/>
	
		<polygon style="fill:none;stroke:#662D91;stroke-width:8.5039;stroke-linecap:round;stroke-linejoin:round;stroke-miterlimit:10;" points="
		283.548,5056.684 231.798,5056.684 180.048,5056.684 180.048,4979.059 180.048,4901.434 205.923,4901.434 231.798,4901.434 
		231.798,4940.246 231.798,4979.059 257.673,4979.059 283.548,4979.059 283.548,4940.246 283.548,4901.434 335.298,4901.434 
		387.048,4901.434 387.048,4979.009 387.048,5056.585 335.298,5056.585 283.548,5056.585 283.548,5056.634 	"/>
	
		<polygon style="fill:none;stroke:#D7DF23;stroke-width:17.0079;stroke-linecap:round;stroke-linejoin:round;stroke-miterlimit:10;" points="
		1631.298,3810.547 1683.048,3810.547 1734.798,3810.547 1734.798,3732.922 1734.798,3655.297 1708.923,3655.297 1683.048,3655.297 
		1683.048,3694.109 1683.048,3732.922 1657.173,3732.922 1631.298,3732.922 1631.298,3719.935 1631.298,3706.948 1579.548,3706.948 
		1527.798,3706.948 1527.798,3758.698 1527.798,3810.448 1579.548,3810.448 1631.298,3810.448 1631.298,3810.497 	"/>
	
		<polygon style="fill:none;stroke:#754C29;stroke-width:17.0079;stroke-linecap:round;stroke-linejoin:round;stroke-miterlimit:10;" points="
		1631.298,4433.688 1683.048,4433.688 1734.798,4433.688 1734.798,4356.062 1734.798,4278.438 1708.923,4278.438 1683.048,4278.438 
		1683.048,4317.25 1683.048,4356.062 1657.173,4356.062 1631.298,4356.062 1631.298,4317.25 1631.298,4278.438 1579.548,4278.438 
		1527.798,4278.438 1527.798,4356.013 1527.798,4433.589 1579.548,4433.589 1631.298,4433.589 1631.298,4433.638 	"/>
	
		<polygon style="fill:none;stroke:#662D91;stroke-width:17.0079;stroke-linecap:round;stroke-linejoin:round;stroke-miterlimit:10;" points="
		1631.298,5056.684 1683.048,5056.684 1734.798,5056.684 1734.798,4979.059 1734.798,4901.434 1708.923,4901.434 1683.048,4901.434 
		1683.048,4940.246 1683.048,4979.059 1657.173,4979.059 1631.298,4979.059 1631.298,4940.246 1631.298,4901.434 1579.548,4901.434 
		1527.798,4901.434 1527.798,4979.009 1527.798,5056.585 1579.548,5056.585 1631.298,5056.585 1631.298,5056.634 	"/>
	
		<polygon style="fill:none;stroke:#754C29;stroke-width:14.1732;stroke-linecap:round;stroke-linejoin:round;stroke-miterlimit:10;" points="
		1631.298,4330.043 1268.486,4330.043 905.673,4330.043 905.673,4381.793 905.673,4433.543 1268.413,4433.543 1631.153,4433.543 
		1631.226,4433.615 1631.298,4433.688 1631.298,4381.865 	"/>
	
		<polygon style="fill:none;stroke:#000000;stroke-width:2.8346;stroke-linecap:round;stroke-linejoin:round;stroke-miterlimit:10;" points="
		905.673,3706.902 957.423,3706.902 1009.173,3706.902 1009.173,4070.222 1009.173,4433.543 957.496,4433.543 905.818,4433.543 
		905.746,4433.615 905.673,4433.688 905.673,4070.295 	"/>
	
		<polygon style="fill:none;stroke:#754C29;stroke-width:5.6693;stroke-linecap:round;stroke-linejoin:round;stroke-miterlimit:10;" points="
		283.548,4330.043 646.361,4330.043 1009.173,4330.043 1009.173,4381.793 1009.173,4433.543 646.433,4433.543 283.693,4433.543 
		283.621,4433.615 283.548,4433.688 283.548,4381.865 	"/>
	
		<polygon style="fill:none;stroke:#000000;stroke-width:2.8346;stroke-linecap:round;stroke-linejoin:round;stroke-miterlimit:10;" points="
		905.673,4330.043 957.423,4330.043 1009.173,4330.043 1009.173,4693.363 1009.173,5056.684 957.423,5056.684 905.673,5056.684 
		905.673,4693.363 	"/>
	
		<polygon style="opacity:0.5;fill:#D7DF23;stroke:#754C29;stroke-width:14.1732;stroke-linecap:round;stroke-linejoin:round;stroke-miterlimit:10;enable-background:new    ;" points="
		1631.298,3706.902 1579.548,3706.902 1527.798,3706.902 1527.798,4070.222 1527.798,4433.543 1579.476,4433.543 1631.153,4433.543 
		1631.226,4433.615 1631.298,4433.688 1631.298,4070.295 	"/>
	
		<polygon style="fill:none;stroke:#D7DF23;stroke-width:14.1732;stroke-linecap:round;stroke-linejoin:round;stroke-miterlimit:10;" points="
		1631.298,3706.902 1268.486,3706.902 905.673,3706.902 905.673,3758.652 905.673,3810.402 1268.413,3810.402 1631.153,3810.402 
		1631.226,3810.474 1631.298,3810.547 1631.298,3758.724 	"/>
	
		<polygon style="fill:none;stroke:#D7DF23;stroke-width:5.6693;stroke-linecap:round;stroke-linejoin:round;stroke-miterlimit:10;" points="
		283.548,3706.902 646.361,3706.902 1009.173,3706.902 1009.173,3758.652 1009.173,3810.402 646.433,3810.402 283.693,3810.402 
		283.621,3810.474 283.548,3810.547 283.548,3758.724 	"/>
	
		<polygon style="opacity:0.5;fill:#D7DF23;stroke:#754C29;stroke-width:5.6693;stroke-linecap:round;stroke-linejoin:round;stroke-miterlimit:10;enable-background:new    ;" points="
		283.548,3706.902 335.298,3706.902 387.048,3706.902 387.048,4070.222 387.048,4433.543 335.371,4433.543 283.693,4433.543 
		283.621,4433.615 283.548,4433.688 283.548,4070.295 	"/>
	
		<polygon style="opacity:0.5;fill:#662D91;stroke:#754C29;stroke-width:5.6693;stroke-linecap:round;stroke-linejoin:round;stroke-miterlimit:10;enable-background:new    ;" points="
		283.548,4330.043 335.298,4330.043 387.048,4330.043 387.048,4693.363 387.048,5056.684 335.298,5056.684 283.548,5056.684 
		283.548,4693.363 	"/>
	
		<polygon style="fill:none;stroke:#662D91;stroke-width:5.6693;stroke-linecap:round;stroke-linejoin:round;stroke-miterlimit:10;" points="
		283.548,4953.039 646.361,4953.039 1009.173,4953.039 1009.173,5004.789 1009.173,5056.539 646.433,5056.539 283.693,5056.539 
		283.621,5056.611 283.548,5056.684 283.548,5004.861 	"/>
	
		<polygon style="fill:none;stroke:#662D91;stroke-width:14.1732;stroke-linecap:round;stroke-linejoin:round;stroke-miterlimit:10;" points="
		1631.298,4953.039 1268.486,4953.039 905.673,4953.039 905.673,5004.789 905.673,5056.539 1268.413,5056.539 1631.153,5056.539 
		1631.226,5056.611 1631.298,5056.684 1631.298,5004.861 	"/>
	
		<polygon style="opacity:0.5;fill:#662D91;stroke:#754C29;stroke-width:14.1732;stroke-linecap:round;stroke-linejoin:round;stroke-miterlimit:10;enable-background:new    ;" points="
		1631.298,4330.043 1579.548,4330.043 1527.798,4330.043 1527.798,4693.363 1527.798,5056.684 1579.548,5056.684 1631.298,5056.684 
		1631.298,4693.363 	"/>
	
		<polygon style="fill:none;stroke:#000000;stroke-width:14.1732;stroke-linecap:round;stroke-linejoin:round;stroke-miterlimit:10;" points="
		1009.173,4433.615 1190.537,4251.955 1371.901,4070.295 1320.193,4018.502 1268.486,3966.71 1087.079,4148.413 905.673,4330.115 
		905.673,4381.865 905.673,4433.615 957.423,4433.615 	"/>
	
		<polygon style="fill:none;stroke:#D7DF23;stroke-width:14.1732;stroke-linecap:round;stroke-linejoin:round;stroke-miterlimit:10;" points="
		1631.298,3706.902 1579.548,3706.902 1527.798,3706.902 1372.285,3862.669 1216.772,4018.436 1268.486,4070.222 1320.199,4122.008 
		1475.749,3966.205 1631.298,3810.402 1631.298,3758.652 	"/>
	
		<polygon style="fill:none;stroke:#000000;stroke-width:2.8346;stroke-linecap:round;stroke-linejoin:round;stroke-miterlimit:10;" points="
		905.673,4433.615 724.309,4251.955 542.945,4070.295 594.653,4018.502 646.361,3966.71 827.767,4148.413 1009.173,4330.115 
		1009.173,4381.865 1009.173,4433.615 957.423,4433.615 	"/>
	
		<polygon style="fill:none;stroke:#D7DF23;stroke-width:5.6693;stroke-linecap:round;stroke-linejoin:round;stroke-miterlimit:10;" points="
		283.548,3706.902 335.298,3706.902 387.048,3706.902 542.561,3862.669 698.075,4018.436 646.361,4070.222 594.647,4122.008 
		439.098,3966.205 283.548,3810.402 283.548,3758.652 	"/>
	
		<polygon style="fill:none;stroke:#000000;stroke-width:2.8346;stroke-linecap:round;stroke-linejoin:round;stroke-miterlimit:10;" points="
		1009.173,4329.97 1009.173,4381.72 1009.173,4433.47 827.767,4615.173 646.361,4796.875 594.653,4745.083 542.945,4693.291 
		724.309,4511.63 905.673,4329.97 957.423,4329.97 	"/>
	
		<polygon style="fill:none;stroke:#662D91;stroke-width:5.6693;stroke-linecap:round;stroke-linejoin:round;stroke-miterlimit:10;" points="
		387.048,5056.829 335.298,5056.829 283.548,5056.829 283.548,5005.079 283.548,4953.329 439.098,4797.525 594.647,4641.722 
		646.361,4693.508 698.075,4745.294 542.561,4901.062 	"/>
	
		<polygon style="fill:none;stroke:#000000;stroke-width:14.1732;stroke-linecap:round;stroke-linejoin:round;stroke-miterlimit:10;" points="
		905.673,4329.97 905.673,4381.72 905.673,4433.47 1087.079,4615.173 1268.486,4796.875 1320.193,4745.083 1371.901,4693.291 
		1190.537,4511.63 1009.173,4329.97 957.423,4329.97 	"/>
	
		<polygon style="fill:none;stroke:#662D91;stroke-width:14.1732;stroke-linecap:round;stroke-linejoin:round;stroke-miterlimit:10;" points="
		1527.798,5056.829 1579.548,5056.829 1631.298,5056.829 1631.298,5005.079 1631.298,4953.329 1475.749,4797.525 1320.199,4641.722 
		1268.486,4693.508 1216.772,4745.294 1372.285,4901.062 	"/>
	
		<polygon style="fill:none;stroke:#754C29;stroke-width:14.1732;stroke-linecap:round;stroke-linejoin:round;stroke-miterlimit:10;" points="
		1631.298,4433.543 1579.62,4433.543 1527.943,4433.543 1527.87,4433.615 1527.798,4433.688 1527.798,4381.793 1527.798,4329.898 
		1372.285,4174.167 1216.772,4018.436 1242.629,3992.537 1268.486,3966.638 1449.892,4148.34 1631.298,4330.043 1631.298,4381.793 	
		"/>
	
		<polygon style="fill:none;stroke:#000000;stroke-width:14.1732;stroke-linecap:round;stroke-linejoin:round;stroke-miterlimit:10;" points="
		1320.199,4122.008 1164.614,3966.205 1009.028,3810.402 957.351,3810.402 905.673,3810.402 905.673,3758.652 905.673,3706.902 
		957.423,3706.902 1009.173,3706.902 1190.537,3888.562 1371.901,4070.222 1346.05,4096.115 	"/>
	
		<polygon style="fill:none;stroke:#000000;stroke-width:2.8346;stroke-linecap:round;stroke-linejoin:round;stroke-miterlimit:10;" points="
		594.647,4122.008 750.232,3966.205 905.818,3810.402 957.496,3810.402 1009.173,3810.402 1009.173,3758.652 1009.173,3706.902 
		957.423,3706.902 905.673,3706.902 724.309,3888.562 542.945,4070.222 568.796,4096.115 	"/>
	
		<polygon style="fill:none;stroke:#754C29;stroke-width:5.6693;stroke-linecap:round;stroke-linejoin:round;stroke-miterlimit:10;" points="
		283.548,4433.543 335.226,4433.543 386.903,4433.543 386.976,4433.615 387.048,4433.688 387.048,4381.793 387.048,4329.898 
		542.561,4174.167 698.075,4018.436 672.218,3992.537 646.361,3966.638 464.954,4148.34 283.548,4330.043 283.548,4381.793 	"/>
	
		<polygon style="fill:none;stroke:#754C29;stroke-width:5.6693;stroke-linecap:round;stroke-linejoin:round;stroke-miterlimit:10;" points="
		283.548,4330.043 335.226,4330.043 386.903,4330.043 386.976,4329.97 387.048,4329.898 387.048,4381.793 387.048,4433.688 
		542.561,4589.418 698.075,4745.149 672.218,4771.049 646.361,4796.948 464.954,4615.245 283.548,4433.543 283.548,4381.793 	"/>
	
		<polygon style="fill:none;stroke:#000000;stroke-width:2.8346;stroke-linecap:round;stroke-linejoin:round;stroke-miterlimit:10;" points="
		594.647,4641.722 750.232,4797.525 905.818,4953.329 957.496,4953.329 1009.173,4953.329 1009.173,5005.079 1009.173,5056.829 
		957.423,5056.829 905.673,5056.829 724.309,4875.168 542.945,4693.508 568.796,4667.615 	"/>
	
		<polygon style="fill:none;stroke:#000000;stroke-width:14.1732;stroke-linecap:round;stroke-linejoin:round;stroke-miterlimit:10;" points="
		1320.199,4641.722 1164.614,4797.525 1009.028,4953.329 957.351,4953.329 905.673,4953.329 905.673,5005.079 905.673,5056.829 
		957.423,5056.829 1009.173,5056.829 1190.537,4875.168 1371.901,4693.508 1346.05,4667.615 	"/>
	
		<polygon style="fill:none;stroke:#754C29;stroke-width:14.1732;stroke-linecap:round;stroke-linejoin:round;stroke-miterlimit:10;" points="
		1631.298,4330.043 1579.62,4330.043 1527.943,4330.043 1527.87,4329.97 1527.798,4329.898 1527.798,4381.793 1527.798,4433.688 
		1372.285,4589.418 1216.772,4745.149 1242.629,4771.049 1268.486,4796.948 1449.892,4615.245 1631.298,4433.543 1631.298,4381.793 
			"/>
</g>
<g>
	
		<polygon style="fill:none;stroke:#EC008C;stroke-width:8.5039;stroke-linecap:round;stroke-linejoin:round;stroke-miterlimit:10;" points="
		1683.048,3384.224 1683.048,3423.037 1683.048,3461.849 1657.173,3461.849 1631.298,3461.849 1631.298,3423.037 1631.298,3384.224 
		1579.548,3384.224 1527.798,3384.224 1527.798,3462.202 1527.798,3540.18 1579.548,3540.18 1631.298,3540.18 1631.298,3539.827 
		1631.298,3539.474 1683.048,3539.474 1734.798,3539.474 1734.798,3461.849 1734.798,3384.224 1708.923,3384.224 	"/>
	
		<polygon style="fill:none;stroke:#F7941D;stroke-width:8.5039;stroke-linecap:round;stroke-linejoin:round;stroke-miterlimit:10;" points="
		1683.048,2815.363 1683.048,2854.175 1683.048,2892.988 1657.173,2892.988 1631.298,2892.988 1631.298,2854.175 1631.298,2815.363 
		1579.548,2815.363 1527.798,2815.363 1527.798,2893.341 1527.798,2971.319 1579.548,2971.319 1631.298,2971.319 1631.298,2970.966 
		1631.298,2970.613 1683.048,2970.613 1734.798,2970.613 1734.798,2892.988 1734.798,2815.363 1708.923,2815.363 	"/>
	
		<polygon style="fill:none;stroke:#EF4136;stroke-width:8.5039;stroke-linecap:round;stroke-linejoin:round;stroke-miterlimit:10;" points="
		1683.048,2246.501 1683.048,2285.314 1683.048,2324.126 1657.173,2324.126 1631.298,2324.126 1631.298,2311.542 1631.298,2298.957 
		1579.548,2298.957 1527.798,2298.957 1527.798,2350.707 1527.798,2402.457 1579.548,2402.457 1631.298,2402.457 1631.298,2402.104 
		1631.298,2401.751 1683.048,2401.751 1734.798,2401.751 1734.798,2324.126 1734.798,2246.501 1708.923,2246.501 	"/>
	
		<polygon style="fill:none;stroke:#EC008C;stroke-width:17.0079;stroke-linecap:round;stroke-linejoin:round;stroke-miterlimit:10;" points="
		231.798,3384.224 231.798,3423.037 231.798,3461.849 257.673,3461.849 283.548,3461.849 283.548,3423.037 283.548,3384.224 
		335.298,3384.224 387.048,3384.224 387.048,3462.202 387.048,3540.18 335.298,3540.18 283.548,3540.18 283.548,3539.827 
		283.548,3539.474 231.798,3539.474 180.048,3539.474 180.048,3461.849 180.048,3384.224 205.923,3384.224 	"/>
	
		<polygon style="fill:none;stroke:#F7941D;stroke-width:17.0079;stroke-linecap:round;stroke-linejoin:round;stroke-miterlimit:10;" points="
		231.798,2815.363 231.798,2854.175 231.798,2892.988 257.673,2892.988 283.548,2892.988 283.548,2854.175 283.548,2815.363 
		335.298,2815.363 387.048,2815.363 387.048,2893.341 387.048,2971.319 335.298,2971.319 283.548,2971.319 283.548,2970.966 
		283.548,2970.613 231.798,2970.613 180.048,2970.613 180.048,2892.988 180.048,2815.363 205.923,2815.363 	"/>
	
		<polygon style="fill:none;stroke:#EF4136;stroke-width:17.0079;stroke-linecap:round;stroke-linejoin:round;stroke-miterlimit:10;" points="
		231.798,2246.501 231.798,2285.314 231.798,2324.126 257.673,2324.126 283.548,2324.126 283.548,2311.542 283.548,2298.957 
		335.298,2298.957 387.048,2298.957 387.048,2350.707 387.048,2402.457 335.298,2402.457 283.548,2402.457 283.548,2402.104 
		283.548,2401.751 231.798,2401.751 180.048,2401.751 180.048,2324.126 180.048,2246.501 205.923,2246.501 	"/>
	
		<polygon style="fill:none;stroke:#F7941D;stroke-width:5.6693;stroke-linecap:round;stroke-linejoin:round;stroke-miterlimit:10;" points="
		1631.298,2867.819 1631.298,2919.569 1631.298,2971.319 1268.486,2971.319 905.673,2971.319 905.673,2919.569 905.673,2867.819 
		1268.486,2867.819 	"/>
	
		<polygon style="fill:none;stroke:#000000;stroke-width:2.8346;stroke-linecap:round;stroke-linejoin:round;stroke-miterlimit:10;" points="
		1009.173,2971.319 957.423,2971.319 905.673,2971.319 905.673,2635.138 905.673,2298.957 957.423,2298.957 1009.173,2298.957 
		1009.173,2635.138 	"/>
	
		<polygon style="fill:none;stroke:#F7941D;stroke-width:14.1732;stroke-linecap:round;stroke-linejoin:round;stroke-miterlimit:10;" points="
		283.548,2867.819 283.548,2919.569 283.548,2971.319 646.361,2971.319 1009.173,2971.319 1009.173,2919.569 1009.173,2867.819 
		646.361,2867.819 	"/>
	
		<polygon style="fill:none;stroke:#000000;stroke-width:2.8346;stroke-linecap:round;stroke-linejoin:round;stroke-miterlimit:10;" points="
		1009.173,3540.18 957.423,3540.18 905.673,3540.18 905.673,3203.999 905.673,2867.819 957.423,2867.819 1009.173,2867.819 
		1009.173,3203.999 	"/>
	
		<polygon style="opacity:0.5;fill:#F7941D;stroke:#EF4136;stroke-width:5.6693;stroke-linecap:round;stroke-linejoin:round;stroke-miterlimit:10;enable-background:new    ;" points="
		1631.298,2971.319 1579.548,2971.319 1527.798,2971.319 1527.798,2635.138 1527.798,2298.957 1579.548,2298.957 1631.298,2298.957 
		1631.298,2635.138 	"/>
	
		<polygon style="fill:none;stroke:#EF4136;stroke-width:5.6693;stroke-linecap:round;stroke-linejoin:round;stroke-miterlimit:10;" points="
		1631.298,2298.957 1631.298,2350.707 1631.298,2402.457 1268.486,2402.457 905.673,2402.457 905.673,2350.707 905.673,2298.957 
		1268.486,2298.957 	"/>
	
		<polygon style="fill:none;stroke:#EF4136;stroke-width:14.1732;stroke-linecap:round;stroke-linejoin:round;stroke-miterlimit:10;" points="
		283.548,2298.957 283.548,2350.707 283.548,2402.457 646.361,2402.457 1009.173,2402.457 1009.173,2350.707 1009.173,2298.957 
		646.361,2298.957 	"/>
	
		<polygon style="opacity:0.5;fill:#F7941D;stroke:#EF4136;stroke-width:14.1732;stroke-linecap:round;stroke-linejoin:round;stroke-miterlimit:10;enable-background:new    ;" points="
		283.548,2971.319 335.298,2971.319 387.048,2971.319 387.048,2635.138 387.048,2298.957 335.298,2298.957 283.548,2298.957 
		283.548,2635.138 	"/>
	
		<polygon style="opacity:0.5;fill:#F7941D;stroke:#EC008C;stroke-width:14.1732;stroke-linecap:round;stroke-linejoin:round;stroke-miterlimit:10;enable-background:new    ;" points="
		283.548,3540.18 335.298,3540.18 387.048,3540.18 387.048,3203.999 387.048,2867.819 335.298,2867.819 283.548,2867.819 
		283.548,3203.999 	"/>
	
		<polygon style="fill:none;stroke:#EC008C;stroke-width:14.1732;stroke-linecap:round;stroke-linejoin:round;stroke-miterlimit:10;" points="
		283.548,3436.68 283.548,3488.43 283.548,3540.18 646.361,3540.18 1009.173,3540.18 1009.173,3488.43 1009.173,3436.68 
		646.361,3436.68 	"/>
	
		<polygon style="fill:none;stroke:#EC008C;stroke-width:5.6693;stroke-linecap:round;stroke-linejoin:round;stroke-miterlimit:10;" points="
		1631.298,3436.68 1631.298,3488.43 1631.298,3540.18 1268.486,3540.18 905.673,3540.18 905.673,3488.43 905.673,3436.68 
		1268.486,3436.68 	"/>
	
		<polygon style="opacity:0.5;fill:#F7941D;stroke:#EC008C;stroke-width:5.6693;stroke-linecap:round;stroke-linejoin:round;stroke-miterlimit:10;enable-background:new    ;" points="
		1631.298,3540.18 1579.548,3540.18 1527.798,3540.18 1527.798,3203.999 1527.798,2867.819 1579.548,2867.819 1631.298,2867.819 
		1631.298,3203.999 	"/>
	
		<polygon style="fill:none;stroke:#000000;stroke-width:2.8346;stroke-linecap:round;stroke-linejoin:round;stroke-miterlimit:10;" points="
		1009.173,2971.319 957.423,2971.319 905.673,2971.319 905.673,2919.569 905.673,2867.819 1087.079,2701.944 1268.486,2536.069 
		1322.658,2585.603 1376.831,2635.138 1193.002,2803.228 	"/>
	
		<polygon style="fill:none;stroke:#EF4136;stroke-width:5.6693;stroke-linecap:round;stroke-linejoin:round;stroke-miterlimit:10;" points="
		1631.298,2298.957 1631.298,2350.707 1631.298,2402.457 1476.799,2543.729 1322.299,2685.001 1268.486,2635.138 1214.672,2585.275 
		1371.235,2442.116 1527.798,2298.957 1579.548,2298.957 	"/>
	
		<polygon style="fill:none;stroke:#000000;stroke-width:14.1732;stroke-linecap:round;stroke-linejoin:round;stroke-miterlimit:10;" points="
		905.673,2971.319 957.423,2971.319 1009.173,2971.319 1009.173,2919.569 1009.173,2867.819 827.767,2701.944 646.361,2536.069 
		592.188,2585.603 538.015,2635.138 721.844,2803.228 	"/>
	
		<polygon style="fill:none;stroke:#EF4136;stroke-width:14.1732;stroke-linecap:round;stroke-linejoin:round;stroke-miterlimit:10;" points="
		283.548,2298.957 283.548,2350.707 283.548,2402.457 438.048,2543.729 592.547,2685.001 646.361,2635.138 700.174,2585.275 
		543.611,2442.116 387.048,2298.957 335.298,2298.957 	"/>
	
		<polygon style="fill:none;stroke:#000000;stroke-width:14.1732;stroke-linecap:round;stroke-linejoin:round;stroke-miterlimit:10;" points="
		905.673,2867.819 957.423,2867.819 1009.173,2867.819 1009.173,2919.569 1009.173,2971.319 827.767,3137.194 646.361,3303.069 
		592.188,3253.534 538.015,3203.999 721.844,3035.909 	"/>
	
		<polygon style="fill:none;stroke:#EC008C;stroke-width:14.1732;stroke-linecap:round;stroke-linejoin:round;stroke-miterlimit:10;" points="
		283.548,3540.18 283.548,3488.43 283.548,3436.68 438.048,3295.408 592.547,3154.136 646.361,3203.999 700.174,3253.863 
		543.611,3397.021 387.048,3540.18 335.298,3540.18 	"/>
	
		<polygon style="fill:none;stroke:#000000;stroke-width:2.8346;stroke-linecap:round;stroke-linejoin:round;stroke-miterlimit:10;" points="
		1009.173,2867.819 957.423,2867.819 905.673,2867.819 905.673,2919.569 905.673,2971.319 1087.079,3137.194 1268.486,3303.069 
		1322.658,3253.534 1376.831,3203.999 1193.002,3035.909 	"/>
	
		<polygon style="fill:none;stroke:#EC008C;stroke-width:5.6693;stroke-linecap:round;stroke-linejoin:round;stroke-miterlimit:10;" points="
		1631.298,3540.18 1631.298,3488.43 1631.298,3436.68 1476.799,3295.408 1322.299,3154.136 1268.486,3203.999 1214.672,3253.863 
		1371.235,3397.021 1527.798,3540.18 1579.548,3540.18 	"/>
	
		<polygon style="fill:none;stroke:#F7941D;stroke-width:5.6693;stroke-linecap:round;stroke-linejoin:round;stroke-miterlimit:10;" points="
		1527.798,2971.319 1579.548,2971.319 1631.298,2971.319 1631.298,2919.569 1631.298,2867.819 1449.892,2701.944 1268.486,2536.069 
		1241.579,2560.672 1214.672,2585.275 1371.235,2730.345 1527.798,2875.416 1527.798,2923.367 	"/>
	
		<polygon style="fill:none;stroke:#000000;stroke-width:2.8346;stroke-linecap:round;stroke-linejoin:round;stroke-miterlimit:10;" points="
		1017.372,2402.457 1169.836,2543.729 1322.299,2685.001 1349.565,2660.07 1376.831,2635.138 1193.002,2467.048 1009.173,2298.957 
		957.423,2298.957 905.673,2298.957 905.673,2350.707 905.673,2402.457 961.523,2402.457 	"/>
	
		<polygon style="fill:none;stroke:#000000;stroke-width:14.1732;stroke-linecap:round;stroke-linejoin:round;stroke-miterlimit:10;" points="
		897.474,2402.457 745.011,2543.729 592.547,2685.001 565.281,2660.07 538.015,2635.138 721.844,2467.048 905.673,2298.957 
		957.423,2298.957 1009.173,2298.957 1009.173,2350.707 1009.173,2402.457 953.324,2402.457 	"/>
	
		<polygon style="fill:none;stroke:#F7941D;stroke-width:14.1732;stroke-linecap:round;stroke-linejoin:round;stroke-miterlimit:10;" points="
		387.048,2971.319 335.298,2971.319 283.548,2971.319 283.548,2919.569 283.548,2867.819 464.954,2701.944 646.361,2536.069 
		673.267,2560.672 700.174,2585.275 543.611,2730.345 387.048,2875.416 387.048,2923.367 	"/>
	
		<polygon style="fill:none;stroke:#F7941D;stroke-width:14.1732;stroke-linecap:round;stroke-linejoin:round;stroke-miterlimit:10;" points="
		387.048,2867.819 335.298,2867.819 283.548,2867.819 283.548,2919.569 283.548,2971.319 464.954,3137.194 646.361,3303.069 
		673.267,3278.466 700.174,3253.863 543.611,3108.792 387.048,2963.721 387.048,2915.77 	"/>
	
		<polygon style="fill:none;stroke:#000000;stroke-width:14.1732;stroke-linecap:round;stroke-linejoin:round;stroke-miterlimit:10;" points="
		897.474,3436.68 745.011,3295.408 592.547,3154.136 565.281,3179.068 538.015,3203.999 721.844,3372.09 905.673,3540.18 
		957.423,3540.18 1009.173,3540.18 1009.173,3488.43 1009.173,3436.68 953.324,3436.68 	"/>
	
		<polygon style="fill:none;stroke:#000000;stroke-width:2.8346;stroke-linecap:round;stroke-linejoin:round;stroke-miterlimit:10;" points="
		1017.372,3436.68 1169.836,3295.408 1322.299,3154.136 1349.565,3179.068 1376.831,3203.999 1193.002,3372.09 1009.173,3540.18 
		957.423,3540.18 905.673,3540.18 905.673,3488.43 905.673,3436.68 961.523,3436.68 	"/>
	
		<polygon style="fill:none;stroke:#F7941D;stroke-width:5.6693;stroke-linecap:round;stroke-linejoin:round;stroke-miterlimit:10;" points="
		1527.798,2867.819 1579.548,2867.819 1631.298,2867.819 1631.298,2919.569 1631.298,2971.319 1449.892,3137.194 1268.486,3303.069 
		1241.579,3278.466 1214.672,3253.863 1371.235,3108.792 1527.798,2963.721 1527.798,2915.77 	"/>
</g>
<g>
	
		<polygon style="opacity:0.5;fill:#D7DF23;stroke:#3A53A4;stroke-width:8.5039;stroke-miterlimit:10;enable-background:new    ;" points="
		1450.933,671.311 1332.547,681.26 1214.161,691.21 1220.567,768.571 1226.973,845.932 1343.463,836.148 1459.953,826.365 
		1459.953,800.391 1459.953,774.417 1380.221,781.393 1300.488,788.368 1298.233,762.592 1295.978,736.815 1375.71,729.839 
		1455.443,722.864 1453.188,697.087 	"/>
	
		<polygon style="opacity:0.5;fill:#EF4136;stroke:#00A651;stroke-width:8.5039;stroke-miterlimit:10;enable-background:new    ;" points="
		103.892,736.738 155.465,732.461 207.039,728.184 211.549,779.74 216.06,831.296 212.275,883.575 208.491,935.853 156.142,940.433 
		103.794,945.013 108.374,892.665 112.954,840.316 108.423,788.527 	"/>
	
		<polygon style="opacity:0.75;fill:#EF4136;stroke:#00A651;stroke-width:8.5039;stroke-miterlimit:10;enable-background:new    ;" points="
		134.088,786.52 159.864,784.265 185.641,782.009 190.151,833.562 194.661,885.116 168.885,887.371 143.108,889.626 
		138.598,838.073 	"/>
	
		<polygon style="opacity:0.75;fill:none;stroke:#00AEEF;stroke-width:8.5039;stroke-miterlimit:10;enable-background:new    ;" points="
		784.198,781.59 861.528,774.825 938.858,768.059 941.113,793.836 943.368,819.612 866.038,826.378 788.709,833.143 
		786.454,807.367 	"/>
	<polygon style="fill:none;stroke:#00AEEF;stroke-width:8.5039;stroke-miterlimit:10;" points="860.051,774.598 858.09,748.796 
		856.129,722.994 778.166,729.992 700.204,736.991 702.835,762.768 705.467,788.545 709.43,840.112 713.393,891.68 786.137,885.138 
		858.88,878.596 861.374,852.404 863.868,826.212 826.289,829.678 788.709,833.143 786.454,807.367 784.198,781.59 822.125,778.094 
			"/>
	
		<polygon style="opacity:0.75;fill:#D7DF23;stroke:#3A53A4;stroke-width:8.5039;stroke-miterlimit:10;enable-background:new    ;" points="
		1455.443,722.864 1457.698,748.64 1459.953,774.417 1380.221,781.393 1300.488,788.368 1298.233,762.592 1295.978,736.815 
		1375.71,729.839 	"/>
	
		<polygon style="opacity:0.75;fill:none;stroke:#FFF200;stroke-width:8.5039;stroke-miterlimit:10;enable-background:new    ;" points="
		79.998,166.75 105.775,164.495 131.551,162.24 136.062,213.793 140.572,265.346 114.795,267.602 89.019,269.857 84.509,218.304 	
		"/>
	<polygon style="fill:none;stroke:#FFF200;stroke-width:8.5039;stroke-miterlimit:10;" points="58.732,220.559 71.62,219.431 
		84.509,218.304 82.253,192.527 79.998,166.75 105.775,164.495 131.551,162.24 133.807,188.017 136.062,213.793 148.95,212.666 
		161.838,211.538 157.328,159.985 152.818,108.432 101.265,112.942 49.711,117.453 54.222,169.006 	"/>
	
		<polygon style="opacity:0.75;fill:none;stroke:#F7941D;stroke-width:8.5039;stroke-miterlimit:10;enable-background:new    ;" points="
		82.713,1482.847 108.49,1485.103 134.267,1487.358 127.501,1564.687 120.736,1642.017 94.959,1639.762 69.183,1637.507 
		75.948,1560.177 	"/>
	<polygon style="fill:none;stroke:#F7941D;stroke-width:8.5039;stroke-miterlimit:10;" points="62.831,1413.218 114.978,1410.941 
		167.125,1408.664 160.145,1488.451 153.164,1568.237 101.613,1563.705 50.062,1559.173 56.447,1486.195 	"/>
	
		<polygon style="opacity:0.75;fill:none;stroke:#EC008C;stroke-width:8.5039;stroke-miterlimit:10;enable-background:new    ;" points="
		33.134,2049.545 58.91,2051.8 84.687,2054.055 81.304,2092.72 77.922,2131.385 51.948,2131.385 25.974,2131.385 29.554,2090.465 	
		"/>
	<polygon style="fill:none;stroke:#EC008C;stroke-width:8.5039;stroke-miterlimit:10;" points="0,2131.385 7.109,2050.133 
		14.217,1968.881 65.754,1973.583 117.29,1978.285 110.496,2054.835 103.702,2131.385 51.851,2131.385 	"/>
	
		<polygon style="opacity:0.75;fill:none;stroke:#662D91;stroke-width:8.5039;stroke-miterlimit:10;enable-background:new    ;" points="
		1377.818,2053.76 1403.693,2053.76 1429.568,2053.76 1429.568,2092.572 1429.568,2131.385 1403.693,2131.385 1377.818,2131.385 
		1377.818,2092.572 	"/>
	<polygon style="fill:none;stroke:#662D91;stroke-width:8.5039;stroke-miterlimit:10;" points="1459.953,2131.385 
		1405.948,2131.385 1351.943,2131.385 1351.943,2053.663 1351.943,1975.941 1405.948,1976.129 1459.953,1976.318 1459.953,2053.851 
			"/>
	
		<polygon style="opacity:0.75;fill:none;stroke:#754C29;stroke-width:8.5039;stroke-miterlimit:10;enable-background:new    ;" points="
		1377.818,1585.869 1377.818,1508.244 1377.818,1430.619 1403.693,1430.619 1429.568,1430.619 1429.568,1508.244 1429.568,1585.869 
		1403.693,1585.869 	"/>
	<polygon style="fill:none;stroke:#754C29;stroke-width:8.5039;stroke-miterlimit:10;" points="1351.943,1508.366 
		1405.948,1508.177 1459.953,1507.989 1459.953,1430.104 1459.953,1352.218 1405.948,1354.576 1351.943,1356.934 1351.943,1432.65 	
		"/>
	
		<polygon style="opacity:0.75;fill:#00A651;stroke:#EF4136;stroke-width:8.5039;stroke-miterlimit:10;enable-background:new    ;" points="
		132.355,915.448 158.131,917.703 183.908,919.958 177.142,997.288 170.377,1074.618 144.6,1072.362 118.824,1070.107 
		125.589,992.778 	"/>
	
		<polygon style="opacity:0.5;fill:#00A651;stroke:#EF4136;stroke-width:8.5039;stroke-miterlimit:10;enable-background:new    ;" points="
		112.954,840.316 164.507,835.806 216.06,831.296 209.474,915.591 202.889,999.885 151.321,995.54 99.754,991.195 106.354,915.756 	
		"/>
	
		<polygon style="opacity:0.75;fill:#2E3192;stroke:#D7DF23;stroke-width:8.5039;stroke-miterlimit:10;enable-background:new    ;" points="
		1377.818,807.577 1403.693,807.577 1429.568,807.577 1429.568,885.3 1429.568,963.024 1403.693,963.024 1377.818,963.024 
		1377.818,885.3 	"/>
	
		<polygon style="opacity:0.5;fill:#2E3192;stroke:#D7DF23;stroke-width:8.5039;stroke-miterlimit:10;enable-background:new    ;" points="
		1352.337,731.884 1403.89,727.374 1455.443,722.864 1457.698,748.64 1459.953,774.417 1459.953,829.674 1459.953,884.932 
		1405.948,884.743 1351.943,884.555 1351.943,808.237 1351.943,731.919 1352.14,731.902 	"/>
	<polygon style="fill:none;stroke:#754C29;stroke-width:2.8346;stroke-miterlimit:10;" points="684.528,1386.074 1072.24,1369.146 
		1459.953,1352.218 1459.953,1404.017 1459.953,1455.817 1068.553,1472.905 677.154,1489.994 676.765,1489.624 676.375,1489.255 
		680.452,1437.664 	"/>
	<polygon style="fill:none;stroke:#00AEEF;stroke-width:2.8346;stroke-miterlimit:10;" points="728.135,734.547 780.443,729.971 
		832.751,725.395 835.006,751.171 837.262,776.948 832.733,829.292 828.205,881.635 804.351,1183.559 780.496,1485.482 
		728.825,1487.738 677.154,1489.994 676.765,1489.624 676.375,1489.255 700.018,1190.018 723.66,890.782 728.153,838.441 
		732.645,786.1 730.39,760.324 	"/>
	<polygon style="fill:none;stroke:#F7941D;stroke-width:2.8346;stroke-miterlimit:10;" points="788.71,1381.525 784.603,1433.504 
		780.496,1485.482 417.115,1501.348 53.733,1517.214 58.282,1465.216 62.831,1413.218 425.771,1397.371 	"/>
	<polygon style="fill:none;stroke:#000000;stroke-width:2.8346;stroke-miterlimit:10;" points="684.528,1386.074 736.728,1383.795 
		788.928,1381.516 759.196,1756.45 729.464,2131.385 677.553,2131.385 625.642,2131.385 655.085,1758.729 	"/>
	
		<polygon style="opacity:0.5;fill:#D7DF23;stroke:#754C29;stroke-width:2.8346;stroke-miterlimit:10;enable-background:new    ;" points="
		1347.826,680.331 1399.38,675.821 1450.933,671.311 1455.443,722.864 1459.953,774.417 1459.953,1115.117 1459.953,1455.817 
		1405.948,1458.174 1351.943,1460.532 1351.943,1096.226 1351.943,731.919 1349.885,706.125 	"/>
	
		<polygon style="opacity:0.5;fill:#00AEEF;stroke:#2E3192;stroke-width:2.8346;stroke-miterlimit:10;enable-background:new    ;" points="
		728.135,734.547 1089.534,702.929 1450.933,671.311 1455.443,722.864 1459.953,774.417 1459.953,800.391 1459.953,826.365 
		1091.807,858.573 723.66,890.782 727.793,838.473 731.926,786.163 730.03,760.355 	"/>
	
		<polygon style="opacity:0.5;fill:#00AEEF;stroke:#EF4136;stroke-width:2.8346;stroke-miterlimit:10;enable-background:new    ;" points="
		108.444,788.763 470.597,757.079 832.751,725.395 835.006,751.171 837.262,776.948 832.733,829.292 828.205,881.635 466,913.324 
		103.794,945.013 108.374,892.665 112.954,840.316 110.699,814.54 	"/>
	
		<polygon style="opacity:0.5;fill:#F7941D;stroke:#EF4136;stroke-width:2.8346;stroke-miterlimit:10;enable-background:new    ;" points="
		108.444,788.763 159.997,784.253 211.55,779.743 213.805,805.519 216.06,831.296 187.043,1171.978 158.027,1512.66 
		105.88,1514.937 53.733,1517.214 83.343,1178.765 112.954,840.316 110.699,814.54 	"/>
	
		<polygon style="opacity:0.5;fill:#F7941D;stroke:#EC008C;stroke-width:2.8346;stroke-miterlimit:10;enable-background:new    ;" points="
		0,2131.385 31.416,1772.301 62.831,1413.218 114.857,1410.946 166.883,1408.675 135.481,1770.03 104.079,2131.385 91,2131.385 
		77.922,2131.385 38.961,2131.385 	"/>
	<polygon style="fill:none;stroke:#EC008C;stroke-width:2.8346;stroke-miterlimit:10;" points="737.642,2027.885 733.553,2079.635 
		729.464,2131.385 364.732,2131.385 0,2131.385 4.528,2079.635 9.055,2027.885 373.348,2027.885 	"/>
	<polygon style="fill:none;stroke:#662D91;stroke-width:2.8346;stroke-miterlimit:10;" points="633.819,2027.885 629.73,2079.635 
		625.642,2131.385 1042.797,2131.385 1459.953,2131.385 1459.953,2079.635 1459.953,2027.885 1046.886,2027.885 	"/>
	
		<polygon style="opacity:0.5;fill:#662D91;stroke:#754C29;stroke-width:2.8346;stroke-miterlimit:10;enable-background:new    ;" points="
		1351.943,1356.934 1405.948,1354.576 1459.953,1352.218 1459.953,1741.801 1459.953,2131.385 1405.948,2131.385 1351.943,2131.385 
		1351.943,1744.159 	"/>
	<polygon style="fill:none;stroke:#000000;stroke-width:2.8346;stroke-miterlimit:10;" points="1075.227,998.966 1129.953,1049.838 
		1184.678,1100.711 984.727,1293.003 784.776,1485.295 730.965,1487.645 677.154,1489.994 676.765,1489.624 676.375,1489.255 
		680.882,1432.219 685.388,1375.183 880.308,1187.074 	"/>
	
		<polygon style="opacity:0.5;fill:#D7DF23;stroke:#2E3192;stroke-width:2.8346;stroke-miterlimit:10;enable-background:new    ;" points="
		1351.943,731.919 1185.811,892.246 1019.679,1052.573 1074.464,1103.294 1129.25,1154.016 1294.601,995.003 1459.953,835.991 
		1459.953,805.204 1459.953,774.417 1455.443,722.864 1450.933,671.311 1399.38,675.821 1347.826,680.331 1349.885,706.125 	"/>
	<polygon style="fill:none;stroke:#000000;stroke-width:2.8346;stroke-miterlimit:10;" points="331.49,1161.439 388.963,1107.578 
		446.435,1053.716 617.475,1218.851 788.515,1383.985 784.506,1434.734 780.496,1485.482 728.825,1487.738 677.154,1489.994 
		504.322,1325.717 	"/>
	<polygon style="fill:none;stroke:#EF4136;stroke-width:2.8346;stroke-miterlimit:10;" points="216.06,831.296 164.507,835.806 
		112.954,840.316 108.374,892.665 103.794,945.013 242.195,1076.564 380.596,1208.115 437.621,1154.189 494.647,1100.263 
		355.353,965.779 	"/>
	<polygon style="fill:none;stroke:#000000;stroke-width:2.8346;stroke-miterlimit:10;" points="673.61,1386.55 729.848,1384.095 
		786.086,1381.64 787.301,1382.812 788.515,1383.985 784.338,1436.859 780.16,1489.734 581.794,1680.503 383.427,1871.271 
		333.235,1817.37 283.044,1763.47 478.327,1575.01 	"/>
	<polygon style="fill:none;stroke:#EC008C;stroke-width:2.8346;stroke-miterlimit:10;" points="338.38,1710.067 388.533,1764.098 
		438.687,1818.128 275.82,1974.756 112.954,2131.385 56.477,2131.385 0,2131.385 4.528,2079.635 9.055,2027.885 173.717,1868.976 	
		"/>
	<polygon style="fill:none;stroke:#000000;stroke-width:2.8346;stroke-miterlimit:10;" points="684.528,1386.074 735.307,1383.857 
		786.086,1381.64 969.936,1559.141 1153.785,1736.643 1098.917,1787.686 1044.049,1838.73 860.212,1663.992 676.375,1489.255 
		680.452,1437.664 	"/>
	<polygon style="fill:none;stroke:#662D91;stroke-width:2.8346;stroke-miterlimit:10;" points="991.053,1788.357 1045.886,1736.883 
		1100.719,1685.409 1280.336,1858.816 1459.953,2032.223 1459.953,2081.804 1459.953,2131.385 1405.948,2131.385 1351.943,2131.385 
		1171.498,1959.871 	"/>
	<polygon style="fill:none;stroke:#754C29;stroke-width:2.8346;stroke-miterlimit:10;" points="1019.679,1052.573 
		1047.453,1025.769 1075.227,998.966 1267.59,1177.795 1459.953,1356.625 1459.953,1406.221 1459.953,1455.817 1405.948,1458.174 
		1351.943,1460.532 1351.943,1410.361 1351.943,1360.191 1185.811,1206.382 	"/>
	<polygon style="fill:none;stroke:#00AEEF;stroke-width:2.8346;stroke-miterlimit:10;" points="728.135,734.547 780.443,729.971 
		832.751,725.395 834.611,751.206 836.471,777.017 1010.574,938.864 1184.678,1100.711 1156.964,1127.363 1129.25,1154.016 
		930.588,970.089 731.926,786.163 730.03,760.355 	"/>
	<polygon style="fill:none;stroke:#00AEEF;stroke-width:2.8346;stroke-miterlimit:10;" points="729.439,734.433 730.682,760.298 
		731.926,786.163 531.708,973.801 331.49,1161.439 356.043,1184.777 380.596,1208.115 608.929,992.531 837.262,776.948 
		835.006,751.171 832.751,725.395 781.095,729.914 	"/>
	<polygon style="fill:none;stroke:#F7941D;stroke-width:2.8346;stroke-miterlimit:10;" points="446.435,1053.716 470.541,1076.99 
		494.647,1100.263 330.823,1255.183 166.999,1410.103 162.513,1461.381 158.027,1512.66 105.88,1514.937 53.733,1517.214 
		58.282,1465.216 62.831,1413.218 254.633,1233.467 	"/>
	<polygon style="fill:none;stroke:#F7941D;stroke-width:2.8346;stroke-miterlimit:10;" points="62.831,1413.218 114.978,1410.941 
		167.125,1408.664 162.576,1460.662 158.027,1512.66 298.357,1665.394 438.687,1818.128 411.057,1844.7 383.427,1871.271 
		218.58,1694.242 53.733,1517.214 58.282,1465.216 	"/>
	<polygon style="fill:none;stroke:#000000;stroke-width:2.8346;stroke-miterlimit:10;" points="283.044,1763.47 310.712,1736.768 
		338.38,1710.067 485.885,1868.976 633.391,2027.885 685.516,2027.885 737.642,2027.885 733.553,2079.635 729.464,2131.385 
		677.553,2131.385 625.642,2131.385 454.343,1947.427 	"/>
	<polygon style="fill:none;stroke:#000000;stroke-width:2.8346;stroke-miterlimit:10;" points="1100.719,1685.409 
		1127.252,1711.026 1153.785,1736.643 941.625,1934.014 729.464,2131.385 677.553,2131.385 625.642,2131.385 629.73,2079.635 
		633.819,2027.885 684.857,2027.885 735.896,2027.885 918.307,1856.647 	"/>
	<polygon style="fill:none;stroke:#754C29;stroke-width:2.8346;stroke-miterlimit:10;" points="991.053,1788.357 1017.551,1813.543 
		1044.049,1838.73 1252.001,1645.289 1459.953,1451.848 1459.953,1402.033 1459.953,1352.218 1405.948,1354.576 1351.943,1356.934 
		1351.943,1403.254 1351.943,1449.575 1171.498,1618.966 	"/>
	<polygon style="fill:none;stroke:#000000;stroke-width:2.8346;stroke-miterlimit:10;" points="701.024,424.668 1062.423,393.05 
		1423.822,361.432 1426.077,387.208 1428.332,412.985 1066.933,444.603 705.534,476.222 703.279,450.445 	"/>
	<polygon style="fill:none;stroke:#000000;stroke-width:2.8346;stroke-miterlimit:10;" points="669.403,63.237 721.711,58.66 
		774.019,54.084 792.052,260.199 810.085,466.314 809.363,466.757 808.641,467.201 757.087,471.711 705.534,476.222 
		687.469,269.729 	"/>
	<polygon style="fill:none;stroke:#000000;stroke-width:2.8346;stroke-miterlimit:10;" points="81.333,478.884 443.487,447.2 
		805.64,415.516 807.896,441.292 810.151,467.069 447.997,498.753 85.843,530.438 83.588,504.661 	"/>
	<polygon style="fill:none;stroke:#00AEEF;stroke-width:2.8346;stroke-miterlimit:10;" points="701.024,424.668 753.332,420.092 
		805.64,415.516 821.451,596.232 837.262,776.948 784.953,781.524 732.645,786.1 716.835,605.384 	"/>
	<polygon style="fill:none;stroke:#000000;stroke-width:2.8346;stroke-miterlimit:10;" points="1289.094,9.021 1340.647,4.51 
		1392.201,0 1410.266,206.492 1428.332,412.985 1376.779,417.495 1325.226,422.006 1307.16,215.513 	"/>
	<polygon style="fill:none;stroke:#000000;stroke-width:2.8346;stroke-miterlimit:10;" points="669.403,63.237 1030.802,31.618 
		1392.201,0 1396.711,51.553 1401.221,103.106 1039.822,134.724 678.424,166.343 673.913,114.79 	"/>
	<polygon style="fill:none;stroke:#FFF200;stroke-width:2.8346;stroke-miterlimit:10;" points="774.019,54.084 778.529,105.637 
		783.04,157.19 420.886,188.874 58.732,220.559 54.222,169.006 49.711,117.453 411.865,85.768 	"/>
	<polygon style="fill:none;stroke:#FFF200;stroke-width:2.8346;stroke-miterlimit:10;" points="49.711,117.453 101.265,112.942 
		152.818,108.432 170.883,314.924 188.949,521.417 137.396,525.927 85.843,530.438 67.777,323.945 	"/>
	<polygon style="fill:none;stroke:#00A651;stroke-width:2.8346;stroke-miterlimit:10;" points="81.333,478.884 132.89,474.426 
		184.448,469.967 200.254,650.631 216.06,831.296 164.507,835.806 112.954,840.316 97.143,659.6 	"/>
	
		<polygon style="opacity:0.5;fill:#D7DF23;stroke:#2E3192;stroke-width:2.8346;stroke-miterlimit:10;enable-background:new    ;" points="
		1320.725,370.452 1372.273,365.942 1423.822,361.432 1441.887,567.924 1459.953,774.417 1459.953,800.391 1459.953,826.365 
		1405.948,831.089 1351.943,835.814 1352.14,783.849 1352.337,731.884 1336.531,551.168 	"/>
	<polygon style="fill:none;stroke:#000000;stroke-width:2.8346;stroke-miterlimit:10;" points="1047.034,212.072 1100.779,233.377 
		1154.525,254.682 981.583,360.941 808.641,467.201 757.087,471.711 705.534,476.222 703.279,450.445 701.024,424.668 
		874.029,318.37 	"/>
	<polygon style="fill:none;stroke:#000000;stroke-width:2.8346;stroke-miterlimit:10;" points="1289.094,9.021 1291.349,34.797 
		1293.605,60.574 1145.461,151.597 997.317,242.62 1051.123,263.887 1104.929,285.155 1253.075,194.131 1401.221,103.106 
		1396.711,51.553 1392.201,0 1340.647,4.51 	"/>
	<polygon style="fill:none;stroke:#000000;stroke-width:2.8346;stroke-miterlimit:10;" points="328.291,327.148 377.606,296.848 
		426.921,266.547 616.314,341.409 805.706,416.271 807.896,441.292 810.085,466.314 809.363,466.757 808.641,467.201 
		756.989,471.72 705.337,476.239 516.814,401.693 	"/>
	<polygon style="fill:none;stroke:#FFF200;stroke-width:2.8346;stroke-miterlimit:10;" points="481.176,287.993 431.801,318.273 
		382.426,348.553 220.579,284.556 58.732,220.559 54.222,169.006 49.711,117.453 101.265,112.942 152.818,108.432 155.073,134.208 
		157.328,159.985 319.252,223.989 	"/>
	<polygon style="fill:none;stroke:#000000;stroke-width:2.8346;stroke-miterlimit:10;" points="701.024,424.668 752.577,420.158 
		804.13,415.648 804.918,415.959 805.706,416.271 807.896,441.292 810.085,466.314 636.569,572.926 463.053,679.538 409.247,658.27 
		355.441,637.002 528.233,530.835 	"/>
	<polygon style="fill:none;stroke:#00A651;stroke-width:2.8346;stroke-miterlimit:10;" points="405.045,606.525 458.903,627.76 
		512.76,648.997 364.41,740.146 216.06,831.296 212.275,883.575 208.491,935.853 156.142,940.433 103.794,945.013 108.374,892.665 
		112.954,840.316 110.699,814.54 108.444,788.763 256.744,697.644 	"/>
	<polygon style="fill:none;stroke:#000000;stroke-width:2.8346;stroke-miterlimit:10;" points="701.024,424.668 752.577,420.158 
		804.13,415.648 992.897,490.262 1181.663,564.876 1132.359,595.236 1083.055,625.596 894.299,550.958 705.543,476.32 
		703.284,450.494 	"/>
	<polygon style="fill:none;stroke:#2E3192;stroke-width:2.8346;stroke-miterlimit:10;" points="1028.797,604.141 1078.163,573.81 
		1127.529,543.478 1289.231,607.395 1450.933,671.311 1453.188,697.087 1455.443,722.864 1403.693,727.391 1351.943,731.919 
		1190.37,668.03 	"/>
	<polygon style="fill:none;stroke:#000000;stroke-width:2.8346;stroke-miterlimit:10;" points="997.317,242.62 1022.175,227.346 
		1047.034,212.072 1235.428,286.752 1423.822,361.432 1426.077,387.208 1428.332,412.985 1376.779,417.498 1325.226,422.01 
		1322.976,396.231 1320.725,370.452 1159.021,306.536 	"/>
	<polygon style="fill:none;stroke:#000000;stroke-width:2.8346;stroke-miterlimit:10;" points="669.403,63.237 721.711,58.66 
		774.019,54.084 776.274,79.86 778.529,105.637 966.527,180.159 1154.525,254.682 1129.727,269.918 1104.929,285.155 
		889.421,199.972 673.913,114.79 671.658,89.013 	"/>
	<polygon style="fill:none;stroke:#000000;stroke-width:2.8346;stroke-miterlimit:10;" points="328.281,327.144 501.097,220.967 
		673.913,114.79 671.658,89.013 669.403,63.237 721.711,58.66 774.019,54.084 776.274,79.86 778.529,105.637 580.478,227.095 
		382.426,348.553 355.354,337.849 	"/>
	<polygon style="fill:none;stroke:#000000;stroke-width:2.8346;stroke-miterlimit:10;" points="426.921,266.547 454.049,277.27 
		481.176,287.993 332.812,378.98 184.448,469.967 186.698,495.692 188.949,521.417 137.396,525.927 85.843,530.438 83.588,504.661 
		81.333,478.884 254.127,372.716 	"/>
	<polygon style="fill:none;stroke:#000000;stroke-width:2.8346;stroke-miterlimit:10;" points="81.333,478.884 132.989,474.365 
		184.645,469.846 186.797,495.631 188.949,521.417 350.855,585.207 512.76,648.997 487.906,664.267 463.053,679.538 
		274.448,604.988 85.843,530.438 83.588,504.661 	"/>
	<polygon style="fill:none;stroke:#00AEEF;stroke-width:2.8346;stroke-miterlimit:10;" points="405.045,606.525 567.242,670.479 
		729.439,734.433 781.095,729.914 832.751,725.395 835.006,751.171 837.262,776.948 784.594,781.555 731.926,786.163 
		543.684,711.583 355.441,637.002 380.243,621.763 	"/>
	<polygon style="fill:none;stroke:#00AEEF;stroke-width:2.8346;stroke-miterlimit:10;" points="1127.529,543.478 1154.596,554.177 
		1181.663,564.876 1009.464,670.912 837.265,776.947 832.735,829.291 828.205,881.635 775.933,886.209 723.66,890.782 
		727.793,838.473 731.926,786.163 730.03,760.355 728.135,734.547 779.683,730.037 831.232,725.528 979.38,634.503 	"/>
	<polygon style="fill:none;stroke:#000000;stroke-width:2.8346;stroke-miterlimit:10;" points="1320.725,370.452 1322.98,396.228 
		1325.235,422.005 1177.016,513.073 1028.797,604.141 1055.926,614.868 1083.055,625.596 1255.694,519.29 1428.332,412.985 
		1426.077,387.208 1423.822,361.432 1372.273,365.942 	"/>
</g>
<g>
	
		<polygon style="opacity:0.5;fill:#EF4136;stroke:#00A651;stroke-width:17.0079;stroke-miterlimit:10;enable-background:new    ;" points="
		3352.108,3789.353 3300.535,3785.076 3248.961,3780.799 3244.45,3832.355 3239.94,3883.911 3243.725,3936.19 3247.509,3988.469 
		3299.858,3993.049 3352.206,3997.628 3347.626,3945.28 3343.046,3892.932 3347.577,3841.142 	"/>
	
		<polygon style="opacity:0.75;fill:#EF4136;stroke:#00A651;stroke-width:17.0079;stroke-miterlimit:10;enable-background:new    ;" points="
		3321.912,3839.135 3296.136,3836.88 3270.359,3834.625 3265.849,3886.178 3261.339,3937.731 3287.115,3939.986 3312.892,3942.241 
		3317.402,3890.688 	"/>
	
		<polygon style="opacity:0.75;fill:none;stroke:#00AEEF;stroke-width:17.0079;stroke-miterlimit:10;enable-background:new    ;" points="
		2671.802,3834.205 2594.472,3827.44 2517.142,3820.675 2514.887,3846.451 2512.632,3872.228 2589.962,3878.993 2667.291,3885.759 
		2669.546,3859.982 	"/>
	<polygon style="fill:none;stroke:#00AEEF;stroke-width:17.0079;stroke-miterlimit:10;" points="2595.949,3827.214 
		2597.91,3801.411 2599.871,3775.609 2677.834,3782.608 2755.796,3789.606 2753.165,3815.383 2750.533,3841.16 2746.57,3892.728 
		2742.607,3944.295 2669.863,3937.753 2597.12,3931.211 2594.625,3905.02 2592.132,3878.827 2629.711,3882.293 2667.291,3885.759 
		2669.546,3859.982 2671.802,3834.205 2633.875,3830.709 	"/>
	
		<polygon style="opacity:0.75;fill:#D7DF23;stroke:#3A53A4;stroke-width:17.0079;stroke-miterlimit:10;enable-background:new    ;" points="
		2000.557,3775.479 1998.302,3801.256 1996.047,3827.032 2075.779,3834.008 2155.512,3840.984 2157.767,3815.207 2160.022,3789.43 
		2080.29,3782.455 	"/>
	
		<polygon style="opacity:0.5;fill:#D7DF23;stroke:#3A53A4;stroke-width:17.0079;stroke-miterlimit:10;enable-background:new    ;" points="
		2005.067,3723.926 2123.453,3733.876 2241.839,3743.825 2235.433,3821.187 2229.027,3898.548 2112.537,3888.764 1996.047,3878.98 
		1996.047,3853.006 1996.047,3827.032 2075.779,3834.008 2155.512,3840.984 2157.767,3815.207 2160.022,3789.43 2080.29,3782.455 
		2000.557,3775.479 2002.812,3749.703 	"/>
	
		<polygon style="opacity:0.75;fill:none;stroke:#FFF200;stroke-width:17.0079;stroke-miterlimit:10;enable-background:new    ;" points="
		3376.002,3219.366 3350.225,3217.111 3324.449,3214.855 3319.938,3266.409 3315.428,3317.962 3341.205,3320.217 3366.981,3322.472 
		3371.491,3270.919 	"/>
	<polygon style="fill:none;stroke:#FFF200;stroke-width:17.0079;stroke-miterlimit:10;" points="3397.268,3273.174 
		3384.38,3272.046 3371.491,3270.919 3373.747,3245.142 3376.002,3219.366 3350.225,3217.111 3324.449,3214.855 3322.193,3240.632 
		3319.938,3266.409 3307.05,3265.281 3294.162,3264.153 3298.672,3212.6 3303.182,3161.047 3354.735,3165.558 3406.289,3170.068 
		3401.778,3221.621 	"/>
	
		<polygon style="opacity:0.75;fill:none;stroke:#F7941D;stroke-width:17.0079;stroke-miterlimit:10;enable-background:new    ;" points="
		3373.287,4535.463 3347.51,4537.718 3321.733,4539.973 3328.499,4617.303 3335.264,4694.632 3361.041,4692.377 3386.817,4690.122 
		3380.052,4612.792 	"/>
	<polygon style="fill:none;stroke:#F7941D;stroke-width:17.0079;stroke-miterlimit:10;" points="3393.168,4465.833 
		3341.022,4463.556 3288.875,4461.279 3295.855,4541.066 3302.836,4620.852 3354.387,4616.32 3405.938,4611.789 3399.553,4538.811 	
		"/>
	
		<polygon style="opacity:0.75;fill:none;stroke:#EC008C;stroke-width:17.0079;stroke-miterlimit:10;enable-background:new    ;" points="
		3422.866,5102.16 3397.09,5104.415 3371.313,5106.67 3374.696,5145.335 3378.078,5184 3404.052,5184 3430.026,5184 
		3426.446,5143.08 	"/>
	<polygon style="fill:none;stroke:#EC008C;stroke-width:17.0079;stroke-miterlimit:10;" points="3456,5184 3448.891,5102.748 
		3441.783,5021.496 3390.247,5026.198 3338.71,5030.901 3345.504,5107.45 3352.298,5184 3404.149,5184 	"/>
	
		<polygon style="opacity:0.75;fill:none;stroke:#662D91;stroke-width:17.0079;stroke-miterlimit:10;enable-background:new    ;" points="
		2078.182,5106.375 2052.307,5106.375 2026.432,5106.375 2026.432,5145.188 2026.432,5184 2052.307,5184 2078.182,5184 
		2078.182,5145.188 	"/>
	<polygon style="fill:none;stroke:#662D91;stroke-width:17.0079;stroke-miterlimit:10;" points="1996.047,5184 2050.052,5184 
		2104.057,5184 2104.057,5106.278 2104.057,5028.557 2050.052,5028.745 1996.047,5028.933 1996.047,5106.466 	"/>
	
		<polygon style="opacity:0.75;fill:none;stroke:#754C29;stroke-width:17.0079;stroke-miterlimit:10;enable-background:new    ;" points="
		2078.182,4638.484 2078.182,4560.859 2078.182,4483.234 2052.307,4483.234 2026.432,4483.234 2026.432,4560.859 2026.432,4638.484 
		2052.307,4638.484 	"/>
	<polygon style="fill:none;stroke:#754C29;stroke-width:17.0079;stroke-miterlimit:10;" points="2104.057,4560.981 
		2050.052,4560.793 1996.047,4560.604 1996.047,4482.719 1996.047,4404.833 2050.052,4407.191 2104.057,4409.549 2104.057,4485.265 
			"/>
	
		<polygon style="opacity:0.75;fill:#00A651;stroke:#EF4136;stroke-width:17.0079;stroke-miterlimit:10;enable-background:new    ;" points="
		3323.646,3968.063 3297.869,3970.319 3272.093,3972.574 3278.858,4049.903 3285.623,4127.233 3311.4,4124.978 3337.177,4122.723 
		3330.411,4045.393 	"/>
	
		<polygon style="opacity:0.5;fill:#00A651;stroke:#EF4136;stroke-width:17.0079;stroke-miterlimit:10;enable-background:new    ;" points="
		3343.046,3892.932 3291.493,3888.421 3239.94,3883.911 3246.526,3968.206 3253.111,4052.501 3304.679,4048.156 3356.246,4043.811 
		3349.646,3968.371 	"/>
	
		<polygon style="opacity:0.75;fill:#2E3192;stroke:#D7DF23;stroke-width:17.0079;stroke-miterlimit:10;enable-background:new    ;" points="
		2078.182,3860.192 2052.307,3860.192 2026.432,3860.192 2026.432,3937.916 2026.432,4015.64 2052.307,4015.64 2078.182,4015.64 
		2078.182,3937.916 	"/>
	
		<polygon style="opacity:0.5;fill:#2E3192;stroke:#D7DF23;stroke-width:17.0079;stroke-miterlimit:10;enable-background:new    ;" points="
		2103.663,3784.5 2052.11,3779.99 2000.557,3775.479 1998.302,3801.256 1996.047,3827.032 1996.047,3882.29 1996.047,3937.547 
		2050.052,3937.359 2104.057,3937.17 2104.057,3860.852 2104.057,3784.534 2103.86,3784.517 	"/>
	<polygon style="fill:none;stroke:#F7941D;stroke-width:11.3386;stroke-miterlimit:10;" points="2667.29,4434.141 
		2671.397,4486.119 2675.504,4538.098 3038.885,4553.963 3402.267,4569.829 3397.718,4517.831 3393.168,4465.833 3030.229,4449.987 
			"/>
	<polygon style="fill:none;stroke:#00AEEF;stroke-width:11.3386;stroke-miterlimit:10;" points="2727.865,3787.163 
		2675.557,3782.586 2623.249,3778.01 2620.994,3803.786 2618.739,3829.563 2623.267,3881.907 2627.795,3934.251 2651.649,4236.174 
		2675.504,4538.098 2727.175,4540.354 2778.846,4542.61 2779.235,4542.24 2779.625,4541.87 2755.982,4242.633 2732.34,3943.397 
		2727.847,3891.056 2723.355,3838.716 2725.61,3812.939 	"/>
	<polygon style="fill:none;stroke:#754C29;stroke-width:11.3386;stroke-miterlimit:10;" points="2771.472,4438.689 
		2383.76,4421.761 1996.047,4404.833 1996.047,4456.633 1996.047,4508.432 2387.447,4525.521 2778.846,4542.61 2779.235,4542.24 
		2779.625,4541.87 2775.548,4490.279 	"/>
	<polygon style="fill:none;stroke:#000000;stroke-width:11.3386;stroke-miterlimit:10;" points="2771.472,4438.689 
		2719.272,4436.41 2667.073,4434.131 2696.804,4809.065 2726.536,5184 2778.447,5184 2830.358,5184 2800.915,4811.345 	"/>
	
		<polygon style="opacity:0.5;fill:#F7941D;stroke:#EF4136;stroke-width:11.3386;stroke-miterlimit:10;enable-background:new    ;" points="
		3347.556,3841.379 3296.003,3836.868 3244.45,3832.358 3242.195,3858.135 3239.94,3883.911 3268.957,4224.593 3297.973,4565.275 
		3350.12,4567.552 3402.267,4569.829 3372.656,4231.38 3343.046,3892.932 3345.301,3867.155 	"/>
	
		<polygon style="opacity:0.5;fill:#00AEEF;stroke:#EF4136;stroke-width:11.3386;stroke-miterlimit:10;enable-background:new    ;" points="
		3347.556,3841.379 2985.403,3809.694 2623.249,3778.01 2620.994,3803.786 2618.739,3829.563 2623.267,3881.907 2627.795,3934.251 
		2990,3965.939 3352.206,3997.628 3347.626,3945.28 3343.046,3892.932 3345.301,3867.155 	"/>
	
		<polygon style="opacity:0.5;fill:#00AEEF;stroke:#2E3192;stroke-width:11.3386;stroke-miterlimit:10;enable-background:new    ;" points="
		2727.865,3787.163 2366.466,3755.544 2005.067,3723.926 2000.557,3775.479 1996.047,3827.032 1996.047,3853.006 1996.047,3878.98 
		2364.193,3911.188 2732.34,3943.397 2728.207,3891.088 2724.074,3838.779 2725.97,3812.971 	"/>
	
		<polygon style="opacity:0.5;fill:#D7DF23;stroke:#754C29;stroke-width:11.3386;stroke-miterlimit:10;enable-background:new    ;" points="
		2108.174,3732.947 2056.62,3728.436 2005.067,3723.926 2000.557,3775.479 1996.047,3827.032 1996.047,4167.732 1996.047,4508.432 
		2050.052,4510.79 2104.057,4513.148 2104.057,4148.841 2104.057,3784.534 2106.115,3758.74 	"/>
	
		<polygon style="opacity:0.5;fill:#662D91;stroke:#754C29;stroke-width:11.3386;stroke-miterlimit:10;enable-background:new    ;" points="
		2104.057,4409.549 2050.052,4407.191 1996.047,4404.833 1996.047,4794.417 1996.047,5184 2050.052,5184 2104.057,5184 
		2104.057,4796.774 	"/>
	<polygon style="fill:none;stroke:#662D91;stroke-width:11.3386;stroke-miterlimit:10;" points="2822.181,5080.5 2826.27,5132.25 
		2830.358,5184 2413.203,5184 1996.047,5184 1996.047,5132.25 1996.047,5080.5 2409.114,5080.5 	"/>
	<polygon style="fill:none;stroke:#EC008C;stroke-width:11.3386;stroke-miterlimit:10;" points="2718.358,5080.5 2722.447,5132.25 
		2726.536,5184 3091.268,5184 3456,5184 3451.472,5132.25 3446.945,5080.5 3082.652,5080.5 	"/>
	
		<polygon style="opacity:0.5;fill:#F7941D;stroke:#EC008C;stroke-width:11.3386;stroke-miterlimit:10;enable-background:new    ;" points="
		3456,5184 3424.584,4824.917 3393.168,4465.833 3341.143,4463.562 3289.117,4461.29 3320.519,4822.645 3351.921,5184 3365,5184 
		3378.078,5184 3417.039,5184 	"/>
	<polygon style="fill:none;stroke:#000000;stroke-width:11.3386;stroke-miterlimit:10;" points="3124.51,4214.055 
		3067.037,4160.193 3009.565,4106.332 2838.525,4271.466 2667.485,4436.6 2671.494,4487.349 2675.504,4538.098 2727.175,4540.354 
		2778.846,4542.61 2951.678,4378.332 	"/>
	<polygon style="fill:none;stroke:#EF4136;stroke-width:11.3386;stroke-miterlimit:10;" points="3239.94,3883.911 
		3291.493,3888.421 3343.046,3892.932 3347.626,3945.28 3352.206,3997.628 3213.805,4129.179 3075.404,4260.73 3018.378,4206.804 
		2961.353,4152.878 3100.647,4018.395 	"/>
	<polygon style="fill:none;stroke:#000000;stroke-width:11.3386;stroke-miterlimit:10;" points="2380.772,4051.581 
		2326.047,4102.454 2271.323,4153.326 2471.273,4345.618 2671.224,4537.911 2725.035,4540.26 2778.846,4542.61 2779.235,4542.24 
		2779.625,4541.87 2775.118,4484.834 2770.612,4427.799 2575.692,4239.69 	"/>
	
		<polygon style="opacity:0.5;fill:#D7DF23;stroke:#2E3192;stroke-width:11.3386;stroke-miterlimit:10;enable-background:new    ;" points="
		2104.057,3784.534 2270.189,3944.861 2436.321,4105.188 2381.535,4155.91 2326.75,4206.631 2161.399,4047.618 1996.047,3888.606 
		1996.047,3857.819 1996.047,3827.032 2000.557,3775.479 2005.067,3723.926 2056.62,3728.436 2108.174,3732.947 2106.115,3758.74 	
		"/>
	<polygon style="fill:none;stroke:#000000;stroke-width:11.3386;stroke-miterlimit:10;" points="2771.472,4438.689 
		2720.693,4436.472 2669.914,4434.255 2486.064,4611.756 2302.215,4789.258 2357.083,4840.302 2411.951,4891.345 2595.788,4716.607 
		2779.625,4541.87 2775.548,4490.279 	"/>
	<polygon style="fill:none;stroke:#662D91;stroke-width:11.3386;stroke-miterlimit:10;" points="2464.947,4840.973 
		2410.114,4789.499 2355.281,4738.024 2175.664,4911.432 1996.047,5084.839 1996.047,5134.419 1996.047,5184 2050.052,5184 
		2104.057,5184 2284.502,5012.486 	"/>
	<polygon style="fill:none;stroke:#000000;stroke-width:11.3386;stroke-miterlimit:10;" points="2782.39,4439.166 2726.152,4436.71 
		2669.914,4434.255 2668.699,4435.428 2667.485,4436.6 2671.662,4489.475 2675.84,4542.349 2874.206,4733.118 3072.573,4923.886 
		3122.765,4869.986 3172.956,4816.085 2977.673,4627.625 	"/>
	<polygon style="fill:none;stroke:#EC008C;stroke-width:11.3386;stroke-miterlimit:10;" points="3117.62,4762.683 
		3067.467,4816.713 3017.313,4870.744 3180.18,5027.372 3343.046,5184 3399.523,5184 3456,5184 3451.472,5132.25 3446.945,5080.5 
		3282.283,4921.591 	"/>
	<polygon style="fill:none;stroke:#F7941D;stroke-width:11.3386;stroke-miterlimit:10;" points="3009.565,4106.332 
		2985.459,4129.605 2961.353,4152.878 3125.177,4307.798 3289.001,4462.718 3293.487,4513.997 3297.973,4565.275 3350.12,4567.552 
		3402.267,4569.829 3397.718,4517.831 3393.168,4465.833 3201.367,4286.083 	"/>
	<polygon style="fill:none;stroke:#00AEEF;stroke-width:11.3386;stroke-miterlimit:10;" points="2726.561,3787.049 
		2725.318,3812.914 2724.074,3838.779 2924.292,4026.417 3124.51,4214.055 3099.957,4237.393 3075.404,4260.73 2847.071,4045.147 
		2618.739,3829.563 2620.994,3803.786 2623.249,3778.01 2674.905,3782.529 	"/>
	<polygon style="fill:none;stroke:#00AEEF;stroke-width:11.3386;stroke-miterlimit:10;" points="2727.865,3787.163 
		2675.557,3782.586 2623.249,3778.01 2621.389,3803.821 2619.529,3829.632 2445.426,3991.479 2271.323,4153.326 2299.036,4179.979 
		2326.75,4206.631 2525.412,4022.705 2724.074,3838.779 2725.97,3812.971 	"/>
	<polygon style="fill:none;stroke:#754C29;stroke-width:11.3386;stroke-miterlimit:10;" points="2436.321,4105.188 
		2408.547,4078.385 2380.772,4051.581 2188.41,4230.411 1996.047,4409.24 1996.047,4458.836 1996.047,4508.432 2050.052,4510.79 
		2104.057,4513.148 2104.057,4462.977 2104.057,4412.806 2270.189,4258.997 	"/>
	<polygon style="fill:none;stroke:#754C29;stroke-width:11.3386;stroke-miterlimit:10;" points="2464.947,4840.973 
		2438.449,4866.159 2411.951,4891.345 2203.999,4697.904 1996.047,4504.463 1996.047,4454.648 1996.047,4404.833 2050.052,4407.191 
		2104.057,4409.549 2104.057,4455.87 2104.057,4502.19 2284.502,4671.582 	"/>
	<polygon style="fill:none;stroke:#000000;stroke-width:11.3386;stroke-miterlimit:10;" points="2355.281,4738.024 
		2328.748,4763.641 2302.215,4789.258 2514.375,4986.629 2726.536,5184 2778.447,5184 2830.358,5184 2826.27,5132.25 
		2822.181,5080.5 2771.143,5080.5 2720.104,5080.5 2537.693,4909.262 	"/>
	<polygon style="fill:none;stroke:#000000;stroke-width:11.3386;stroke-miterlimit:10;" points="3172.956,4816.085 
		3145.288,4789.384 3117.62,4762.683 2970.115,4921.591 2822.609,5080.5 2770.484,5080.5 2718.358,5080.5 2722.447,5132.25 
		2726.536,5184 2778.447,5184 2830.358,5184 3001.657,5000.042 	"/>
	<polygon style="fill:none;stroke:#F7941D;stroke-width:11.3386;stroke-miterlimit:10;" points="3393.168,4465.833 
		3341.022,4463.556 3288.875,4461.279 3293.424,4513.277 3297.973,4565.275 3157.643,4718.009 3017.313,4870.744 3044.943,4897.315 
		3072.573,4923.886 3237.42,4746.857 3402.267,4569.829 3397.718,4517.831 	"/>
	<polygon style="fill:none;stroke:#000000;stroke-width:11.3386;stroke-miterlimit:10;" points="3374.667,3531.5 3012.513,3499.815 
		2650.36,3468.131 2648.104,3493.908 2645.849,3519.684 3008.003,3551.368 3370.157,3583.053 3372.412,3557.276 	"/>
	<polygon style="fill:none;stroke:#000000;stroke-width:11.3386;stroke-miterlimit:10;" points="2786.597,3115.852 
		2734.289,3111.276 2681.981,3106.699 2663.948,3312.814 2645.915,3518.929 2646.637,3519.373 2647.359,3519.816 2698.913,3524.327 
		2750.466,3528.837 2768.531,3322.344 	"/>
	<polygon style="fill:none;stroke:#000000;stroke-width:11.3386;stroke-miterlimit:10;" points="2754.976,3477.284 
		2393.577,3445.666 2032.178,3414.047 2029.923,3439.824 2027.668,3465.6 2389.067,3497.219 2750.466,3528.837 2752.721,3503.06 	
		"/>
	<polygon style="fill:none;stroke:#00AEEF;stroke-width:11.3386;stroke-miterlimit:10;" points="2754.976,3477.284 
		2702.668,3472.708 2650.36,3468.131 2634.549,3648.847 2618.739,3829.563 2671.047,3834.139 2723.355,3838.716 2739.165,3658 	"/>
	<polygon style="fill:none;stroke:#FFF200;stroke-width:11.3386;stroke-miterlimit:10;" points="3406.289,3170.068 
		3354.735,3165.558 3303.182,3161.047 3285.117,3367.54 3267.051,3574.032 3318.604,3578.542 3370.157,3583.053 3388.223,3376.56 	
		"/>
	<polygon style="fill:none;stroke:#FFF200;stroke-width:11.3386;stroke-miterlimit:10;" points="2681.981,3106.699 
		2677.47,3158.252 2672.96,3209.805 3035.114,3241.49 3397.268,3273.174 3401.778,3221.621 3406.289,3170.068 3044.135,3138.384 	
		"/>
	<polygon style="fill:none;stroke:#000000;stroke-width:11.3386;stroke-miterlimit:10;" points="2786.597,3115.852 
		2425.198,3084.234 2063.8,3052.615 2059.289,3104.168 2054.779,3155.721 2416.178,3187.34 2777.576,3218.958 2782.087,3167.405 	
		"/>
	<polygon style="fill:none;stroke:#000000;stroke-width:11.3386;stroke-miterlimit:10;" points="2166.906,3061.636 
		2115.353,3057.126 2063.8,3052.615 2045.734,3259.108 2027.668,3465.6 2079.221,3470.111 2130.774,3474.621 2148.84,3268.128 	"/>
	
		<polygon style="opacity:0.5;fill:#D7DF23;stroke:#2E3192;stroke-width:11.3386;stroke-miterlimit:10;enable-background:new    ;" points="
		2135.275,3423.067 2083.727,3418.557 2032.178,3414.047 2014.113,3620.54 1996.047,3827.032 1996.047,3853.006 1996.047,3878.98 
		2050.052,3883.705 2104.057,3888.429 2103.86,3836.465 2103.663,3784.5 2119.469,3603.783 	"/>
	<polygon style="fill:none;stroke:#00A651;stroke-width:11.3386;stroke-miterlimit:10;" points="3374.667,3531.5 3323.11,3527.041 
		3271.552,3522.582 3255.746,3703.247 3239.94,3883.911 3291.493,3888.421 3343.046,3892.932 3358.857,3712.216 	"/>
	<polygon style="fill:none;stroke:#000000;stroke-width:11.3386;stroke-miterlimit:10;" points="3127.709,3379.763 
		3078.394,3349.463 3029.079,3319.163 2839.687,3394.024 2650.293,3468.886 2648.104,3493.908 2645.915,3518.929 2646.637,3519.373 
		2647.359,3519.816 2699.011,3524.335 2750.663,3528.854 2939.186,3454.309 	"/>
	<polygon style="fill:none;stroke:#FFF200;stroke-width:11.3386;stroke-miterlimit:10;" points="2974.823,3340.609 
		3024.199,3370.889 3073.574,3401.169 3235.421,3337.171 3397.268,3273.174 3401.778,3221.621 3406.289,3170.068 3354.735,3165.558 
		3303.182,3161.047 3300.927,3186.824 3298.672,3212.6 3136.748,3276.604 	"/>
	<polygon style="fill:none;stroke:#000000;stroke-width:11.3386;stroke-miterlimit:10;" points="2408.966,3264.688 
		2355.221,3285.993 2301.475,3307.297 2474.417,3413.557 2647.359,3519.816 2698.913,3524.327 2750.466,3528.837 2752.721,3503.06 
		2754.976,3477.284 2581.971,3370.986 	"/>
	<polygon style="fill:none;stroke:#000000;stroke-width:11.3386;stroke-miterlimit:10;" points="2166.906,3061.636 
		2164.65,3087.413 2162.395,3113.189 2310.539,3204.212 2458.683,3295.235 2404.877,3316.503 2351.071,3337.77 2202.925,3246.746 
		2054.779,3155.721 2059.289,3104.168 2063.8,3052.615 2115.353,3057.126 	"/>
	<polygon style="fill:none;stroke:#000000;stroke-width:11.3386;stroke-miterlimit:10;" points="2754.976,3477.284 
		2703.423,3472.773 2651.87,3468.263 2463.103,3542.877 2274.337,3617.491 2323.641,3647.851 2372.945,3678.211 2561.701,3603.573 
		2750.457,3528.935 2752.717,3503.11 	"/>
	<polygon style="fill:none;stroke:#2E3192;stroke-width:11.3386;stroke-miterlimit:10;" points="2427.203,3656.756 
		2377.837,3626.425 2328.471,3596.094 2166.769,3660.01 2005.067,3723.926 2002.812,3749.703 2000.557,3775.479 2052.307,3780.007 
		2104.057,3784.534 2265.63,3720.645 	"/>
	<polygon style="fill:none;stroke:#000000;stroke-width:11.3386;stroke-miterlimit:10;" points="2754.976,3477.284 
		2703.423,3472.773 2651.87,3468.263 2651.082,3468.575 2650.293,3468.886 2648.104,3493.908 2645.915,3518.929 2819.431,3625.541 
		2992.948,3732.153 3046.753,3710.885 3100.559,3689.618 2927.767,3583.451 	"/>
	<polygon style="fill:none;stroke:#00A651;stroke-width:11.3386;stroke-miterlimit:10;" points="3050.955,3659.14 
		2997.097,3680.376 2943.24,3701.612 3091.59,3792.761 3239.94,3883.911 3243.725,3936.19 3247.509,3988.469 3299.858,3993.049 
		3352.206,3997.628 3347.626,3945.28 3343.046,3892.932 3345.301,3867.155 3347.556,3841.379 3199.256,3750.259 	"/>
	<polygon style="fill:none;stroke:#000000;stroke-width:11.3386;stroke-miterlimit:10;" points="3029.079,3319.163 
		3001.951,3329.886 2974.823,3340.609 3123.188,3431.595 3271.552,3522.582 3269.302,3548.307 3267.051,3574.032 3318.604,3578.542 
		3370.157,3583.053 3372.412,3557.276 3374.667,3531.5 3201.873,3425.331 	"/>
	<polygon style="fill:none;stroke:#000000;stroke-width:11.3386;stroke-miterlimit:10;" points="3127.719,3379.759 
		2954.903,3273.582 2782.087,3167.405 2784.342,3141.628 2786.597,3115.852 2734.289,3111.276 2681.981,3106.699 2679.726,3132.476 
		2677.47,3158.252 2875.522,3279.71 3073.574,3401.169 3100.646,3390.464 	"/>
	<polygon style="fill:none;stroke:#000000;stroke-width:11.3386;stroke-miterlimit:10;" points="2786.597,3115.852 
		2734.289,3111.276 2681.981,3106.699 2679.726,3132.476 2677.47,3158.252 2489.473,3232.775 2301.475,3307.297 2326.273,3322.534 
		2351.071,3337.77 2566.579,3252.588 2782.087,3167.405 2784.342,3141.628 	"/>
	<polygon style="fill:none;stroke:#000000;stroke-width:11.3386;stroke-miterlimit:10;" points="2458.683,3295.235 
		2433.825,3279.961 2408.966,3264.688 2220.572,3339.367 2032.178,3414.047 2029.923,3439.824 2027.668,3465.6 2079.221,3470.113 
		2130.774,3474.626 2133.024,3448.846 2135.275,3423.067 2296.979,3359.151 	"/>
	<polygon style="fill:none;stroke:#000000;stroke-width:11.3386;stroke-miterlimit:10;" points="2135.275,3423.067 
		2133.02,3448.844 2130.765,3474.62 2278.984,3565.688 2427.203,3656.756 2400.074,3667.483 2372.945,3678.211 2200.306,3571.906 
		2027.668,3465.6 2029.923,3439.824 2032.178,3414.047 2083.727,3418.557 	"/>
	<polygon style="fill:none;stroke:#00AEEF;stroke-width:11.3386;stroke-miterlimit:10;" points="2328.471,3596.094 
		2301.404,3606.792 2274.337,3617.491 2446.536,3723.527 2618.736,3829.563 2623.265,3881.907 2627.795,3934.251 2680.067,3938.824 
		2732.34,3943.397 2728.207,3891.088 2724.074,3838.779 2725.97,3812.971 2727.865,3787.163 2676.317,3782.653 2624.768,3778.143 
		2476.62,3687.118 	"/>
	<polygon style="fill:none;stroke:#00AEEF;stroke-width:11.3386;stroke-miterlimit:10;" points="3050.955,3659.14 
		2888.758,3723.094 2726.561,3787.049 2674.905,3782.529 2623.249,3778.01 2620.994,3803.786 2618.739,3829.563 2671.406,3834.171 
		2724.074,3838.779 2912.316,3764.198 3100.559,3689.618 3075.757,3674.379 	"/>
	<polygon style="fill:none;stroke:#000000;stroke-width:11.3386;stroke-miterlimit:10;" points="3374.667,3531.5 3323.011,3526.98 
		3271.355,3522.461 3269.203,3548.247 3267.051,3574.032 3105.146,3637.822 2943.24,3701.612 2968.094,3716.883 2992.948,3732.153 
		3181.552,3657.603 3370.157,3583.053 3372.412,3557.276 	"/>
</g>
</svg>
